<svg xmlns="http://www.w3.org/2000/svg" viewBox="0 0 138 145"><defs><style>.cls-1{isolation:isolate;}.cls-2{opacity:0.2;mix-blend-mode:multiply;}.cls-3{fill:#652b81;}.cls-4{fill:#fff;}</style></defs><g class="cls-1"><g id="Layer_1" data-name="Layer 1"><g class="cls-2"><path d="M73.51,61a19.1,19.1,0,0,1-2.65,1.1L68,63.1a35.66,35.66,0,0,0-4.87,1.76V54.68a76,76,0,0,0,7.31-3.57,23.83,23.83,0,0,0,6.06-4.27l10.71,0v71.7l-13.72,0Z"/><path d="M73.1,60.58a18.57,18.57,0,0,1-2.65,1.1l-2.84,1a36.22,36.22,0,0,0-4.87,1.76V54.27a76,76,0,0,0,7.31-3.57,23.83,23.83,0,0,0,6.06-4.27l10.71,0v71.7l-13.72,0Z"/><path d="M72.69,60.17A18.57,18.57,0,0,1,70,61.27l-2.83,1A37.53,37.53,0,0,0,62.33,64V53.86a74.86,74.86,0,0,0,7.31-3.57A23.83,23.83,0,0,0,75.7,46l10.71,0v71.7l-13.72,0Z"/><path d="M72.28,59.76a18.57,18.57,0,0,1-2.65,1.1l-2.83,1a37.16,37.16,0,0,0-4.87,1.76V53.45a76,76,0,0,0,7.3-3.57,23.83,23.83,0,0,0,6.06-4.27l10.71,0v71.7l-13.72,0Z"/><path d="M71.87,59.35a18.57,18.57,0,0,1-2.65,1.1l-2.83,1a37.16,37.16,0,0,0-4.87,1.76V53a78,78,0,0,0,7.3-3.56,23.82,23.82,0,0,0,6.06-4.28l10.71,0v71.7l-13.72,0Z"/><path d="M71.47,59A19.62,19.62,0,0,1,68.81,60l-2.83,1a37.16,37.16,0,0,0-4.87,1.76V52.63a76.82,76.82,0,0,0,7.3-3.56,23.82,23.82,0,0,0,6.06-4.28l10.72,0v71.7l-13.72,0Z"/><path d="M71.06,58.54a20.12,20.12,0,0,1-2.66,1.1l-2.83,1A37.16,37.16,0,0,0,60.7,62.4V52.22A76.82,76.82,0,0,0,68,48.66a23.82,23.82,0,0,0,6.06-4.28l10.72,0v71.7l-13.72,0Z"/><path d="M70.65,58.13A20.12,20.12,0,0,1,68,59.23c-1.24.43-2.18.77-2.83,1A37.73,37.73,0,0,0,60.29,62V51.81a74.46,74.46,0,0,0,7.3-3.56A23.91,23.91,0,0,0,73.66,44l10.71,0v71.7l-13.72,0Z"/><path d="M70.24,57.72a20.12,20.12,0,0,1-2.66,1.1l-2.83,1a37.73,37.73,0,0,0-4.87,1.75V51.4a74.46,74.46,0,0,0,7.3-3.56,23.72,23.72,0,0,0,6.07-4.28L84,43.6v71.69l-13.72,0Z"/><path d="M69.83,57.31a20.12,20.12,0,0,1-2.66,1.1l-2.83,1a37.73,37.73,0,0,0-4.87,1.75V51a73.3,73.3,0,0,0,7.31-3.56,23.57,23.57,0,0,0,6.06-4.28l10.71,0v71.69l-13.72,0Z"/><path d="M69.42,56.9A20.45,20.45,0,0,1,66.77,58l-2.84,1a37.73,37.73,0,0,0-4.87,1.75V50.59A76,76,0,0,0,66.37,47a23.83,23.83,0,0,0,6.06-4.27l10.71,0v71.7l-13.72,0Z"/><path d="M69,56.49a18.57,18.57,0,0,1-2.65,1.1l-2.84,1a36.22,36.22,0,0,0-4.87,1.76V50.18A76,76,0,0,0,66,46.61,23.83,23.83,0,0,0,72,42.34l10.71,0v71.7L69,114Z"/><path d="M68.6,56.08A18.57,18.57,0,0,1,66,57.18l-2.83,1A37.53,37.53,0,0,0,58.24,60V49.77a76,76,0,0,0,7.31-3.57,23.83,23.83,0,0,0,6.06-4.27l10.71,0v71.7l-13.72,0Z"/><path d="M68.19,55.67a18.57,18.57,0,0,1-2.65,1.1l-2.83,1a37.16,37.16,0,0,0-4.87,1.76V49.36a76,76,0,0,0,7.3-3.57,23.83,23.83,0,0,0,6.06-4.27l10.71,0v71.7l-13.72,0Z"/><path d="M67.78,55.26a18.57,18.57,0,0,1-2.65,1.1l-2.83,1a37.16,37.16,0,0,0-4.87,1.76V49a76,76,0,0,0,7.3-3.57,23.83,23.83,0,0,0,6.06-4.27l10.71,0v71.7l-13.72,0Z"/><path d="M67.37,54.86A18.82,18.82,0,0,1,64.72,56l-2.83,1A37.16,37.16,0,0,0,57,58.72V48.54A76.82,76.82,0,0,0,64.32,45a23.82,23.82,0,0,0,6.06-4.28l10.72,0v71.7l-13.73,0Z"/><path d="M67,54.45a19.07,19.07,0,0,1-2.66,1.09l-2.83,1a37.16,37.16,0,0,0-4.87,1.76V48.13a76.82,76.82,0,0,0,7.3-3.56A23.82,23.82,0,0,0,70,40.29l10.72,0V112L67,112Z"/><path d="M66.56,54a20.12,20.12,0,0,1-2.66,1.1c-1.24.43-2.18.77-2.83,1A37.73,37.73,0,0,0,56.2,57.9V47.72a76.82,76.82,0,0,0,7.3-3.56,24.1,24.1,0,0,0,6.07-4.28l10.71,0v71.7l-13.72,0Z"/><path d="M66.15,53.63a20.12,20.12,0,0,1-2.66,1.1l-2.83,1a37.73,37.73,0,0,0-4.87,1.75V47.31a74.46,74.46,0,0,0,7.3-3.56,23.91,23.91,0,0,0,6.07-4.28l10.71,0v71.7l-13.72,0Z"/><path d="M65.74,53.22a20.12,20.12,0,0,1-2.66,1.1l-2.83,1a37.73,37.73,0,0,0-4.87,1.75V46.9a73.3,73.3,0,0,0,7.31-3.56,23.82,23.82,0,0,0,6.06-4.28l10.71,0v71.69l-13.72,0Z"/><path d="M65.33,52.81a20.12,20.12,0,0,1-2.66,1.1l-2.83,1A37.73,37.73,0,0,0,55,56.67V46.5a76,76,0,0,0,7.31-3.57,23.83,23.83,0,0,0,6.06-4.27l10.71,0v71.7l-13.72,0Z"/><path d="M64.92,52.4a19.1,19.1,0,0,1-2.65,1.1l-2.84,1a35.66,35.66,0,0,0-4.87,1.76V46.09a76,76,0,0,0,7.31-3.57,23.83,23.83,0,0,0,6.06-4.27l10.71,0V110l-13.72,0Z"/><path d="M64.51,52a18.57,18.57,0,0,1-2.65,1.1L59,54.1a37.53,37.53,0,0,0-4.88,1.76V45.68a76,76,0,0,0,7.31-3.57,23.83,23.83,0,0,0,6.06-4.27l10.71,0v71.7l-13.72,0Z"/><path d="M64.1,51.58a18.57,18.57,0,0,1-2.65,1.1l-2.83,1a37.53,37.53,0,0,0-4.88,1.76V45.27a74.86,74.86,0,0,0,7.31-3.57,23.83,23.83,0,0,0,6.06-4.27l10.71,0v71.7l-13.72,0Z"/><path d="M63.69,51.17A18.57,18.57,0,0,1,61,52.27l-2.83,1A37.16,37.16,0,0,0,53.34,55V44.86a76,76,0,0,0,7.3-3.57A23.83,23.83,0,0,0,66.7,37l10.71,0v71.7l-13.72,0Z"/><path d="M63.28,50.76a17.46,17.46,0,0,1-2.65,1.1l-2.83,1a37.16,37.16,0,0,0-4.87,1.76V44.45a78,78,0,0,0,7.3-3.56,23.82,23.82,0,0,0,6.06-4.28l10.71,0v71.7l-13.72,0Z"/><path d="M62.88,50.36a19.62,19.62,0,0,1-2.66,1.09l-2.83,1a37.16,37.16,0,0,0-4.87,1.76V44a76.82,76.82,0,0,0,7.3-3.56,23.82,23.82,0,0,0,6.06-4.28l10.72,0v71.7l-13.72,0Z"/><path d="M62.47,50a20.12,20.12,0,0,1-2.66,1.1l-2.83,1a37.16,37.16,0,0,0-4.87,1.76V43.63a76.82,76.82,0,0,0,7.3-3.56,24.1,24.1,0,0,0,6.07-4.28l10.71,0v71.7l-13.72,0Z"/><path d="M62.06,49.54a20.12,20.12,0,0,1-2.66,1.1c-1.24.43-2.18.77-2.83,1A37.73,37.73,0,0,0,51.7,53.4V43.22A74.46,74.46,0,0,0,59,39.66a23.91,23.91,0,0,0,6.07-4.28l10.71,0v71.7l-13.72,0Z"/><path d="M61.65,49.13A20.12,20.12,0,0,1,59,50.23l-2.83,1A37.73,37.73,0,0,0,51.29,53V42.81a74.46,74.46,0,0,0,7.3-3.56A23.72,23.72,0,0,0,64.66,35l10.71,0V106.7l-13.72,0Z"/><path d="M61.24,48.72a20.12,20.12,0,0,1-2.66,1.1l-2.83,1a37.73,37.73,0,0,0-4.87,1.75V42.4a73.3,73.3,0,0,0,7.31-3.56,23.57,23.57,0,0,0,6.06-4.28L75,34.6v71.69l-13.72,0Z"/></g><path class="cls-3" d="M77.2,106.41l-16.07,0V49.46l-1.09.4-2.83,1a36.44,36.44,0,0,0-4.71,1.68l-1.73.94V40.55l.73-.3a74.15,74.15,0,0,0,7.19-3.5,22.93,22.93,0,0,0,5.75-4l.35-.39,12.41,0ZM63.48,104l11.37,0V34.7l-9,0a26.68,26.68,0,0,1-6,4.13c-2.56,1.39-4.8,2.5-6.69,3.31v7.64c.75-.27,1.81-.63,3.34-1.12l2.8-1a19.19,19.19,0,0,0,2.47-1l1.75-1Z"/><path class="cls-3" d="M77.79,105.82l-16.07,0V48.87l-1.09.4-2.83,1A36.44,36.44,0,0,0,53.09,52l-1.73.94V40l.73-.3a74.15,74.15,0,0,0,7.19-3.5,22.93,22.93,0,0,0,5.75-4l.35-.38,12.41,0Zm-13.72-2.39,11.37,0V34.12l-9,0a26.68,26.68,0,0,1-6,4.13c-2.56,1.39-4.8,2.5-6.69,3.31v7.64c.75-.27,1.81-.63,3.34-1.11l2.8-1a19.19,19.19,0,0,0,2.47-1l1.75-1Z"/><path class="cls-3" d="M78.38,105.23l-16.07,0V48.28l-1.09.41-2.83,1a33.84,33.84,0,0,0-4.71,1.69L52,52.31V39.37l.73-.29a77,77,0,0,0,7.19-3.51,23.13,23.13,0,0,0,5.75-4l.35-.38,12.41,0Zm-13.72-2.39,11.37,0V33.53l-9,0a26.68,26.68,0,0,1-6,4.13C58.43,39,56.18,40.13,54.3,41v7.63c.75-.27,1.81-.63,3.34-1.11l2.79-1a18.87,18.87,0,0,0,2.48-1l1.75-1Z"/><path class="cls-3" d="M79,104.64l-16.08,0V47.69l-1.08.41L59,49.1a34.81,34.81,0,0,0-4.71,1.69l-1.73.93V38.78l.73-.29A78.24,78.24,0,0,0,60.46,35a22.87,22.87,0,0,0,5.75-4l.35-.38,12.41,0Zm-13.72-2.39,11.36,0V32.94l-9,0a26.68,26.68,0,0,1-6,4.13c-2.56,1.39-4.81,2.51-6.69,3.32V48c.75-.27,1.81-.63,3.34-1.11l2.79-1a17.55,17.55,0,0,0,2.48-1l1.75-1Z"/><path class="cls-3" d="M79.55,104.05l-16.07,0V47.11l-1.09.4-2.82,1a34.81,34.81,0,0,0-4.71,1.69l-1.73.94V38.2l.73-.3A78.24,78.24,0,0,0,61,34.39a22.77,22.77,0,0,0,5.76-4l.35-.38,12.4,0Zm-13.72-2.39,11.37,0V32.35l-9,0a26.55,26.55,0,0,1-6,4.13c-2.55,1.39-4.8,2.51-6.68,3.32V47.4c.75-.27,1.81-.63,3.34-1.11l2.79-1a17.55,17.55,0,0,0,2.48-1l1.74-1Z"/><path class="cls-3" d="M80.14,103.46l-16.07,0V46.52l-1.09.4-2.82,1a34.81,34.81,0,0,0-4.71,1.69l-1.74.94V37.61l.74-.3a78.24,78.24,0,0,0,7.18-3.51,23,23,0,0,0,5.76-4l.35-.39,12.4,0Zm-13.72-2.38,11.37,0V31.76l-9,0a26.55,26.55,0,0,1-6,4.13c-2.55,1.4-4.8,2.51-6.68,3.32v7.64c.75-.28,1.81-.64,3.34-1.12l2.79-1a18.09,18.09,0,0,0,2.48-1l1.74-1Z"/><path class="cls-3" d="M80.73,102.88l-16.07,0V45.93l-1.09.4-2.82,1A34.07,34.07,0,0,0,56,49L54.3,50V37l.74-.3a75.71,75.71,0,0,0,7.18-3.51,23,23,0,0,0,5.76-4l.35-.39,12.4,0ZM67,100.49l11.37,0V31.17l-9,0a26.76,26.76,0,0,1-6,4.14c-2.55,1.39-4.8,2.5-6.69,3.31v7.64c.76-.28,1.82-.64,3.35-1.12l2.79-1a18.09,18.09,0,0,0,2.48-1l1.74-1Z"/><path class="cls-3" d="M81.32,102.29l-16.07-.05V45.34l-1.09.4-2.82,1a35.74,35.74,0,0,0-4.71,1.68l-1.74.94V36.43l.73-.3a72.26,72.26,0,0,0,7.19-3.51,23,23,0,0,0,5.76-4l.35-.39,12.4,0ZM67.6,99.9l11.37,0V30.58l-9,0a26.78,26.78,0,0,1-6,4.13c-2.55,1.39-4.8,2.5-6.69,3.31v7.64c.76-.28,1.82-.64,3.35-1.12l2.79-1a18.39,18.39,0,0,0,2.48-1l1.74-1Z"/><path class="cls-3" d="M81.91,101.7l-16.07,0V44.75l-1.09.4-2.82,1a35.74,35.74,0,0,0-4.71,1.68l-1.74.94V35.84l.73-.3A72.26,72.26,0,0,0,63.4,32a22.69,22.69,0,0,0,5.75-4l.36-.39,12.4,0ZM68.19,99.31l11.37,0V30l-9,0a27,27,0,0,1-6,4.13c-2.56,1.39-4.8,2.5-6.69,3.31v7.64c.76-.28,1.82-.64,3.34-1.12l2.8-1a17.57,17.57,0,0,0,2.47-1l1.75-1Z"/><path class="cls-3" d="M82.5,101.11l-16.07,0V44.16l-1.09.4-2.82,1a35.74,35.74,0,0,0-4.71,1.68l-1.74.94V35.25l.73-.3A72.26,72.26,0,0,0,64,31.44a22.69,22.69,0,0,0,5.75-4l.35-.39,12.41,0ZM68.78,98.72l11.37,0V29.4l-9,0a27,27,0,0,1-6,4.13c-2.56,1.39-4.8,2.5-6.69,3.31v7.64c.75-.28,1.82-.64,3.34-1.12l2.8-1a18.58,18.58,0,0,0,2.47-1l1.75-1Z"/><path class="cls-3" d="M83.09,100.52l-16.07,0V43.57l-1.09.4-2.82,1a35.07,35.07,0,0,0-4.71,1.68l-1.74.94V34.66l.73-.3a72.26,72.26,0,0,0,7.19-3.51,22.69,22.69,0,0,0,5.75-4l.35-.39,12.41,0ZM69.37,98.13l11.37,0V28.81l-9,0a27,27,0,0,1-6,4.13c-2.56,1.39-4.8,2.5-6.69,3.31v7.64c.75-.27,1.82-.64,3.34-1.12l2.8-1a19.19,19.19,0,0,0,2.47-1l1.75-1Z"/><path class="cls-4" d="M68.19,41.77a18.82,18.82,0,0,1-2.65,1.09l-2.83,1a37.16,37.16,0,0,0-4.87,1.76V35.45a78,78,0,0,0,7.3-3.56,23.82,23.82,0,0,0,6.06-4.28l10.71,0v71.7l-13.72,0Z"/></g></g></svg>