<svg xmlns="http://www.w3.org/2000/svg" viewBox="0 0 138 145"><defs><style>.cls-1{isolation:isolate;}.cls-2{opacity:0.2;mix-blend-mode:multiply;}.cls-3{fill:#652b81;}.cls-4{fill:#fff;}</style></defs><g class="cls-1"><g id="Layer_1" data-name="Layer 1"><g class="cls-2"><path d="M55.9,109.26,73.33,82.49l1.33-2a73.76,73.76,0,0,0,4.73-8.26A16.71,16.71,0,0,0,81,65a8.89,8.89,0,0,0-1.33-5.27,4.57,4.57,0,0,0-3.9-1.83,5.12,5.12,0,0,0-5,2.82,17.57,17.57,0,0,0-1.42,7.79v3.27l-13.36,0V68.19q0-10.09,4.73-16t14.83-5.84q9.29,0,14.16,5t4.87,14a23.11,23.11,0,0,1-2,9.87A84.61,84.61,0,0,1,86.08,86l-1,1.5L71.3,108.16l21.24.06V119l-36.64-.11Z"/><path d="M55.49,108.85,72.92,82.08l1.33-2A74.09,74.09,0,0,0,79,71.79a16.85,16.85,0,0,0,1.55-7.21,8.89,8.89,0,0,0-1.33-5.27,4.57,4.57,0,0,0-3.9-1.83,5.14,5.14,0,0,0-5,2.82,17.57,17.57,0,0,0-1.42,7.79v3.27l-13.36,0V67.78q0-10.08,4.73-16T75.05,46q9.28,0,14.16,5t4.87,13.95a23.11,23.11,0,0,1-2,9.87,83.93,83.93,0,0,1-6.37,10.82l-1,1.5L70.89,107.75l21.24.06v10.8l-36.64-.11Z"/><path d="M55.08,108.45,72.51,81.67l1.33-2a74.09,74.09,0,0,0,4.74-8.26,16.85,16.85,0,0,0,1.55-7.21A8.89,8.89,0,0,0,78.8,58.9a4.57,4.57,0,0,0-3.9-1.83,5.15,5.15,0,0,0-5,2.82,17.57,17.57,0,0,0-1.42,7.79V71l-13.36,0V67.37q0-10.08,4.73-16t14.83-5.84q9.3,0,14.16,5t4.87,14a23.06,23.06,0,0,1-2,9.86,82.77,82.77,0,0,1-6.37,10.82l-1,1.51L70.48,107.34l21.24.06v10.8l-36.64-.11Z"/><path d="M54.67,108,72.11,81.27l1.32-2A74.09,74.09,0,0,0,78.17,71a16.85,16.85,0,0,0,1.55-7.21,8.89,8.89,0,0,0-1.33-5.27,4.57,4.57,0,0,0-3.89-1.83,5.15,5.15,0,0,0-5,2.82A17.57,17.57,0,0,0,68,67.27v3.27l-13.36,0V67q0-10.08,4.73-16t14.83-5.84q9.3,0,14.16,5t4.87,14a23.06,23.06,0,0,1-2,9.86,82.79,82.79,0,0,1-6.37,10.83l-1,1.5L70.07,106.93l21.24.06v10.8l-36.64-.11Z"/><path d="M54.26,107.63,71.7,80.86l1.32-2a72.52,72.52,0,0,0,4.74-8.27,16.85,16.85,0,0,0,1.55-7.21A8.82,8.82,0,0,0,78,58.08a4.51,4.51,0,0,0-3.89-1.82,5.13,5.13,0,0,0-5,2.81,17.75,17.75,0,0,0-1.41,7.79v3.27l-13.37,0V66.56q0-10.1,4.73-16t14.83-5.84q9.3,0,14.16,5t4.87,14a23.21,23.21,0,0,1-2,9.86,84.19,84.19,0,0,1-6.38,10.83l-1,1.5L69.66,106.52l21.25.06v10.8l-36.65-.1Z"/><path d="M53.85,107.22,71.29,80.45l1.33-2a73.76,73.76,0,0,0,4.73-8.27,16.85,16.85,0,0,0,1.55-7.21,8.84,8.84,0,0,0-1.33-5.27,4.51,4.51,0,0,0-3.89-1.82,5.13,5.13,0,0,0-5.05,2.82,17.67,17.67,0,0,0-1.41,7.78v3.28l-13.37,0V66.15q0-10.1,4.73-16t14.83-5.84q9.3,0,14.16,4.95t4.87,14a23.17,23.17,0,0,1-2,9.86A83,83,0,0,1,84,83.94l-1,1.5L69.25,106.11l21.25.06V117l-36.65-.1Z"/><path d="M53.44,106.81,70.88,80l1.33-2a73.76,73.76,0,0,0,4.73-8.27,16.85,16.85,0,0,0,1.55-7.21,8.84,8.84,0,0,0-1.33-5.27,4.51,4.51,0,0,0-3.89-1.82,5.13,5.13,0,0,0-5,2.82A17.67,17.67,0,0,0,66.81,66v3.28l-13.37,0V65.74q0-10.09,4.73-16T73,43.93q9.3,0,14.17,5t4.86,14a23,23,0,0,1-2,9.86,83,83,0,0,1-6.38,10.83l-1,1.5L68.84,105.7l21.25.06v10.8l-36.65-.1Z"/><path d="M53,106.4,70.47,79.63l1.33-2a73.76,73.76,0,0,0,4.73-8.26,16.91,16.91,0,0,0,1.55-7.21,8.8,8.8,0,0,0-1.33-5.27A4.49,4.49,0,0,0,72.86,55a5.13,5.13,0,0,0-5,2.82,17.67,17.67,0,0,0-1.41,7.78v3.28L53,68.87V65.33q0-10.09,4.74-16t14.82-5.85q9.3,0,14.17,4.95t4.87,14a23,23,0,0,1-2,9.86,83,83,0,0,1-6.38,10.83l-1,1.5L68.43,105.29l21.25.07v10.79L53,116.05Z"/><path d="M52.62,106,70.06,79.22l1.33-2a73.76,73.76,0,0,0,4.73-8.26,16.73,16.73,0,0,0,1.55-7.21,8.8,8.8,0,0,0-1.33-5.27,4.52,4.52,0,0,0-3.89-1.83,5.11,5.11,0,0,0-5,2.82A17.52,17.52,0,0,0,66,65.22V68.5l-13.37,0V64.92q0-10.1,4.74-16t14.82-5.85q9.3,0,14.17,5t4.87,14a23,23,0,0,1-2,9.86,83.94,83.94,0,0,1-6.37,10.83l-1,1.5L68,104.88l21.25.07v10.8l-36.65-.11Z"/><path d="M52.21,105.58,69.65,78.81l1.33-2a73.76,73.76,0,0,0,4.73-8.26,16.73,16.73,0,0,0,1.55-7.21A8.89,8.89,0,0,0,75.94,56,4.57,4.57,0,0,0,72,54.21,5.11,5.11,0,0,0,67,57a17.55,17.55,0,0,0-1.42,7.78v3.28l-13.37,0V64.51q0-10.1,4.74-16T71.77,42.7q9.3,0,14.17,5t4.87,14a23.11,23.11,0,0,1-2,9.87A84.61,84.61,0,0,1,82.4,82.3l-1,1.5L67.61,104.48l21.25.06v10.8l-36.65-.11Z"/><path d="M51.8,105.17,69.24,78.4l1.33-2a73.76,73.76,0,0,0,4.73-8.26,16.73,16.73,0,0,0,1.55-7.21,8.89,8.89,0,0,0-1.32-5.27,4.57,4.57,0,0,0-3.9-1.83,5.11,5.11,0,0,0-5,2.82,17.55,17.55,0,0,0-1.42,7.78v3.28l-13.37,0V64.1q0-10.09,4.74-16t14.83-5.85q9.28,0,14.16,5t4.87,14a23.11,23.11,0,0,1-2,9.87A84.61,84.61,0,0,1,82,81.89l-1,1.5L67.21,104.07l21.24.06v10.8l-36.65-.11Z"/><path d="M51.4,104.76,68.83,78l1.33-2A74.09,74.09,0,0,0,74.9,67.7a16.85,16.85,0,0,0,1.55-7.21,8.89,8.89,0,0,0-1.33-5.27,4.57,4.57,0,0,0-3.9-1.83,5.12,5.12,0,0,0-5,2.82A17.57,17.57,0,0,0,64.76,64v3.27l-13.36,0V63.69q0-10.08,4.73-16T71,41.89q9.29,0,14.16,5T90,60.79a23.11,23.11,0,0,1-2,9.87,83.93,83.93,0,0,1-6.37,10.82l-1,1.5L66.8,103.66l21.24.06v10.8l-36.64-.11Z"/><path d="M51,104.36,68.42,77.58l1.33-2a74.09,74.09,0,0,0,4.74-8.26A16.85,16.85,0,0,0,76,60.08a8.89,8.89,0,0,0-1.33-5.27A4.57,4.57,0,0,0,70.81,53a5.14,5.14,0,0,0-5,2.82,17.57,17.57,0,0,0-1.42,7.79v3.27L51,66.82V63.28q0-10.08,4.73-16t14.83-5.84q9.28,0,14.16,5t4.87,14a23.09,23.09,0,0,1-2,9.86,82.77,82.77,0,0,1-6.37,10.82l-1,1.51L66.39,103.25l21.24.06v10.8L51,114Z"/><path d="M50.58,104,68,77.18l1.33-2a74.09,74.09,0,0,0,4.74-8.26,16.85,16.85,0,0,0,1.55-7.21A8.89,8.89,0,0,0,74.3,54.4a4.57,4.57,0,0,0-3.89-1.83,5.15,5.15,0,0,0-5,2.82,17.57,17.57,0,0,0-1.42,7.79v3.27l-13.36,0V62.87q0-10.08,4.73-16t14.83-5.84q9.3,0,14.16,5t4.87,14a23.06,23.06,0,0,1-2,9.86,82.12,82.12,0,0,1-6.37,10.82l-1,1.51L66,102.84l21.24.06v10.8l-36.64-.11Z"/><path d="M50.17,103.54,67.61,76.77l1.32-2a71.67,71.67,0,0,0,4.74-8.26,16.85,16.85,0,0,0,1.55-7.21A8.89,8.89,0,0,0,73.89,54,4.51,4.51,0,0,0,70,52.17,5.13,5.13,0,0,0,65,55a17.75,17.75,0,0,0-1.41,7.79V66L50.17,66V62.46q0-10.08,4.73-16t14.83-5.84q9.3,0,14.16,5t4.87,14a23.21,23.21,0,0,1-2,9.86,84.19,84.19,0,0,1-6.38,10.83l-1,1.5L65.57,102.43l21.24.06v10.8l-36.64-.1Z"/><path d="M49.76,103.13,67.2,76.36l1.33-2a73.76,73.76,0,0,0,4.73-8.27,16.85,16.85,0,0,0,1.55-7.21,8.84,8.84,0,0,0-1.33-5.27,4.51,4.51,0,0,0-3.89-1.82,5.14,5.14,0,0,0-5,2.81,17.75,17.75,0,0,0-1.41,7.79v3.27l-13.37,0V62.06q0-10.1,4.73-16t14.83-5.84q9.3,0,14.16,5t4.87,14a23.17,23.17,0,0,1-2,9.86,84.19,84.19,0,0,1-6.38,10.83l-1,1.5L65.16,102l21.25.06v10.8l-36.65-.1Z"/><path d="M49.35,102.72,66.79,76l1.33-2a73.76,73.76,0,0,0,4.73-8.27,16.85,16.85,0,0,0,1.55-7.21,8.84,8.84,0,0,0-1.33-5.27,4.51,4.51,0,0,0-3.89-1.82,5.13,5.13,0,0,0-5.05,2.82A17.67,17.67,0,0,0,62.72,62v3.28l-13.37,0V61.65q0-10.09,4.73-16t14.83-5.84q9.3,0,14.17,4.95t4.86,14a23,23,0,0,1-2,9.86,83,83,0,0,1-6.38,10.83l-1,1.5L64.75,101.61l21.25.06v10.8l-36.65-.1Z"/><path d="M48.94,102.31,66.38,75.54l1.33-2a73.76,73.76,0,0,0,4.73-8.27A16.85,16.85,0,0,0,74,58a8.84,8.84,0,0,0-1.33-5.27,4.51,4.51,0,0,0-3.89-1.82,5.13,5.13,0,0,0-5,2.82,17.67,17.67,0,0,0-1.41,7.78v3.28l-13.37,0V61.24q0-10.1,4.74-16T68.5,39.43q9.3,0,14.17,5t4.86,14a23,23,0,0,1-2,9.86A83,83,0,0,1,79.12,79l-1,1.5L64.34,101.2l21.25.07v10.79L48.94,112Z"/><path d="M48.53,101.9,66,75.13l1.33-2A73.76,73.76,0,0,0,72,64.84a16.91,16.91,0,0,0,1.55-7.21,8.8,8.8,0,0,0-1.33-5.27,4.49,4.49,0,0,0-3.89-1.83,5.13,5.13,0,0,0-5,2.82,17.67,17.67,0,0,0-1.41,7.78v3.28l-13.37,0V60.83q0-10.09,4.74-16T68.09,39q9.3,0,14.17,4.95t4.87,14a23,23,0,0,1-2,9.86,83,83,0,0,1-6.38,10.83l-1,1.5L63.93,100.79l21.25.07v10.79l-36.65-.1Z"/><path d="M48.12,101.49,65.56,74.72l1.33-2a73.76,73.76,0,0,0,4.73-8.26,16.73,16.73,0,0,0,1.55-7.21A8.8,8.8,0,0,0,71.84,52,4.54,4.54,0,0,0,68,50.12a5.11,5.11,0,0,0-5,2.82,17.52,17.52,0,0,0-1.42,7.78V64L48.12,64V60.42q0-10.1,4.74-16t14.82-5.85q9.3,0,14.17,5t4.87,14a23.11,23.11,0,0,1-2,9.87,84.61,84.61,0,0,1-6.37,10.82l-1,1.5L63.52,100.38l21.25.07v10.8l-36.65-.11Z"/><path d="M47.71,101.08,65.15,74.31l1.33-2A73.76,73.76,0,0,0,71.21,64a16.73,16.73,0,0,0,1.55-7.21,8.89,8.89,0,0,0-1.32-5.27,4.57,4.57,0,0,0-3.9-1.83,5.11,5.11,0,0,0-5,2.82,17.55,17.55,0,0,0-1.42,7.78v3.28l-13.37,0V60q0-10.09,4.74-16T67.28,38.2q9.28,0,14.16,5t4.87,14a23.11,23.11,0,0,1-2,9.87A84.61,84.61,0,0,1,77.9,77.8l-1,1.5L63.11,100l21.25.06v10.8l-36.65-.11Z"/><path d="M47.31,100.67,64.74,73.9l1.33-2a73.76,73.76,0,0,0,4.73-8.26,16.71,16.71,0,0,0,1.56-7.21A8.89,8.89,0,0,0,71,51.13a4.57,4.57,0,0,0-3.9-1.83,5.12,5.12,0,0,0-5,2.82,17.57,17.57,0,0,0-1.42,7.79v3.27l-13.36,0V59.6q0-10.1,4.73-16T66.87,37.8q9.28,0,14.16,5t4.87,14a23.11,23.11,0,0,1-2,9.87,84.61,84.61,0,0,1-6.37,10.82l-1,1.5L62.71,99.57,84,99.63v10.8l-36.64-.11Z"/><path d="M46.9,100.26,64.33,73.49l1.33-2A74.09,74.09,0,0,0,70.4,63.2,16.85,16.85,0,0,0,72,56a8.89,8.89,0,0,0-1.33-5.27,4.57,4.57,0,0,0-3.9-1.83,5.14,5.14,0,0,0-5,2.82,17.57,17.57,0,0,0-1.42,7.79v3.27l-13.36,0V59.19q0-10.08,4.73-16t14.83-5.84q9.29,0,14.16,5t4.87,13.95a23.11,23.11,0,0,1-2,9.87A82.77,82.77,0,0,1,77.08,77l-1,1.51L62.3,99.16l21.24.06V110l-36.64-.11Z"/><path d="M46.49,99.86,63.92,73.08l1.33-2A74.09,74.09,0,0,0,70,62.79a16.85,16.85,0,0,0,1.55-7.21,8.89,8.89,0,0,0-1.33-5.27,4.57,4.57,0,0,0-3.9-1.83,5.15,5.15,0,0,0-5,2.82,17.57,17.57,0,0,0-1.42,7.79v3.27l-13.36,0V58.78q0-10.08,4.73-16T66.05,37q9.3,0,14.16,5t4.87,14a23.06,23.06,0,0,1-2,9.86,82.12,82.12,0,0,1-6.37,10.82l-1,1.51L61.89,98.75l21.24.06v10.8l-36.64-.11Z"/><path d="M46.08,99.45,63.52,72.68l1.32-2a73.2,73.2,0,0,0,4.74-8.26,16.85,16.85,0,0,0,1.55-7.21A8.89,8.89,0,0,0,69.8,49.9a4.57,4.57,0,0,0-3.89-1.83,5.15,5.15,0,0,0-5,2.82,17.57,17.57,0,0,0-1.42,7.79V62l-13.36,0V58.37q0-10.08,4.73-16t14.83-5.84q9.3,0,14.16,5t4.87,14a23.21,23.21,0,0,1-2,9.86,84.19,84.19,0,0,1-6.38,10.83l-1,1.5L61.48,98.34l21.24.06v10.8l-36.64-.11Z"/><path d="M45.67,99,63.11,72.27l1.32-2A72.52,72.52,0,0,0,69.17,62a16.85,16.85,0,0,0,1.55-7.21,8.82,8.82,0,0,0-1.33-5.27,4.51,4.51,0,0,0-3.89-1.82,5.13,5.13,0,0,0-5,2.81A17.75,17.75,0,0,0,59,58.27v3.27l-13.37,0V58q0-10.09,4.73-16t14.83-5.84q9.3,0,14.16,5t4.87,14a23.21,23.21,0,0,1-2,9.86,84.19,84.19,0,0,1-6.38,10.83l-1,1.5L61.07,97.93,82.32,98v10.8l-36.65-.1Z"/><path d="M45.26,98.63,62.7,71.86l1.33-2a73.76,73.76,0,0,0,4.73-8.27,16.85,16.85,0,0,0,1.55-7.21A8.84,8.84,0,0,0,69,49.08a4.51,4.51,0,0,0-3.89-1.82A5.13,5.13,0,0,0,60,50.08a17.67,17.67,0,0,0-1.41,7.78v3.28l-13.37,0V57.56q0-10.1,4.73-16t14.83-5.84q9.3,0,14.16,5t4.87,14a23.17,23.17,0,0,1-2,9.86,83,83,0,0,1-6.38,10.83l-1,1.5L60.66,97.52l21.25.06v10.8l-36.65-.1Z"/><path d="M44.85,98.22,62.29,71.45l1.33-2a73.76,73.76,0,0,0,4.73-8.27,16.85,16.85,0,0,0,1.55-7.21,8.84,8.84,0,0,0-1.33-5.27,4.51,4.51,0,0,0-3.89-1.82,5.13,5.13,0,0,0-5.05,2.82,17.67,17.67,0,0,0-1.41,7.78v3.28l-13.37,0V57.15q0-10.09,4.74-16t14.82-5.84q9.3,0,14.17,4.95t4.86,14a23,23,0,0,1-2,9.86A83,83,0,0,1,75,74.94l-1,1.5L60.25,97.11l21.25.06V108l-36.65-.1Z"/><path d="M44.44,97.81,61.88,71l1.33-2a73.76,73.76,0,0,0,4.73-8.26,16.91,16.91,0,0,0,1.55-7.21,8.8,8.8,0,0,0-1.33-5.27,4.49,4.49,0,0,0-3.89-1.83,5.13,5.13,0,0,0-5,2.82A17.67,17.67,0,0,0,57.81,57v3.28l-13.37,0V56.74q0-10.1,4.74-16T64,34.93q9.3,0,14.17,5t4.87,14a23,23,0,0,1-2,9.86,83,83,0,0,1-6.38,10.83l-1,1.5L59.84,96.7l21.25.07v10.79l-36.65-.1Z"/><path d="M44,97.4,61.47,70.63l1.33-2a73.76,73.76,0,0,0,4.73-8.26,16.73,16.73,0,0,0,1.55-7.21,8.8,8.8,0,0,0-1.33-5.27A4.54,4.54,0,0,0,63.86,46a5.11,5.11,0,0,0-5,2.82,17.52,17.52,0,0,0-1.42,7.78v3.28L44,59.87V56.33q0-10.09,4.74-16t14.82-5.85q9.3,0,14.17,4.95t4.87,14a23,23,0,0,1-2,9.86,83.94,83.94,0,0,1-6.37,10.83l-1,1.5L59.43,96.29l21.25.07v10.8L44,107.05Z"/><path d="M43.62,97,61.06,70.22l1.33-2a73.76,73.76,0,0,0,4.73-8.26,16.73,16.73,0,0,0,1.55-7.21,8.89,8.89,0,0,0-1.32-5.27,4.57,4.57,0,0,0-3.9-1.83,5.11,5.11,0,0,0-5,2.82A17.55,17.55,0,0,0,57,56.22V59.5l-13.37,0V55.92q0-10.1,4.74-16t14.82-5.85q9.3,0,14.17,5t4.87,14a23.11,23.11,0,0,1-2,9.87,84.61,84.61,0,0,1-6.37,10.82l-1,1.5L59,95.89,80.27,96v10.8l-36.65-.11Z"/></g><path class="cls-3" d="M82.51,106.86l-39-.11V95.58l19-29.1a71.07,71.07,0,0,0,4.65-8.11,15.71,15.71,0,0,0,1.44-6.72,7.79,7.79,0,0,0-1.1-4.57,3.42,3.42,0,0,0-2.95-1.35h0a4,4,0,0,0-4,2.17,16.55,16.55,0,0,0-1.29,7.26v4.45l-15.72,0V54.86c0-7,1.68-12.59,5-16.7s8.58-6.29,15.74-6.28c6.49,0,11.54,1.8,15,5.3S84.46,45.65,84.46,52a24.45,24.45,0,0,1-2.15,10.36,84.08,84.08,0,0,1-6.47,11l-1,1.49L62.28,93.65l20.23.06Zm-36.65-2.45,34.3.1V96.06L57.89,96l16-24a82.72,82.72,0,0,0,6.3-10.68A22,22,0,0,0,82.1,52c0-5.67-1.52-10.09-4.52-13.13s-7.49-4.59-13.33-4.6h-.1c-6.28,0-10.92,1.81-13.82,5.4s-4.47,8.81-4.47,15.23v2.37l11,0v-2.1a18.53,18.53,0,0,1,1.54-8.31,6.28,6.28,0,0,1,6.07-3.47h0a5.71,5.71,0,0,1,4.84,2.31,10,10,0,0,1,1.55,6,18.09,18.09,0,0,1-1.66,7.71,74.5,74.5,0,0,1-4.81,8.4L45.86,96.28Z"/><path class="cls-3" d="M83.1,106.27l-39-.11V95l19-29.1a72.63,72.63,0,0,0,4.65-8.11,15.7,15.7,0,0,0,1.44-6.71,7.81,7.81,0,0,0-1.1-4.58,3.42,3.42,0,0,0-3-1.35h0a4,4,0,0,0-4,2.17,16.55,16.55,0,0,0-1.29,7.26V59L44.1,59V54.27c0-7,1.68-12.59,5-16.7s8.62-6.28,15.64-6.28h.1c6.49,0,11.54,1.8,15,5.3S85,45.06,85,51.37A24.45,24.45,0,0,1,82.9,61.73a85.93,85.93,0,0,1-6.47,11l-1,1.48L62.87,93.06l20.23.06Zm-36.65-2.45,34.3.1V95.47L58.48,95.4l16-24a82.72,82.72,0,0,0,6.3-10.68,22,22,0,0,0,1.92-9.37c0-5.67-1.52-10.09-4.52-13.13s-7.49-4.59-13.34-4.6h-.09c-6.28,0-10.92,1.81-13.82,5.4s-4.47,8.81-4.47,15.23v2.37l11,0v-2.1A18.53,18.53,0,0,1,59,46.26a6.28,6.28,0,0,1,6.07-3.47h0A5.71,5.71,0,0,1,70,45.1a10,10,0,0,1,1.55,6,18.08,18.08,0,0,1-1.66,7.7A74.5,74.5,0,0,1,65,67.17L46.45,95.69Z"/><path class="cls-3" d="M83.69,105.68l-39-.11V94.4l19-29.09a73.53,73.53,0,0,0,4.65-8.12,15.67,15.67,0,0,0,1.44-6.71,7.81,7.81,0,0,0-1.1-4.58,3.42,3.42,0,0,0-3-1.35h0a4,4,0,0,0-4,2.17A16.58,16.58,0,0,0,60.41,54v4.46l-15.72,0V53.68c0-7,1.68-12.59,5-16.7s8.63-6.28,15.65-6.28h.1c6.49,0,11.54,1.8,15,5.3s5.21,8.47,5.21,14.78a24.42,24.42,0,0,1-2.14,10.36,85.93,85.93,0,0,1-6.47,11l-1,1.48L63.46,92.48l20.23,0ZM47,103.23l34.3.1V94.88l-22.27-.07,16-24a82.72,82.72,0,0,0,6.3-10.68,22,22,0,0,0,1.92-9.37c0-5.67-1.52-10.09-4.52-13.13s-7.49-4.59-13.34-4.6h-.09c-6.28,0-10.92,1.82-13.82,5.4S47,47.26,47,53.68v2.37l11,0V54a18.53,18.53,0,0,1,1.54-8.31,6.27,6.27,0,0,1,6.07-3.47h0a5.68,5.68,0,0,1,4.83,2.31,10,10,0,0,1,1.56,6,18.08,18.08,0,0,1-1.66,7.7,74.5,74.5,0,0,1-4.81,8.4L47,95.1Z"/><path class="cls-3" d="M84.28,105.09l-39-.11V93.81l19-29.09a73.53,73.53,0,0,0,4.65-8.12,15.67,15.67,0,0,0,1.44-6.71,7.81,7.81,0,0,0-1.1-4.58,3.39,3.39,0,0,0-3-1.34h0a4,4,0,0,0-4,2.17A16.58,16.58,0,0,0,61,53.39v4.46L45.28,57.8V53.09c0-7,1.68-12.59,5-16.7s8.63-6.28,15.64-6.28H66c6.49,0,11.54,1.8,15,5.3s5.21,8.47,5.21,14.78a24.42,24.42,0,0,1-2.14,10.36,85.93,85.93,0,0,1-6.47,11l-1,1.48L64.05,91.89,84.28,92Zm-36.65-2.45,34.3.1V94.29l-22.27-.07,16-24A83.91,83.91,0,0,0,82,59.56a22.19,22.19,0,0,0,1.92-9.37c0-5.67-1.52-10.09-4.53-13.13S71.86,32.48,66,32.46h-.1c-6.27,0-10.92,1.82-13.81,5.4s-4.47,8.81-4.47,15.23v2.37l11,0v-2.1a18.53,18.53,0,0,1,1.54-8.31,6.27,6.27,0,0,1,6.07-3.47h0a5.69,5.69,0,0,1,4.84,2.31,10,10,0,0,1,1.56,6A18.08,18.08,0,0,1,71,57.59,75.39,75.39,0,0,1,66.21,66L47.63,94.51Z"/><path class="cls-3" d="M84.87,104.51l-39-.12V93.22l19-29.09A72.62,72.62,0,0,0,69.48,56a15.78,15.78,0,0,0,1.44-6.71,7.81,7.81,0,0,0-1.1-4.58,3.4,3.4,0,0,0-2.95-1.34h0a4,4,0,0,0-4,2.17,16.51,16.51,0,0,0-1.29,7.25v4.46l-15.72,0V52.5c0-7,1.68-12.59,5-16.7s8.63-6.28,15.64-6.28h.11c6.49,0,11.54,1.8,15,5.3s5.21,8.47,5.21,14.78A24.27,24.27,0,0,1,84.66,60,83.85,83.85,0,0,1,78.2,71l-1,1.48L64.64,91.3l20.23.06Zm-36.65-2.46,34.29.1V93.7l-22.26-.06,16-24A83.91,83.91,0,0,0,82.54,59a22.19,22.19,0,0,0,1.92-9.37c0-5.67-1.52-10.08-4.53-13.13s-7.49-4.58-13.33-4.6h-.1c-6.27,0-10.92,1.82-13.81,5.4s-4.47,8.81-4.47,15.23v2.37l11,0V52.8a18.67,18.67,0,0,1,1.54-8.31A6.29,6.29,0,0,1,66.85,41h0a5.66,5.66,0,0,1,4.84,2.3,10,10,0,0,1,1.56,6A18,18,0,0,1,71.61,57a74.51,74.51,0,0,1-4.81,8.41L48.22,93.92Z"/><path class="cls-3" d="M85.45,103.92l-39-.12V92.64l19-29.1a74.25,74.25,0,0,0,4.65-8.12,15.78,15.78,0,0,0,1.44-6.71,7.81,7.81,0,0,0-1.1-4.58,3.4,3.4,0,0,0-3-1.34h0a4,4,0,0,0-4,2.17,16.54,16.54,0,0,0-1.3,7.26v4.45l-15.71-.05V51.91c0-7,1.68-12.59,5-16.7s8.62-6.28,15.64-6.28h.11c6.49,0,11.53,1.8,15,5.3S87.4,42.7,87.4,49a24.27,24.27,0,0,1-2.15,10.36,85,85,0,0,1-6.46,11l-1,1.48L65.23,90.71l20.22.06Zm-36.64-2.46,34.29.1V93.11l-22.26-.06,16-24a81.81,81.81,0,0,0,6.29-10.68A22,22,0,0,0,85.05,49c0-5.67-1.52-10.08-4.53-13.13S73,31.3,67.19,31.28h-.1c-6.27,0-10.92,1.82-13.81,5.41s-4.47,8.8-4.47,15.22v2.37l11,0V52.22a18.68,18.68,0,0,1,1.54-8.32,6.29,6.29,0,0,1,6.08-3.46h0a5.64,5.64,0,0,1,4.84,2.31,10,10,0,0,1,1.56,6,18.13,18.13,0,0,1-1.66,7.71,77,77,0,0,1-4.81,8.4L48.81,93.33Z"/><path class="cls-3" d="M86,103.33l-39-.12V92.05L66,63a73,73,0,0,0,4.66-8.12,15.78,15.78,0,0,0,1.44-6.71A7.77,7.77,0,0,0,71,43.54a3.37,3.37,0,0,0-2.94-1.34h0a4,4,0,0,0-4,2.17,16.7,16.7,0,0,0-1.29,7.26v4.45L47.05,56V51.32c0-7,1.68-12.59,5-16.7s8.62-6.28,15.64-6.28h.1c6.5,0,11.54,1.8,15,5.3S88,42.12,88,48.42a24.27,24.27,0,0,1-2.15,10.36,85,85,0,0,1-6.46,11l-1,1.48L65.81,90.12,86,90.18ZM49.4,100.87l34.29.1V92.52l-22.26-.06,16-24a83.66,83.66,0,0,0,6.29-10.69,22,22,0,0,0,1.93-9.37c0-5.67-1.52-10.08-4.53-13.13s-7.49-4.58-13.33-4.6h-.1c-6.27,0-10.92,1.82-13.81,5.41S49.4,44.9,49.4,51.32v2.37l11,0V51.63A18.68,18.68,0,0,1,62,43.31,6.28,6.28,0,0,1,68,39.85h0a5.64,5.64,0,0,1,4.84,2.31,10,10,0,0,1,1.56,6,18.09,18.09,0,0,1-1.66,7.71A77.77,77.77,0,0,1,68,64.23L49.4,92.74Z"/><path class="cls-3" d="M86.63,102.74l-39-.11V91.46l19-29.1a73,73,0,0,0,4.66-8.12,15.78,15.78,0,0,0,1.44-6.71A7.77,7.77,0,0,0,71.58,43a3.37,3.37,0,0,0-2.94-1.34h0a4,4,0,0,0-4,2.17A16.7,16.7,0,0,0,63.35,51v4.45l-15.71,0V50.73c0-7,1.68-12.59,5-16.7s8.62-6.28,15.64-6.28h.1c6.5,0,11.54,1.8,15,5.3s5.21,8.48,5.21,14.79a24.23,24.23,0,0,1-2.15,10.35,84.33,84.33,0,0,1-6.46,11l-1,1.48L66.4,89.53l20.23.06ZM50,100.28l34.29.1V91.93L62,91.87l16-24A83.66,83.66,0,0,0,84.3,57.2a22,22,0,0,0,1.93-9.36c0-5.67-1.53-10.09-4.53-13.14s-7.49-4.58-13.33-4.6h-.1c-6.27,0-10.92,1.82-13.81,5.41S50,44.31,50,50.73V53.1l11,0V51a18.61,18.61,0,0,1,1.54-8.31,6.26,6.26,0,0,1,6.07-3.47h0a5.66,5.66,0,0,1,4.84,2.31,10,10,0,0,1,1.56,6,18,18,0,0,1-1.67,7.71,74.5,74.5,0,0,1-4.81,8.4L50,92.15Z"/><path class="cls-3" d="M87.22,102.15l-39-.11V90.87l19-29.1a71.06,71.06,0,0,0,4.65-8.12,15.63,15.63,0,0,0,1.44-6.71,7.85,7.85,0,0,0-1.1-4.58,3.39,3.39,0,0,0-3-1.34h0a4,4,0,0,0-4,2.17,16.55,16.55,0,0,0-1.29,7.26V54.9l-15.72,0V50.14c0-7,1.68-12.59,5-16.7s8.62-6.28,15.64-6.28H69c6.5,0,11.54,1.8,15,5.3s5.21,8.48,5.21,14.79A24.45,24.45,0,0,1,87,57.61a85,85,0,0,1-6.46,11l-1,1.49L67,88.94,87.22,89ZM50.58,99.69l34.29.1V91.34l-22.26-.06,16-24a83.65,83.65,0,0,0,6.29-10.68,22,22,0,0,0,1.93-9.37c0-5.67-1.53-10.09-4.53-13.13S74.8,29.53,69,29.51h-.1c-6.27,0-10.92,1.82-13.81,5.41s-4.47,8.8-4.47,15.22v2.37l11,0v-2.1a18.47,18.47,0,0,1,1.54-8.31,6.26,6.26,0,0,1,6.07-3.47h0A5.68,5.68,0,0,1,74.07,41a10,10,0,0,1,1.56,6A18.1,18.1,0,0,1,74,54.65a74.5,74.5,0,0,1-4.81,8.4L50.58,91.57Z"/><path class="cls-3" d="M87.81,101.56l-39-.11V90.28l19-29.1a71.06,71.06,0,0,0,4.65-8.12,15.63,15.63,0,0,0,1.44-6.71,7.85,7.85,0,0,0-1.1-4.58,3.44,3.44,0,0,0-3-1.34h0a4,4,0,0,0-4,2.17,16.55,16.55,0,0,0-1.29,7.26v4.45l-15.72,0V49.56c0-7,1.68-12.6,5-16.7s8.62-6.29,15.64-6.29h.1c6.5,0,11.54,1.81,15,5.31s5.21,8.47,5.21,14.78A24.45,24.45,0,0,1,87.61,57a85,85,0,0,1-6.46,11l-1,1.49L67.58,88.35l20.23.06ZM51.16,99.1l34.3.1V90.75L63.2,90.69l16-24A83.65,83.65,0,0,0,85.48,56a22,22,0,0,0,1.93-9.37c0-5.67-1.53-10.09-4.53-13.13s-7.49-4.59-13.33-4.61h-.1c-6.27,0-10.92,1.82-13.81,5.41s-4.48,8.8-4.48,15.23v2.37l11,0v-2.1a18.5,18.5,0,0,1,1.54-8.31,6.28,6.28,0,0,1,6.07-3.47h0a5.68,5.68,0,0,1,4.84,2.31,10,10,0,0,1,1.55,6,18.09,18.09,0,0,1-1.66,7.71,74.5,74.5,0,0,1-4.81,8.4L51.16,91Z"/><path class="cls-3" d="M88.4,101l-39-.11V89.69l19-29.1A71.07,71.07,0,0,0,73,52.48a15.71,15.71,0,0,0,1.44-6.72,7.79,7.79,0,0,0-1.1-4.57,3.42,3.42,0,0,0-2.95-1.35h0a4,4,0,0,0-4,2.17,16.55,16.55,0,0,0-1.29,7.26v4.45l-15.72,0V49c0-7,1.68-12.59,5-16.7S63.06,25.9,70.14,26c6.49,0,11.54,1.81,15,5.31s5.21,8.47,5.21,14.78A24.45,24.45,0,0,1,88.2,56.43a85,85,0,0,1-6.46,11l-1,1.49L68.17,87.76l20.23.06ZM51.75,98.52l34.3.09V90.17L63.79,90.1l16-24a83.65,83.65,0,0,0,6.29-10.68A22,22,0,0,0,88,46.07C88,40.4,86.47,36,83.47,32.94S76,28.35,70.14,28.34H70c-6.28,0-10.92,1.82-13.81,5.41S51.75,42.54,51.75,49v2.37l11,0v-2.1A18.53,18.53,0,0,1,64.31,41a6.28,6.28,0,0,1,6.07-3.47h0a5.68,5.68,0,0,1,4.84,2.31,10,10,0,0,1,1.55,6,18.09,18.09,0,0,1-1.66,7.71,74.5,74.5,0,0,1-4.81,8.4L51.75,90.39Z"/><path class="cls-4" d="M50.58,90,68,63.27l1.33-2A74.08,74.08,0,0,0,74.08,53a16.85,16.85,0,0,0,1.55-7.21,8.91,8.91,0,0,0-1.33-5.27,4.54,4.54,0,0,0-3.89-1.82,5.12,5.12,0,0,0-5,2.82,17.52,17.52,0,0,0-1.42,7.78v3.28l-13.36,0V49q0-10.09,4.73-16t14.83-5.84q9.3,0,14.16,4.95t4.87,14a23,23,0,0,1-2,9.86,82.79,82.79,0,0,1-6.37,10.83l-1,1.5L66,88.93,87.22,89v10.8l-36.64-.1Z"/></g></g></svg>