<svg xmlns="http://www.w3.org/2000/svg" viewBox="0 0 138 145"><defs><style>.cls-1{isolation:isolate;}.cls-2{opacity:0.2;mix-blend-mode:multiply;}.cls-3{fill:#652b81;}.cls-4{fill:#fff;}</style></defs><g class="cls-1"><g id="Layer_1" data-name="Layer 1"><g class="cls-2"><path d="M60.45,114q-4.52-5.69-4.51-16V95.44l13.63,0v2.39c.06,3.67.5,6.29,1.33,7.89s2.33,2.39,4.51,2.4,3.66-.8,4.43-2.42S81,101.47,81,97.81q0-5.76-1.73-8.55T73,86.37a14.66,14.66,0,0,0-2.39-.1v-10h2.13c3.12,0,5.28-.81,6.46-2.45S81,69.45,81,65.68q0-4.61-1.28-6.82t-4.56-2.23c-2.13,0-3.57.79-4.34,2.38a17.66,17.66,0,0,0-1.24,7.08v3.18l-13.63,0V65.34q0-9.37,5.05-14.5t14.16-5.1q9.19,0,14.25,5t5,14.27a19.94,19.94,0,0,1-2.52,10.35,10.73,10.73,0,0,1-6.51,5.29q9,3.39,9,16.93,0,10.36-4.6,16.23t-14.6,5.85Q65,119.63,60.45,114Z"/><path d="M60.05,113.54q-4.53-5.69-4.52-16V95l13.63,0v2.39c.06,3.67.5,6.29,1.33,7.89s2.33,2.39,4.51,2.4,3.66-.8,4.43-2.42,1.15-4.26,1.15-7.92c0-3.84-.57-6.69-1.73-8.55S75.62,86,72.61,86a14.55,14.55,0,0,0-2.39-.1v-10h2.13c3.12,0,5.28-.81,6.46-2.46s1.77-4.36,1.77-8.14q0-4.6-1.28-6.82t-4.56-2.23c-2.13,0-3.57.79-4.34,2.38a17.66,17.66,0,0,0-1.24,7.08v3.18l-13.63,0v-3.9q0-9.38,5-14.5t14.16-5.09q9.2,0,14.25,5T94,64.6A19.94,19.94,0,0,1,91.51,75,10.74,10.74,0,0,1,85,80.24q9,3.39,9,16.93,0,10.36-4.6,16.23t-14.6,5.85Q64.56,119.22,60.05,113.54Z"/><path d="M59.64,113.13q-4.52-5.67-4.52-16V94.62l13.63,0v2.39c.06,3.66.5,6.28,1.33,7.88s2.33,2.39,4.52,2.4,3.65-.8,4.42-2.42,1.15-4.26,1.15-7.92c0-3.84-.57-6.68-1.73-8.55s-3.23-2.82-6.24-2.89a14.55,14.55,0,0,0-2.39-.1v-10h2.13q4.69,0,6.46-2.46t1.77-8.14q0-4.61-1.28-6.82t-4.56-2.23c-2.13,0-3.57.79-4.34,2.38a17.83,17.83,0,0,0-1.24,7.08v3.19l-13.63,0v-3.9q0-9.37,5.05-14.5t14.16-5.09q9.21,0,14.25,5t5,14.27A19.85,19.85,0,0,1,91.1,74.54a10.74,10.74,0,0,1-6.5,5.29q9,3.39,9,16.93,0,10.36-4.61,16.23t-14.6,5.85Q64.14,118.81,59.64,113.13Z"/><path d="M59.23,112.72q-4.51-5.67-4.52-16V94.21l13.63,0v2.39c.06,3.66.51,6.28,1.33,7.88s2.33,2.4,4.52,2.4,3.66-.8,4.42-2.42,1.15-4.26,1.15-7.92q0-5.74-1.72-8.55c-1.15-1.86-3.24-2.82-6.24-2.89a14.76,14.76,0,0,0-2.39-.1V75h2.12q4.69,0,6.46-2.46t1.77-8.14q0-4.61-1.28-6.82T73.92,55.4q-3.18,0-4.34,2.38a17.83,17.83,0,0,0-1.24,7.08v3.19L54.71,68v-3.9q0-9.37,5-14.5t14.16-5.09q9.21,0,14.25,5t5,14.26a19.85,19.85,0,0,1-2.53,10.35,10.71,10.71,0,0,1-6.5,5.29q9,3.39,9,16.94,0,10.35-4.61,16.23T74,118.43Q63.73,118.4,59.23,112.72Z"/><path d="M58.82,112.31q-4.51-5.67-4.52-16V93.8l13.63,0v2.39c.06,3.66.51,6.28,1.33,7.88s2.33,2.4,4.52,2.4,3.66-.8,4.42-2.42,1.15-4.26,1.15-7.92q0-5.74-1.72-8.54c-1.15-1.87-3.23-2.83-6.24-2.9A14.17,14.17,0,0,0,69,84.64v-10h2.12q4.69,0,6.46-2.46T79.35,64c0-3.07-.42-5.34-1.28-6.82S75.69,55,73.51,55s-3.57.78-4.34,2.37a17.83,17.83,0,0,0-1.24,7.08v3.19l-13.63,0V63.7q0-9.37,5.05-14.5t14.16-5.09q9.21,0,14.25,5t5,14.26a19.85,19.85,0,0,1-2.53,10.35A10.71,10.71,0,0,1,83.78,79q9,3.39,9,16.94,0,10.35-4.6,16.23T73.6,118Q63.33,118,58.82,112.31Z"/><path d="M58.41,111.9q-4.52-5.67-4.52-16V93.39l13.64,0v2.39c0,3.66.5,6.29,1.32,7.88s2.33,2.4,4.52,2.4,3.66-.8,4.42-2.42,1.15-4.26,1.15-7.92q0-5.74-1.72-8.54C76.07,85.35,74,84.39,71,84.32a14.17,14.17,0,0,0-2.39-.09v-10h2.12c3.13,0,5.28-.81,6.47-2.46s1.76-4.36,1.76-8.14c0-3.07-.42-5.34-1.28-6.82s-2.38-2.22-4.56-2.22-3.57.78-4.34,2.37A17.68,17.68,0,0,0,67.53,64v3.19l-13.64,0v-3.9q0-9.37,5-14.5T73.1,43.7q9.21,0,14.25,5T92.4,63a19.94,19.94,0,0,1-2.52,10.35,10.73,10.73,0,0,1-6.51,5.29q9,3.39,9,16.94,0,10.35-4.6,16.23t-14.61,5.84Q62.92,117.58,58.41,111.9Z"/><path d="M58,111.49q-4.52-5.67-4.51-16V93l13.63,0v2.39c0,3.66.5,6.29,1.33,7.88s2.32,2.4,4.51,2.4,3.66-.8,4.42-2.42,1.16-4.26,1.16-7.92q0-5.75-1.73-8.54t-6.24-2.9a14.17,14.17,0,0,0-2.39-.09v-10H70.3c3.13,0,5.28-.81,6.47-2.46s1.77-4.36,1.77-8.14q0-4.61-1.29-6.82c-.85-1.47-2.38-2.22-4.56-2.22s-3.57.78-4.33,2.38a17.46,17.46,0,0,0-1.24,7.07v3.19l-13.63,0V62.89q0-9.39,5-14.51t14.16-5.09q9.21,0,14.25,5t5,14.26A19.92,19.92,0,0,1,89.47,72.9,10.73,10.73,0,0,1,83,78.19q9,3.41,9,16.94,0,10.35-4.6,16.23T72.78,117.2Q62.52,117.17,58,111.49Z"/><path d="M57.59,111.09q-4.52-5.69-4.51-16V92.57l13.63,0V95q.09,5.49,1.33,7.88c.82,1.6,2.33,2.4,4.51,2.41s3.66-.8,4.43-2.43S78.13,98.6,78.13,95q0-5.76-1.73-8.55t-6.24-2.9a15.57,15.57,0,0,0-2.39-.09v-10h2.12c3.13,0,5.28-.81,6.47-2.46s1.77-4.36,1.77-8.14c0-3.06-.43-5.34-1.29-6.81s-2.37-2.23-4.56-2.23-3.57.78-4.33,2.38a17.64,17.64,0,0,0-1.24,7.07v3.19l-13.63,0V62.48q0-9.39,5-14.51t14.16-5.09q9.21,0,14.25,5t5,14.26a19.89,19.89,0,0,1-2.52,10.35,10.75,10.75,0,0,1-6.51,5.3q9,3.39,9,16.93,0,10.35-4.6,16.23t-14.61,5.84Q62.11,116.76,57.59,111.09Z"/><path d="M57.18,110.68q-4.51-5.69-4.51-16V92.16l13.63,0v2.39q.09,5.49,1.33,7.88c.82,1.6,2.33,2.4,4.51,2.41s3.66-.8,4.43-2.42,1.15-4.27,1.15-7.92q0-5.76-1.73-8.55t-6.24-2.9A15.57,15.57,0,0,0,67.36,83V73h2.12c3.13,0,5.28-.81,6.47-2.46s1.77-4.36,1.77-8.14c0-3.06-.43-5.34-1.29-6.81s-2.37-2.23-4.56-2.23-3.57.79-4.33,2.38a17.64,17.64,0,0,0-1.24,7.07V66L52.67,66V62.07q0-9.39,5-14.5t14.16-5.1q9.21,0,14.26,5t5,14.27a19.88,19.88,0,0,1-2.52,10.34,10.75,10.75,0,0,1-6.51,5.3q9,3.39,9,16.93,0,10.35-4.6,16.23T72,116.38Q61.7,116.35,57.18,110.68Z"/><path d="M56.77,110.27q-4.52-5.68-4.51-16V91.75l13.63,0v2.39q.09,5.49,1.33,7.88c.82,1.6,2.33,2.4,4.51,2.41s3.66-.8,4.43-2.42,1.15-4.26,1.15-7.92q0-5.76-1.73-8.55c-1.15-1.86-3.23-2.83-6.24-2.89a13.41,13.41,0,0,0-2.39-.1v-10h2.13c3.12,0,5.28-.81,6.46-2.46s1.77-4.36,1.77-8.13c0-3.07-.43-5.35-1.29-6.82S73.65,53,71.47,53s-3.58.79-4.34,2.38a17.64,17.64,0,0,0-1.24,7.07v3.19l-13.63,0V61.66q0-9.39,5-14.5t14.17-5.1q9.19,0,14.25,5t5,14.27a19.94,19.94,0,0,1-2.52,10.35A10.76,10.76,0,0,1,81.73,77q9,3.39,9,16.93,0,10.36-4.6,16.23T71.56,116Q61.28,115.94,56.77,110.27Z"/><path d="M56.36,109.86q-4.52-5.69-4.51-16V91.34l13.63,0v2.39q.09,5.49,1.33,7.88c.82,1.6,2.33,2.4,4.51,2.41s3.66-.8,4.43-2.42,1.15-4.26,1.15-7.92q0-5.76-1.73-8.55c-1.15-1.86-3.23-2.83-6.24-2.89a14.66,14.66,0,0,0-2.39-.1v-10h2.13c3.12,0,5.28-.81,6.46-2.46s1.77-4.36,1.77-8.13c0-3.07-.43-5.35-1.28-6.82s-2.38-2.22-4.56-2.23-3.57.79-4.34,2.38A17.66,17.66,0,0,0,65.48,62v3.18l-13.63,0V61.25q0-9.37,5-14.5t14.16-5.1q9.19,0,14.25,5t5,14.27a19.94,19.94,0,0,1-2.52,10.35,10.73,10.73,0,0,1-6.51,5.29q9,3.39,9,16.93,0,10.37-4.6,16.23t-14.6,5.85Q60.87,115.54,56.36,109.86Z"/><path d="M56,109.45q-4.53-5.69-4.52-16V90.94l13.63,0v2.39c.06,3.67.5,6.29,1.33,7.89s2.33,2.39,4.51,2.4,3.66-.8,4.43-2.42,1.15-4.26,1.15-7.92q0-5.76-1.73-8.55t-6.24-2.89a14.66,14.66,0,0,0-2.39-.1v-10h2.13c3.12,0,5.28-.81,6.46-2.46s1.77-4.37,1.77-8.14q0-4.6-1.28-6.82t-4.56-2.23c-2.13,0-3.57.79-4.34,2.38a17.66,17.66,0,0,0-1.24,7.08v3.18l-13.63,0v-3.9q0-9.37,5.05-14.5t14.16-5.09q9.19,0,14.25,5t5,14.27a19.94,19.94,0,0,1-2.52,10.35,10.74,10.74,0,0,1-6.5,5.29q9,3.39,9,16.93,0,10.36-4.6,16.23t-14.6,5.85Q60.47,115.13,56,109.45Z"/><path d="M55.55,109Q51,103.35,51,93V90.53l13.63,0V93c.06,3.66.5,6.28,1.33,7.88s2.33,2.39,4.52,2.4,3.65-.8,4.42-2.42,1.15-4.26,1.15-7.92c0-3.84-.57-6.68-1.73-8.55s-3.23-2.82-6.24-2.89a14.55,14.55,0,0,0-2.39-.1v-10h2.13q4.7,0,6.46-2.46t1.77-8.14q0-4.6-1.28-6.82t-4.56-2.23c-2.13,0-3.57.79-4.34,2.38a17.83,17.83,0,0,0-1.24,7.08v3.18L51,64.33v-3.9q0-9.37,5-14.5t14.16-5.09q9.2,0,14.25,5T89.54,60.1A19.94,19.94,0,0,1,87,70.45a10.74,10.74,0,0,1-6.5,5.29q9,3.39,9,16.93,0,10.36-4.61,16.23t-14.6,5.85Q60.05,114.72,55.55,109Z"/><path d="M55.14,108.63q-4.52-5.67-4.52-16V90.12l13.63,0v2.39c.06,3.66.5,6.28,1.33,7.88s2.33,2.39,4.52,2.4,3.65-.8,4.42-2.42,1.15-4.26,1.15-7.92q0-5.74-1.72-8.55c-1.15-1.86-3.24-2.82-6.24-2.89a14.84,14.84,0,0,0-2.4-.1V71h2.13q4.69,0,6.46-2.46t1.77-8.14q0-4.61-1.28-6.82t-4.56-2.23q-3.18,0-4.34,2.38a17.83,17.83,0,0,0-1.24,7.08V64l-13.63,0V60q0-9.37,5.05-14.5t14.16-5.09q9.21,0,14.25,5t5,14.26A19.85,19.85,0,0,1,86.6,70a10.74,10.74,0,0,1-6.5,5.29q9,3.39,9,16.94,0,10.35-4.61,16.22t-14.6,5.85Q59.65,114.31,55.14,108.63Z"/><path d="M54.73,108.22q-4.51-5.67-4.52-16V89.71l13.63,0v2.39c.06,3.66.51,6.28,1.33,7.88s2.33,2.4,4.52,2.4,3.66-.8,4.42-2.42,1.15-4.26,1.15-7.92q0-5.74-1.72-8.54c-1.15-1.87-3.23-2.83-6.24-2.9a14.76,14.76,0,0,0-2.39-.1v-10H67q4.69,0,6.46-2.46T75.26,60c0-3.07-.42-5.34-1.28-6.82s-2.38-2.22-4.56-2.22-3.57.78-4.34,2.37a17.83,17.83,0,0,0-1.24,7.08v3.19l-13.63,0v-3.9q0-9.37,5-14.5T69.42,40q9.21,0,14.25,5t5,14.26a19.85,19.85,0,0,1-2.53,10.35,10.71,10.71,0,0,1-6.5,5.29q9,3.39,9,16.94,0,10.35-4.6,16.23t-14.61,5.84Q59.23,113.9,54.73,108.22Z"/><path d="M54.32,107.81q-4.51-5.67-4.52-16V89.3l13.63,0v2.39c.06,3.66.51,6.29,1.33,7.88s2.33,2.4,4.52,2.4,3.66-.8,4.42-2.42,1.15-4.26,1.15-7.92q0-5.74-1.72-8.54c-1.15-1.87-3.23-2.83-6.24-2.9a14.17,14.17,0,0,0-2.39-.09v-10h2.12q4.69,0,6.46-2.46t1.77-8.14c0-3.07-.42-5.34-1.28-6.82S71.19,50.5,69,50.5s-3.57.78-4.34,2.37A17.83,17.83,0,0,0,63.43,60v3.19l-13.63,0V59.2q0-9.37,5.05-14.5T69,39.61q9.21,0,14.25,5t5,14.26a19.94,19.94,0,0,1-2.52,10.35,10.73,10.73,0,0,1-6.51,5.29q9,3.39,9,16.94,0,10.35-4.6,16.23T69.1,113.52Q58.83,113.49,54.32,107.81Z"/><path d="M53.91,107.4q-4.52-5.67-4.51-16V88.89l13.63,0v2.39c0,3.66.5,6.29,1.32,7.88s2.33,2.4,4.52,2.4,3.66-.8,4.42-2.42,1.16-4.26,1.16-7.92q0-5.74-1.73-8.54c-1.15-1.87-3.23-2.83-6.24-2.9a14.17,14.17,0,0,0-2.39-.09v-10h2.12c3.13,0,5.28-.81,6.47-2.46s1.77-4.36,1.77-8.14q0-4.6-1.29-6.82c-.85-1.47-2.38-2.22-4.56-2.22s-3.57.78-4.34,2.37A17.72,17.72,0,0,0,63,59.54v3.19l-13.63,0V58.8q0-9.39,5-14.51T68.6,39.2q9.21,0,14.25,5T87.9,58.46a19.92,19.92,0,0,1-2.52,10.35,10.73,10.73,0,0,1-6.51,5.29q9,3.41,9,16.94,0,10.35-4.6,16.23t-14.61,5.84Q58.43,113.08,53.91,107.4Z"/><path d="M53.5,107Q49,101.32,49,91V88.48l13.63,0v2.39q.09,5.49,1.33,7.88c.82,1.6,2.33,2.4,4.51,2.41s3.66-.81,4.42-2.43S74,94.51,74,90.85q0-5.75-1.73-8.54t-6.24-2.9a14.17,14.17,0,0,0-2.39-.09v-10H65.8c3.13,0,5.28-.81,6.47-2.46S74,62.5,74,58.72q0-4.61-1.29-6.81c-.85-1.48-2.37-2.23-4.56-2.23s-3.57.78-4.33,2.38a17.64,17.64,0,0,0-1.24,7.07v3.19L49,62.28V58.39Q49,49,54,43.88t14.16-5.09q9.21,0,14.25,5t5,14.26A19.89,19.89,0,0,1,85,68.4a10.75,10.75,0,0,1-6.51,5.3q9,3.39,9,16.93,0,10.35-4.6,16.23T68.28,112.7Q58,112.67,53.5,107Z"/><path d="M53.09,106.59q-4.52-5.69-4.51-16V88.07l13.63,0V90.5q.09,5.49,1.33,7.88c.82,1.6,2.33,2.4,4.51,2.41s3.66-.8,4.43-2.42,1.15-4.27,1.15-7.92q0-5.76-1.73-8.55T65.66,79a15.57,15.57,0,0,0-2.39-.09v-10h2.12c3.13,0,5.28-.81,6.47-2.46s1.77-4.36,1.77-8.14c0-3.06-.43-5.34-1.29-6.81S70,49.27,67.78,49.27s-3.57.79-4.33,2.38a17.64,17.64,0,0,0-1.24,7.07v3.19l-13.63,0V58q0-9.39,5-14.51t14.16-5.09q9.21,0,14.26,5t5,14.27A19.88,19.88,0,0,1,84.56,68a10.75,10.75,0,0,1-6.51,5.3q9,3.39,9,16.93,0,10.35-4.6,16.23t-14.61,5.84Q57.61,112.26,53.09,106.59Z"/><path d="M52.68,106.18q-4.51-5.69-4.51-16V87.66l13.63,0v2.39q.09,5.49,1.33,7.88c.82,1.6,2.33,2.4,4.51,2.41s3.66-.8,4.43-2.42S73.22,93.7,73.22,90q0-5.76-1.73-8.55t-6.24-2.9a15.57,15.57,0,0,0-2.39-.09v-10H65c3.13,0,5.28-.81,6.47-2.46s1.77-4.36,1.77-8.14c0-3.06-.43-5.34-1.29-6.81s-2.37-2.22-4.55-2.23-3.58.79-4.34,2.38a17.64,17.64,0,0,0-1.24,7.07V61.5l-13.63,0V57.57q0-9.39,5-14.5T67.38,38q9.2,0,14.25,5t5,14.27a19.88,19.88,0,0,1-2.52,10.34,10.75,10.75,0,0,1-6.51,5.3q9,3.39,9,16.93,0,10.35-4.6,16.23t-14.6,5.84Q57.19,111.85,52.68,106.18Z"/><path d="M52.27,105.77q-4.52-5.68-4.51-16V87.25l13.63,0v2.39q.09,5.49,1.33,7.88c.82,1.6,2.33,2.4,4.51,2.41s3.66-.8,4.43-2.42,1.15-4.26,1.15-7.92q0-5.76-1.73-8.55c-1.15-1.86-3.23-2.83-6.24-2.89a13.41,13.41,0,0,0-2.39-.1v-10h2.13c3.12,0,5.28-.81,6.46-2.46s1.77-4.36,1.77-8.13c0-3.07-.43-5.35-1.28-6.82S69.15,48.46,67,48.45s-3.58.79-4.34,2.38a17.66,17.66,0,0,0-1.24,7.08v3.18l-13.63,0V57.16q0-9.37,5-14.5T67,37.56q9.19,0,14.25,5t5,14.27a19.94,19.94,0,0,1-2.52,10.35,10.73,10.73,0,0,1-6.51,5.29q9,3.39,9,16.93,0,10.36-4.6,16.23t-14.6,5.84Q56.79,111.44,52.27,105.77Z"/><path d="M51.86,105.36q-4.52-5.69-4.51-16V86.85l13.63,0v2.39c.06,3.67.5,6.29,1.33,7.89s2.33,2.39,4.51,2.4,3.66-.8,4.43-2.42,1.15-4.26,1.15-7.92q0-5.76-1.73-8.55t-6.24-2.89a14.66,14.66,0,0,0-2.39-.1v-10h2.13c3.12,0,5.28-.8,6.46-2.45s1.77-4.37,1.77-8.14q0-4.61-1.28-6.82T66.56,48c-2.13,0-3.57.79-4.34,2.38A17.66,17.66,0,0,0,61,57.5v3.18l-13.63,0v-3.9q0-9.37,5-14.5t14.16-5.1q9.19,0,14.25,5t5,14.27a19.94,19.94,0,0,1-2.52,10.35,10.73,10.73,0,0,1-6.51,5.29q9,3.39,9,16.93,0,10.37-4.6,16.23t-14.6,5.85Q56.37,111,51.86,105.36Z"/><path d="M51.46,105q-4.53-5.69-4.52-16V86.44l13.63,0v2.4c.06,3.66.5,6.28,1.33,7.88s2.33,2.39,4.51,2.4,3.66-.8,4.43-2.42S72,92.47,72,88.81c0-3.84-.57-6.68-1.73-8.55S67,77.44,64,77.37a14.55,14.55,0,0,0-2.39-.1v-10h2.13c3.13,0,5.28-.81,6.46-2.46S72,60.46,72,56.68q0-4.6-1.28-6.82t-4.56-2.23c-2.13,0-3.57.79-4.34,2.38a17.66,17.66,0,0,0-1.24,7.08v3.18l-13.63,0v-3.9q0-9.37,5.05-14.5t14.16-5.09q9.19,0,14.25,5t5,14.27a19.94,19.94,0,0,1-2.52,10.35,10.74,10.74,0,0,1-6.5,5.29q9,3.39,9,16.93,0,10.36-4.6,16.23t-14.6,5.85Q56,110.63,51.46,105Z"/><path d="M51.05,104.54q-4.52-5.67-4.52-16V86l13.63,0v2.39c.06,3.66.5,6.28,1.33,7.88s2.33,2.39,4.52,2.4,3.65-.8,4.42-2.42,1.15-4.26,1.15-7.92c0-3.84-.57-6.68-1.73-8.55S66.62,77,63.62,77a14.84,14.84,0,0,0-2.4-.1v-10h2.13q4.7,0,6.46-2.46t1.77-8.14q0-4.6-1.28-6.82t-4.56-2.23q-3.18,0-4.34,2.38a17.83,17.83,0,0,0-1.24,7.08v3.19l-13.63,0v-3.9q0-9.37,5-14.5t14.16-5.09q9.21,0,14.25,5T85,55.6A19.85,19.85,0,0,1,82.51,66,10.74,10.74,0,0,1,76,71.24q9,3.39,9,16.93,0,10.36-4.61,16.23t-14.6,5.85Q55.55,110.22,51.05,104.54Z"/><path d="M50.64,104.13q-4.52-5.67-4.52-16V85.62l13.63,0v2.39c.06,3.66.51,6.28,1.33,7.88s2.33,2.4,4.52,2.4,3.66-.8,4.42-2.42,1.15-4.26,1.15-7.92q0-5.74-1.72-8.55c-1.15-1.86-3.24-2.82-6.24-2.89a14.76,14.76,0,0,0-2.39-.1v-10h2.12q4.69,0,6.46-2.46t1.77-8.14c0-3.07-.42-5.34-1.28-6.82s-2.38-2.22-4.56-2.23-3.57.79-4.34,2.38a17.83,17.83,0,0,0-1.24,7.08v3.19l-13.63,0v-3.9q0-9.37,5.05-14.5t14.16-5.09q9.21,0,14.25,5t5,14.26A19.85,19.85,0,0,1,82.1,65.54a10.71,10.71,0,0,1-6.5,5.29q9,3.39,9,16.94Q84.63,98.12,80,104t-14.6,5.84Q55.15,109.81,50.64,104.13Z"/><path d="M50.23,103.72q-4.51-5.67-4.52-16V85.21l13.63,0v2.39c.06,3.66.51,6.28,1.33,7.88s2.33,2.4,4.52,2.4,3.66-.8,4.42-2.42,1.15-4.26,1.15-7.92q0-5.74-1.72-8.54c-1.15-1.87-3.23-2.83-6.24-2.9a14.17,14.17,0,0,0-2.39-.09V66h2.12q4.69,0,6.46-2.46t1.77-8.14c0-3.07-.42-5.34-1.28-6.82s-2.38-2.22-4.56-2.22-3.57.78-4.34,2.37a17.83,17.83,0,0,0-1.24,7.08v3.19L45.71,59v-3.9q0-9.37,5-14.5t14.16-5.09q9.21,0,14.25,5t5,14.26a19.85,19.85,0,0,1-2.53,10.35,10.71,10.71,0,0,1-6.5,5.29q9,3.39,9,16.94,0,10.35-4.6,16.23T65,109.43Q54.73,109.4,50.23,103.72Z"/><path d="M49.82,103.31q-4.51-5.67-4.52-16V84.8l13.64,0v2.39c.05,3.66.5,6.29,1.32,7.88s2.33,2.4,4.52,2.4,3.66-.8,4.42-2.42,1.16-4.26,1.16-7.92q0-5.74-1.73-8.54c-1.15-1.87-3.23-2.83-6.24-2.9A14.17,14.17,0,0,0,60,75.64v-10h2.12c3.13,0,5.28-.81,6.47-2.46s1.77-4.36,1.77-8.14q0-4.6-1.29-6.82C68.22,46.75,66.69,46,64.51,46s-3.57.78-4.34,2.37a17.68,17.68,0,0,0-1.23,7.08v3.19l-13.64,0V54.7q0-9.37,5.05-14.5t14.16-5.09q9.21,0,14.25,5t5,14.26a19.92,19.92,0,0,1-2.52,10.35A10.73,10.73,0,0,1,74.78,70q9,3.4,9,16.94,0,10.35-4.6,16.23T64.6,109Q54.33,109,49.82,103.31Z"/><path d="M49.41,102.9q-4.52-5.67-4.51-16V84.39l13.63,0v2.39c0,3.66.5,6.29,1.33,7.88s2.32,2.4,4.51,2.4,3.66-.8,4.42-2.42S70,90.42,70,86.76q0-5.74-1.73-8.54T62,75.32a14.17,14.17,0,0,0-2.39-.09v-10h2.12c3.13,0,5.28-.81,6.47-2.46S70,58.41,70,54.63q0-4.6-1.29-6.82c-.85-1.47-2.38-2.22-4.56-2.22s-3.57.78-4.33,2.38A17.46,17.46,0,0,0,58.53,55v3.19l-13.63,0V54.3q0-9.39,5-14.51T64.1,34.7q9.21,0,14.25,5T83.4,54a19.92,19.92,0,0,1-2.52,10.35,10.73,10.73,0,0,1-6.51,5.29q9,3.41,9,16.94,0,10.35-4.6,16.23t-14.61,5.84Q53.93,108.58,49.41,102.9Z"/><path d="M49,102.5q-4.52-5.69-4.51-16V84l13.63,0v2.39q.09,5.49,1.33,7.88c.82,1.6,2.33,2.4,4.51,2.41s3.66-.8,4.43-2.43,1.15-4.26,1.15-7.91q0-5.76-1.73-8.55t-6.24-2.9a15.57,15.57,0,0,0-2.39-.09v-10H61.3c3.13,0,5.28-.81,6.47-2.46s1.77-4.36,1.77-8.14c0-3.06-.43-5.34-1.29-6.81s-2.37-2.23-4.56-2.23-3.57.78-4.33,2.38a17.64,17.64,0,0,0-1.24,7.07v3.19l-13.63,0V53.89q0-9.39,5-14.51t14.16-5.09q9.21,0,14.25,5t5,14.27A19.88,19.88,0,0,1,80.47,63.9,10.75,10.75,0,0,1,74,69.2q9,3.39,9,16.93,0,10.35-4.6,16.23T63.78,108.2Q53.52,108.17,49,102.5Z"/><path d="M48.59,102.09q-4.52-5.69-4.51-16V83.57l13.63,0V86q.09,5.49,1.33,7.88c.82,1.6,2.33,2.4,4.51,2.41s3.66-.8,4.43-2.42S69.13,89.6,69.13,86q0-5.76-1.73-8.55t-6.24-2.9a15.57,15.57,0,0,0-2.39-.09v-10h2.12c3.13,0,5.28-.81,6.47-2.46s1.77-4.36,1.77-8.14c0-3.06-.43-5.34-1.29-6.81s-2.37-2.22-4.56-2.23-3.57.79-4.33,2.38a17.64,17.64,0,0,0-1.24,7.07v3.19l-13.63,0V53.48q0-9.39,5-14.5t14.16-5.1q9.21,0,14.26,5t5,14.27a19.88,19.88,0,0,1-2.52,10.34,10.75,10.75,0,0,1-6.51,5.3q9,3.39,9,16.93,0,10.35-4.6,16.23t-14.61,5.84Q53.11,107.76,48.59,102.09Z"/><path d="M48.18,101.68q-4.51-5.69-4.51-16V83.16l13.63,0v2.39q.09,5.49,1.33,7.88c.82,1.6,2.33,2.4,4.51,2.41s3.66-.8,4.43-2.42,1.15-4.26,1.15-7.92q0-5.76-1.73-8.55c-1.15-1.86-3.23-2.83-6.24-2.89a13.41,13.41,0,0,0-2.39-.1V64h2.13c3.12,0,5.28-.81,6.46-2.46s1.77-4.36,1.77-8.13c0-3.07-.43-5.35-1.28-6.82s-2.38-2.22-4.56-2.23-3.58.79-4.34,2.38a17.64,17.64,0,0,0-1.24,7.07V57L43.67,57V53.07q0-9.39,5-14.5t14.17-5.1q9.2,0,14.25,5t5,14.27a19.94,19.94,0,0,1-2.52,10.35,10.76,10.76,0,0,1-6.51,5.29q9,3.39,9,16.93,0,10.36-4.6,16.23T63,107.38Q52.69,107.35,48.18,101.68Z"/></g><path class="cls-3" d="M64.12,107.5H64c-7.19,0-12.47-2.09-15.7-6.15h0c-3.17-4-4.77-9.62-4.77-16.77V80.92l16,0v3.56c.05,3.44.45,5.91,1.19,7.34.4.76,1.18,1.76,3.48,1.77h0c2.25,0,3-1,3.34-1.75.69-1.46,1-4,1-7.42s-.52-6.26-1.55-7.92-2.66-2.28-5.27-2.34l-.49-.12a15.07,15.07,0,0,1-1.88,0H58.25V61.76H61.6c2.68,0,4.52-.67,5.46-2s1.55-3.95,1.55-7.46c0-2.84-.38-4.94-1.13-6.23-.64-1.1-1.8-1.63-3.54-1.64h0c-2.17,0-2.9,1-3.25,1.71a16.66,16.66,0,0,0-1.12,6.59v4.35l-16,0V52c0-6.55,1.81-11.71,5.38-15.33s8.57-5.44,14.9-5.44h.1c6.43,0,11.5,1.81,15.07,5.33s5.4,8.61,5.4,15.1a21.16,21.16,0,0,1-2.69,10.95,12.94,12.94,0,0,1-4.64,4.78c4.87,3,7.33,8.61,7.33,16.85,0,7.14-1.63,12.84-4.85,17S71.09,107.5,64.12,107.5ZM45.91,83.28v1.3c0,6.6,1.43,11.75,4.26,15.3h0c2.76,3.48,7.42,5.25,13.86,5.27h.09c6.21,0,10.78-1.82,13.59-5.4s4.35-8.9,4.35-15.5c0-8.57-2.7-13.75-8.27-15.83l-3.45-1.3,3.57-.94a9.53,9.53,0,0,0,5.79-4.76,18.8,18.8,0,0,0,2.36-9.75c0-5.84-1.58-10.36-4.69-13.42s-7.64-4.65-13.43-4.66h-.1c-5.68,0-10.12,1.6-13.23,4.75S45.91,46.1,45.91,52v2.72l11.28,0v-2a18.55,18.55,0,0,1,1.35-7.58c.67-1.39,2.15-3.05,5.37-3.05h0c2.62,0,4.5,1,5.58,2.82,1,1.67,1.44,4.09,1.44,7.4,0,4.07-.65,6.95-2,8.82s-3.88,3-7.37,3h-1v7.66a10.34,10.34,0,0,1,1.39.09c3.35.11,5.72,1.27,7.07,3.45S71,80.38,71,84.47c0,3.87-.42,6.63-1.27,8.43C69,94.31,67.53,96,64.23,96h0c-3.3,0-4.84-1.66-5.55-3-.92-1.77-1.4-4.52-1.46-8.4V83.31Z"/><path class="cls-3" d="M64.71,106.91h-.1c-7.19,0-12.47-2.09-15.69-6.15h0c-3.17-4-4.77-9.62-4.77-16.77V80.33l16,0v3.56c0,3.44.45,5.92,1.19,7.34.39.76,1.18,1.76,3.48,1.77h0c2.25,0,3-1,3.34-1.75.69-1.46,1-4,1-7.41s-.53-6.27-1.56-7.93S65,73.68,62.38,73.62l-.49-.12a17.83,17.83,0,0,1-1.88,0H58.84V61.17h3.35c2.68,0,4.52-.67,5.46-2s1.55-4,1.55-7.46c0-2.84-.38-4.94-1.13-6.23-.64-1.1-1.8-1.63-3.54-1.64h0c-2.18,0-2.9,1-3.25,1.72a16.62,16.62,0,0,0-1.12,6.59v4.34l-16-.05V51.42c0-6.55,1.81-11.71,5.38-15.33s8.57-5.44,14.9-5.44h.1C71,30.66,76,32.46,79.6,36S85,44.59,85,51.08a21.16,21.16,0,0,1-2.69,11,13,13,0,0,1-4.65,4.78c4.88,3,7.34,8.61,7.34,16.85,0,7.14-1.63,12.84-4.85,17S71.68,106.91,64.71,106.91ZM46.5,82.69V84c0,6.6,1.43,11.75,4.25,15.3h0c2.77,3.48,7.43,5.25,13.87,5.27h.09c6.21,0,10.78-1.82,13.59-5.4s4.35-8.9,4.35-15.5c0-8.57-2.7-13.74-8.27-15.83l-3.45-1.3,3.57-.94a9.5,9.5,0,0,0,5.79-4.76,18.8,18.8,0,0,0,2.36-9.75c0-5.84-1.58-10.36-4.7-13.42S70.32,33,64.53,33h-.1c-5.68,0-10.13,1.59-13.23,4.74s-4.7,7.77-4.7,13.68v2.72l11.28,0v-2a18.55,18.55,0,0,1,1.35-7.58c.67-1.39,2.15-3,5.37-3h0c2.62,0,4.5,1,5.57,2.82,1,1.67,1.45,4.09,1.45,7.4,0,4.07-.66,7-2,8.82s-3.83,3-7.43,3h-.94v7.66a10.34,10.34,0,0,1,1.39.09c3.35.11,5.72,1.27,7.06,3.45s1.91,5.07,1.91,9.17c0,3.86-.42,6.62-1.27,8.42-.67,1.41-2.16,3.09-5.46,3.09h0c-3.3,0-4.84-1.66-5.55-3-.93-1.77-1.4-4.52-1.46-8.4V82.72Z"/><path class="cls-3" d="M65.3,106.32h-.1c-7.19,0-12.47-2.09-15.69-6.15h0c-3.17-4-4.78-9.62-4.78-16.77V79.74l16,.05v3.56c.05,3.44.45,5.92,1.19,7.34.39.76,1.18,1.76,3.48,1.77h0c2.25,0,3-1,3.34-1.75.69-1.45,1-3.95,1-7.41s-.52-6.27-1.55-7.93S65.58,73.09,63,73l-.49-.12a15.07,15.07,0,0,1-1.88,0H59.43V60.58h3.3c2.73.13,4.56-.66,5.51-2s1.54-3.95,1.54-7.46c0-2.84-.37-4.94-1.12-6.22-.64-1.1-1.8-1.64-3.55-1.65h0c-2.18,0-2.9,1-3.25,1.72a16.62,16.62,0,0,0-1.12,6.59v4.34l-16,0V50.83c0-6.55,1.82-11.71,5.39-15.33s8.57-5.44,14.9-5.44h.1c6.43,0,11.5,1.81,15.07,5.33s5.4,8.61,5.4,15.11a21.21,21.21,0,0,1-2.69,11,13,13,0,0,1-4.65,4.77c4.87,3,7.34,8.61,7.34,16.85,0,7.14-1.63,12.84-4.85,17S72.27,106.32,65.3,106.32ZM47.09,82.1v1.3c0,6.6,1.43,11.75,4.25,15.3h0c2.76,3.47,7.43,5.24,13.87,5.26h.09c6.21,0,10.78-1.82,13.59-5.39s4.35-8.91,4.35-15.51c0-8.57-2.7-13.74-8.27-15.83l-3.45-1.3L75.09,65a9.5,9.5,0,0,0,5.79-4.76,18.76,18.76,0,0,0,2.36-9.74c0-5.85-1.58-10.36-4.7-13.43s-7.64-4.65-13.43-4.66H65c-5.68,0-10.13,1.59-13.23,4.74s-4.7,7.77-4.7,13.68v2.72l11.28,0v-2A18.58,18.58,0,0,1,59.72,44c.67-1.39,2.15-3.05,5.37-3.05h0c2.62,0,4.5,1,5.57,2.82,1,1.67,1.45,4.09,1.45,7.4,0,4.07-.66,7-2,8.83s-3.92,3-7.43,2.95h-.94V70.6a9.36,9.36,0,0,1,1.39.08c3.34.11,5.72,1.27,7.06,3.45s1.91,5.07,1.91,9.17c0,3.86-.42,6.62-1.27,8.42-.67,1.41-2.16,3.09-5.46,3.09h0c-3.3,0-4.84-1.66-5.55-3-.93-1.77-1.4-4.52-1.46-8.4V82.13Z"/><path class="cls-3" d="M65.89,105.73h-.1c-7.19,0-12.47-2.09-15.7-6.15h0c-3.16-4-4.77-9.62-4.77-16.77V79.16l16,0v3.56c0,3.44.45,5.92,1.19,7.34.39.76,1.18,1.77,3.48,1.77h0c2.25,0,3-1,3.34-1.75.68-1.45,1-4,1-7.41s-.52-6.27-1.55-7.93-2.65-2.28-5.26-2.34l-.49-.12a16.09,16.09,0,0,1-1.88,0H60V60h3.35c2.68,0,4.52-.66,5.46-2s1.54-4,1.54-7.45c0-2.85-.37-4.94-1.12-6.23-.64-1.1-1.8-1.64-3.55-1.64h0c-2.18,0-2.9,1-3.25,1.72A16.62,16.62,0,0,0,61.31,51v4.34l-16-.05V50.24c0-6.55,1.82-11.71,5.39-15.33s8.57-5.44,14.9-5.44h.1c6.43,0,11.5,1.81,15.07,5.34s5.4,8.6,5.4,15.1a21.21,21.21,0,0,1-2.69,11,12.85,12.85,0,0,1-4.65,4.77c4.87,3,7.34,8.61,7.34,16.85,0,7.14-1.63,12.84-4.85,17S72.86,105.73,65.89,105.73ZM47.67,81.51v1.3c0,6.6,1.44,11.75,4.26,15.31h0c2.76,3.47,7.43,5.24,13.87,5.26h.09c6.21,0,10.78-1.81,13.59-5.39s4.35-8.91,4.35-15.51c0-8.56-2.71-13.74-8.27-15.83l-3.45-1.3,3.57-.94a9.54,9.54,0,0,0,5.79-4.75,18.9,18.9,0,0,0,2.36-9.75c0-5.84-1.58-10.36-4.7-13.43s-7.64-4.65-13.43-4.66h-.09c-5.68,0-10.13,1.59-13.23,4.74s-4.71,7.77-4.71,13.68V53L59,53V51a18.73,18.73,0,0,1,1.36-7.58c.67-1.39,2.14-3,5.37-3h0c2.62,0,4.49,1,5.57,2.82,1,1.67,1.44,4.1,1.44,7.41,0,4.06-.65,7-2,8.82s-4,2.88-7.43,3h-.94V70a7.75,7.75,0,0,1,1.39.09c3.34.1,5.72,1.26,7.06,3.44s1.9,5.07,1.9,9.17c0,3.86-.41,6.62-1.26,8.42-.67,1.41-2.16,3.09-5.46,3.09h0c-3.3,0-4.84-1.66-5.56-3-.92-1.77-1.39-4.52-1.46-8.4V81.54Z"/><path class="cls-3" d="M66.48,105.14h-.1c-7.19,0-12.47-2.09-15.7-6.15h0c-3.16-4-4.77-9.62-4.77-16.77V78.57l16,0v3.56c.06,3.44.46,5.92,1.2,7.34.39.76,1.18,1.77,3.47,1.77h0c2.25,0,3-1,3.33-1.74.69-1.46,1-4,1-7.42s-.52-6.26-1.55-7.93c-.93-1.52-2.66-2.28-5.27-2.34l-.48-.12a16.09,16.09,0,0,1-1.88,0H60.61V59.4H64c2.69,0,4.53-.66,5.46-2S71,53.49,71,50c0-2.85-.38-4.94-1.12-6.23-.64-1.1-1.8-1.64-3.55-1.64-2.19.06-2.92,1-3.27,1.71a16.59,16.59,0,0,0-1.13,6.59v4.34l-16,0V49.65c0-6.55,1.81-11.71,5.39-15.33s8.57-5.44,14.9-5.44h.1c6.43,0,11.5,1.81,15.07,5.34s5.4,8.6,5.4,15.1a21.18,21.18,0,0,1-2.69,11,13,13,0,0,1-4.65,4.78c4.87,3,7.34,8.6,7.34,16.84,0,7.14-1.64,12.85-4.86,17S73.45,105.14,66.48,105.14ZM48.26,80.92v1.3c0,6.61,1.44,11.75,4.26,15.31h0c2.76,3.47,7.43,5.24,13.87,5.26h.09c6.21,0,10.78-1.81,13.59-5.39s4.35-8.91,4.35-15.51c0-8.56-2.71-13.74-8.27-15.83l-3.45-1.3,3.56-.94a9.53,9.53,0,0,0,5.8-4.75,18.9,18.9,0,0,0,2.36-9.75c0-5.84-1.58-10.36-4.7-13.43s-7.64-4.64-13.43-4.66H66.2C60.52,31.23,56.07,32.82,53,36s-4.71,7.77-4.71,13.68v2.72l11.28,0v-2a18.75,18.75,0,0,1,1.36-7.59c.67-1.39,2.14-3,5.37-3h0c2.62,0,4.49.95,5.57,2.81,1,1.67,1.44,4.1,1.44,7.41,0,4.06-.65,6.95-2,8.82S67.44,61.76,64,61.76H63v7.66a7.75,7.75,0,0,1,1.39.09c3.34.1,5.71,1.27,7.06,3.44s1.9,5.07,1.9,9.17c0,3.87-.41,6.62-1.26,8.42-.67,1.41-2.16,3.09-5.46,3.09h0c-3.3,0-4.84-1.66-5.56-3-.92-1.77-1.39-4.52-1.46-8.4V81Z"/><path class="cls-3" d="M67.07,104.55H67c-7.19,0-12.47-2.09-15.7-6.15h0c-3.16-4-4.77-9.62-4.77-16.77V78l16,0v3.56c.06,3.44.46,5.92,1.2,7.34.39.76,1.18,1.77,3.47,1.77h0c2.25,0,3-1,3.33-1.75.69-1.46,1-4,1-7.42S71,75.27,70,73.6c-.93-1.51-2.66-2.28-5.27-2.34l-.48-.12a16.09,16.09,0,0,1-1.88,0H61.19V58.81H64.5c2.76.1,4.56-.65,5.5-2s1.55-3.94,1.55-7.45c0-2.85-.38-4.94-1.12-6.23-.64-1.1-1.8-1.64-3.55-1.64h0c-2.18,0-2.9,1-3.25,1.71a16.59,16.59,0,0,0-1.13,6.59v4.34l-16,0V49.06c0-6.55,1.81-11.7,5.39-15.33s8.57-5.44,14.9-5.44h.1c6.43,0,11.5,1.81,15.07,5.34s5.4,8.6,5.4,15.1a21.18,21.18,0,0,1-2.69,11A13,13,0,0,1,80,64.46c4.87,3,7.34,8.6,7.34,16.84,0,7.14-1.64,12.85-4.86,17S74,104.55,67.07,104.55ZM48.85,80.33v1.3c0,6.61,1.43,11.76,4.26,15.31h0c2.76,3.47,7.43,5.24,13.87,5.26h.09c6.21,0,10.78-1.81,13.58-5.39S85,87.9,85,81.3c0-8.56-2.71-13.74-8.27-15.83l-3.45-1.3,3.56-.94a9.53,9.53,0,0,0,5.8-4.75A18.9,18.9,0,0,0,85,48.73c0-5.84-1.58-10.36-4.7-13.43s-7.64-4.64-13.43-4.66h-.09c-5.68,0-10.13,1.59-13.23,4.74s-4.71,7.77-4.71,13.68v2.72l11.28,0v-2a18.75,18.75,0,0,1,1.36-7.59c.67-1.39,2.14-3,5.37-3h0c2.62,0,4.49,1,5.57,2.81,1,1.67,1.44,4.1,1.44,7.41,0,4.06-.65,7-2,8.82s-3.88,3-7.37,3h-1v7.66a7.75,7.75,0,0,1,1.39.09c3.34.11,5.71,1.27,7.06,3.45s1.9,5.06,1.9,9.16c0,3.87-.41,6.62-1.26,8.42C72,91.36,70.48,93,67.18,93h0c-3.3,0-4.84-1.65-5.56-3-.92-1.77-1.39-4.52-1.46-8.4V80.37Z"/><path class="cls-3" d="M67.66,104h-.1c-7.19,0-12.47-2.09-15.7-6.15h0c-3.16-4-4.77-9.62-4.77-16.76V77.39l16,0V81c.06,3.43.46,5.91,1.2,7.33.39.76,1.17,1.77,3.47,1.77h0c2.24,0,3-1,3.33-1.75.69-1.46,1-4,1-7.42s-.52-6.26-1.55-7.93c-.93-1.51-2.66-2.28-5.27-2.34l-.49-.12a15.73,15.73,0,0,1-1.87,0H61.78V58.22h3.35c2.69,0,4.53-.66,5.46-2s1.55-3.94,1.55-7.45c0-2.85-.38-4.94-1.12-6.23-.64-1.1-1.8-1.64-3.55-1.64h0c-2.18,0-2.9,1-3.25,1.71a16.59,16.59,0,0,0-1.13,6.59v4.34l-16,0V48.47c0-6.55,1.81-11.7,5.38-15.33s8.58-5.44,14.91-5.44h.1c6.43,0,11.5,1.81,15.07,5.34S88,41.65,88,48.14a21.18,21.18,0,0,1-2.69,11,13,13,0,0,1-4.65,4.78C85.48,66.82,88,72.47,88,80.71c0,7.14-1.64,12.85-4.86,17S74.62,104,67.66,104ZM49.44,79.74v1.31c0,6.6,1.43,11.75,4.26,15.3h0c2.76,3.47,7.43,5.24,13.87,5.26h.09c6.21,0,10.78-1.81,13.58-5.39s4.35-8.9,4.35-15.51c0-8.56-2.7-13.74-8.26-15.83l-3.45-1.3,3.56-.94a9.53,9.53,0,0,0,5.8-4.75,18.9,18.9,0,0,0,2.35-9.75c0-5.84-1.58-10.36-4.69-13.43s-7.64-4.64-13.43-4.66h-.09c-5.68,0-10.13,1.6-13.23,4.74s-4.71,7.77-4.71,13.68v2.72l11.28,0v-2a18.61,18.61,0,0,1,1.36-7.59c.66-1.39,2.14-3,5.37-3h0c2.62,0,4.49.95,5.57,2.81,1,1.68,1.44,4.1,1.44,7.41,0,4.06-.65,6.95-2,8.82s-3.88,2.95-7.37,2.95h-1v7.66a9.09,9.09,0,0,1,1.4.09c3.34.11,5.71,1.27,7.06,3.45s1.9,5.06,1.9,9.16c0,3.87-.41,6.62-1.26,8.42-.67,1.41-2.16,3.09-5.46,3.1h0c-3.3,0-4.84-1.66-5.56-3-.92-1.78-1.4-4.53-1.46-8.41V79.78Z"/><path class="cls-3" d="M68.24,103.37h-.09c-7.19,0-12.47-2.09-15.7-6.15h0c-3.16-4-4.77-9.62-4.77-16.76V76.8l16,0v3.57c.05,3.44.46,5.91,1.2,7.34.39.75,1.17,1.76,3.47,1.77h0c2.24,0,3-1,3.33-1.75.69-1.46,1-4,1-7.42s-.52-6.26-1.55-7.93c-.94-1.51-2.66-2.28-5.27-2.34L65.42,70a13.53,13.53,0,0,1-1.87,0H62.37V57.63h3.35c2.69,0,4.52-.66,5.46-2s1.55-3.94,1.55-7.45c0-2.85-.38-4.94-1.13-6.23-.63-1.1-1.79-1.64-3.54-1.64h0c-2.18,0-2.9,1-3.26,1.71a16.62,16.62,0,0,0-1.12,6.59V53l-16,0V47.88c0-6.55,1.81-11.7,5.38-15.33s8.58-5.44,14.9-5.44h.1c6.43,0,11.51,1.81,15.08,5.34s5.39,8.61,5.39,15.1a21.18,21.18,0,0,1-2.68,11,13,13,0,0,1-4.65,4.78c4.87,3,7.33,8.6,7.33,16.85,0,7.13-1.63,12.84-4.85,17S75.21,103.37,68.24,103.37ZM50,79.16v1.3c0,6.6,1.43,11.75,4.26,15.3h0c2.76,3.47,7.42,5.24,13.86,5.26h.09c6.21,0,10.79-1.81,13.59-5.39s4.35-8.9,4.35-15.5c0-8.57-2.7-13.75-8.26-15.84L74.47,63,78,62.06a9.61,9.61,0,0,0,5.8-4.76,18.9,18.9,0,0,0,2.35-9.75c0-5.84-1.58-10.36-4.69-13.43s-7.64-4.64-13.43-4.66H68c-5.68,0-10.13,1.6-13.23,4.74S50,42,50,47.88v2.73l11.28,0v-2A18.61,18.61,0,0,1,62.67,41c.66-1.39,2.14-3,5.37-3h0c2.63,0,4.5,1,5.58,2.81,1,1.68,1.44,4.1,1.44,7.41,0,4.06-.65,7-2,8.82s-3.85,3-7.42,3h-1v7.66a10.71,10.71,0,0,1,1.4.09c3.34.11,5.71,1.27,7.06,3.45s1.9,5.07,1.9,9.16c0,3.87-.41,6.62-1.26,8.42-.67,1.42-2.16,3.1-5.46,3.1h0c-3.3,0-4.85-1.66-5.56-3-.92-1.78-1.4-4.53-1.46-8.41V79.19Z"/><path class="cls-3" d="M68.83,102.78h-.09c-7.19,0-12.47-2.09-15.7-6.15h0c-3.16-4-4.77-9.62-4.77-16.76V76.21l16,.05v3.56c0,3.44.46,5.91,1.2,7.34.39.76,1.17,1.76,3.47,1.77h0c2.25,0,3-1,3.34-1.75.69-1.46,1-4,1-7.42s-.52-6.26-1.55-7.93c-.94-1.51-2.66-2.28-5.27-2.34L66,69.38a17.83,17.83,0,0,1-1.88,0H63V57h3.35c2.69,0,4.52-.66,5.46-2s1.55-3.94,1.55-7.45c0-2.85-.38-4.94-1.13-6.23-.63-1.1-1.79-1.64-3.54-1.64h0c-2.17,0-2.89,1-3.25,1.71a16.66,16.66,0,0,0-1.12,6.59V52.4l-16,0V47.29c0-6.54,1.81-11.7,5.38-15.32s8.57-5.45,14.9-5.45h.1c6.43,0,11.51,1.82,15.08,5.34s5.39,8.61,5.39,15.1a21.09,21.09,0,0,1-2.69,10.95,12.94,12.94,0,0,1-4.64,4.78c4.87,3,7.33,8.61,7.33,16.85,0,7.13-1.63,12.84-4.85,16.95S75.8,102.78,68.83,102.78ZM50.62,78.57v1.3c0,6.6,1.43,11.75,4.26,15.3h0c2.76,3.48,7.42,5.24,13.86,5.26h.09c6.21,0,10.79-1.81,13.59-5.39s4.35-8.9,4.35-15.5c0-8.57-2.7-13.75-8.26-15.84l-3.46-1.29,3.57-.94a9.58,9.58,0,0,0,5.8-4.76A18.9,18.9,0,0,0,86.77,47c0-5.84-1.58-10.36-4.69-13.43s-7.64-4.64-13.43-4.66h-.09c-5.68,0-10.13,1.6-13.23,4.74s-4.71,7.78-4.71,13.68V50l11.28,0V48a18.81,18.81,0,0,1,1.35-7.59c.67-1.39,2.15-3,5.37-3h0c2.62,0,4.5,1,5.58,2.81,1,1.68,1.44,4.1,1.44,7.41,0,4.06-.65,6.95-2,8.82s-3.94,3.08-7.42,2.95h-1v7.66a10.71,10.71,0,0,1,1.4.09c3.34.11,5.71,1.27,7.06,3.45s1.9,5.07,1.9,9.16c0,3.87-.41,6.62-1.27,8.42-.66,1.42-2.15,3.1-5.46,3.1h0c-3.3,0-4.85-1.66-5.56-3-.92-1.78-1.4-4.53-1.46-8.4V78.6Z"/><path class="cls-3" d="M69.42,102.2h-.09c-7.19,0-12.47-2.1-15.7-6.16h0c-3.17-4-4.77-9.61-4.77-16.76V75.62l16,0v3.56c0,3.44.46,5.91,1.2,7.34.39.76,1.17,1.76,3.47,1.77h0c2.25,0,3-1,3.34-1.75.69-1.46,1-4,1-7.42s-.52-6.26-1.55-7.93c-.94-1.51-2.66-2.28-5.27-2.34l-.49-.11a17.83,17.83,0,0,1-1.88,0H63.55V56.46H66.9c2.69,0,4.52-.66,5.46-2s1.55-4,1.55-7.46c0-2.84-.38-4.94-1.13-6.23-.63-1.1-1.79-1.63-3.54-1.64-2.23.1-2.92,1-3.28,1.71a16.66,16.66,0,0,0-1.12,6.59v4.35l-16,0V46.7c0-6.54,1.81-11.7,5.38-15.32s8.57-5.45,14.9-5.45h.1c6.43,0,11.5,1.82,15.08,5.34s5.39,8.61,5.39,15.1a21.09,21.09,0,0,1-2.69,11,12.94,12.94,0,0,1-4.64,4.78c4.87,2.95,7.33,8.61,7.33,16.85,0,7.14-1.63,12.84-4.85,17S76.39,102.2,69.42,102.2ZM51.21,78v1.3c0,6.6,1.43,11.75,4.26,15.3h0c2.76,3.48,7.42,5.25,13.86,5.26h.09c6.21,0,10.79-1.82,13.59-5.4s4.35-8.9,4.35-15.5c0-8.57-2.7-13.75-8.26-15.84l-3.46-1.29,3.57-.94A9.58,9.58,0,0,0,85,56.12a18.9,18.9,0,0,0,2.35-9.75c0-5.84-1.58-10.36-4.69-13.43S75,28.3,69.24,28.28h-.09c-5.68,0-10.13,1.6-13.23,4.75S51.21,40.8,51.21,46.7v2.73l11.28,0v-2a18.81,18.81,0,0,1,1.35-7.59c.67-1.39,2.15-3,5.37-3h0c2.62,0,4.5,1,5.58,2.81,1,1.68,1.44,4.1,1.44,7.41,0,4.06-.65,7-2,8.82s-4,2.92-7.42,3H65.9v7.66a10.71,10.71,0,0,1,1.4.09c3.34.11,5.71,1.27,7.06,3.45s1.9,5.07,1.9,9.16c0,3.87-.42,6.62-1.27,8.42-.66,1.42-2.15,3.1-5.46,3.1h0c-3.29,0-4.84-1.66-5.55-3-.92-1.78-1.4-4.52-1.46-8.4V78Z"/><path class="cls-3" d="M70,101.61h-.09c-7.19,0-12.47-2.09-15.7-6.15h0c-3.17-4-4.77-9.62-4.77-16.77V75l16,0v3.56c0,3.44.46,5.91,1.2,7.34.39.76,1.17,1.76,3.47,1.77h0c2.25,0,3-1,3.34-1.75.69-1.46,1-4,1-7.42S74,72.32,73,70.66s-2.66-2.28-5.27-2.34l-.49-.12a18,18,0,0,1-1.88,0H64.14V55.87h3.35c2.69,0,4.52-.67,5.46-2S74.5,50,74.5,46.45c0-2.84-.38-4.94-1.13-6.23-.63-1.1-1.79-1.63-3.54-1.64a3.21,3.21,0,0,0-3.28,1.71,16.66,16.66,0,0,0-1.12,6.59v4.35l-16,0V46.11c0-6.54,1.81-11.7,5.38-15.32s8.57-5.45,14.9-5.45h.1c6.43,0,11.5,1.82,15.07,5.34s5.4,8.61,5.4,15.1a21.09,21.09,0,0,1-2.69,10.95A12.94,12.94,0,0,1,83,61.51c4.87,3,7.33,8.61,7.33,16.85,0,7.14-1.63,12.84-4.85,17S77,101.61,70,101.61ZM51.8,77.39v1.3c0,6.6,1.43,11.75,4.26,15.3h0c2.76,3.48,7.42,5.25,13.86,5.27H70c6.21,0,10.78-1.82,13.59-5.4S88,85,88,78.36c0-8.57-2.7-13.75-8.27-15.84l-3.45-1.29,3.57-.94a9.53,9.53,0,0,0,5.79-4.76A18.8,18.8,0,0,0,88,45.78c0-5.84-1.58-10.36-4.69-13.42s-7.64-4.65-13.43-4.66h-.1c-5.68,0-10.12,1.6-13.22,4.75S51.8,40.21,51.8,46.11v2.73l11.28,0v-2a18.63,18.63,0,0,1,1.35-7.59c.67-1.38,2.15-3,5.37-3h0c2.62,0,4.5,1,5.58,2.81,1,1.68,1.44,4.1,1.44,7.41,0,4.07-.65,6.95-2,8.82s-3.88,3-7.37,3h-1v7.66a10.71,10.71,0,0,1,1.4.09c3.34.11,5.71,1.27,7.06,3.45s1.9,5.07,1.9,9.16c0,3.87-.42,6.62-1.27,8.42-.67,1.42-2.16,3.1-5.46,3.1h0c-3.3,0-4.84-1.66-5.55-3-.92-1.77-1.4-4.52-1.46-8.4V77.42Z"/><path class="cls-4" d="M55.14,94.72q-4.52-5.67-4.52-16V76.21l13.63,0v2.39q.09,5.49,1.33,7.88c.83,1.6,2.33,2.4,4.52,2.4s3.65-.8,4.42-2.42,1.15-4.26,1.15-7.92q0-5.74-1.72-8.54c-1.15-1.87-3.24-2.83-6.24-2.9a14.25,14.25,0,0,0-2.4-.09V57h2.13q4.69,0,6.46-2.46t1.77-8.14q0-4.61-1.28-6.82c-.86-1.47-2.38-2.22-4.56-2.22s-3.57.78-4.34,2.37a17.83,17.83,0,0,0-1.24,7.08v3.19L50.62,50v-3.9q0-9.37,5.05-14.5t14.16-5.09q9.21,0,14.25,5t5,14.26A19.82,19.82,0,0,1,86.6,56.13a10.74,10.74,0,0,1-6.5,5.29q9,3.4,9,16.94,0,10.35-4.61,16.23t-14.6,5.84Q59.65,100.4,55.14,94.72Z"/></g></g></svg>