<svg xmlns="http://www.w3.org/2000/svg" viewBox="0 0 138 145"><defs><style>.cls-1{isolation:isolate;}.cls-2{opacity:0.2;mix-blend-mode:multiply;}.cls-3{fill:#652b81;}.cls-4{fill:#fff;}</style></defs><g class="cls-1"><g id="Layer_1" data-name="Layer 1"><g class="cls-2"><path d="M76.21,101.72l-21.78-.07V91l18.68-44.2,15.85,0V91.4l7,0v10.35l-7,0v16.82l-12.75,0Zm0-10.36V60.91l-11,30.42Z"/><path d="M75.8,101.31,54,101.25V90.62L72.7,46.42l15.85,0V91l7,0v10.36l-7,0v16.82l-12.75,0ZM75.8,91V60.5l-11,30.42Z"/><path d="M75.39,100.9l-21.77-.06V90.21L72.29,46l15.85.05V90.58l7,0V101l-7,0v16.81l-12.75,0Zm0-10.36V60.09l-11,30.42Z"/><path d="M75,100.49l-21.77-.06V89.81L71.89,45.6l15.84,0V90.17l7,0v10.36l-7,0v16.82l-12.75,0Zm0-10.36V59.69L64,90.1Z"/><path d="M74.57,100.08,52.8,100V89.4L71.48,45.19l15.84.05V89.76l7,0v10.36l-7,0v16.82l-12.75,0Zm0-10.35V59.28l-11,30.41Z"/><path d="M74.16,99.67l-21.77-.06V89L71.07,44.78l15.84,0V89.35l7,0V99.73l-7,0v16.82l-12.75,0Zm0-10.35V58.87l-11,30.41Z"/><path d="M73.75,99.26,52,99.2V88.58L70.66,44.37l15.84.05V88.94l7,0V99.32l-7,0v16.82l-12.75,0Zm0-10.35V58.46l-11,30.42Z"/><path d="M73.35,98.85l-21.78-.06V88.17L70.25,44l15.84,0V88.53l7,0V98.91l-7,0v16.82l-12.74,0Zm0-10.35V58.05l-11,30.42Z"/><path d="M72.94,98.45l-21.78-.07V87.76l18.68-44.2,15.84,0V88.13l7,0V98.5l-7,0V115.3l-12.74,0Zm0-10.36V57.64L62,88.06Z"/><path d="M72.53,98,50.75,98V87.35l18.68-44.2,15.85,0V87.72l7,0V98.09l-7,0v16.82l-12.75,0Zm0-10.36V57.23l-11,30.42Z"/><path d="M72.12,97.63l-21.78-.07V86.94L69,42.74l15.85,0V87.31l7,0V97.68l-7,0v16.82l-12.75,0Zm0-10.36V56.82l-11,30.42Z"/><path d="M71.71,97.22l-21.77-.06V86.53l18.67-44.2,15.85,0V86.9l7,0V97.28l-7,0v16.82l-12.75,0Zm0-10.36V56.41l-11,30.42Z"/><path d="M71.3,96.81l-21.77-.06V86.12L68.2,41.92l15.85,0V86.49l7,0V96.87l-7,0v16.81l-12.75,0Zm0-10.36V56l-11,30.42Z"/><path d="M70.89,96.4l-21.77-.06V85.72L67.8,41.51l15.84.05V86.08l7,0V96.46l-7,0v16.81l-12.75,0Zm0-10.36V55.59L59.92,86Z"/><path d="M70.48,96l-21.77-.06V85.31L67.39,41.1l15.84,0V85.67l7,0V96.05l-7,0v16.82l-12.75,0Zm0-10.35V55.19l-11,30.41Z"/><path d="M70.07,95.58,48.3,95.52V84.9L67,40.69l15.84.05V85.26l7,0V95.64l-7,0v16.82l-12.75,0Zm0-10.35V54.78l-11,30.41Z"/><path d="M69.66,95.17l-21.77-.06V84.49L66.57,40.28l15.84,0V84.85l7,0V95.23l-7,0V112l-12.75,0Zm0-10.35V54.37l-11,30.42Z"/><path d="M69.26,94.76,47.48,94.7V84.08l18.68-44.2,15.84,0V84.44l7,0V94.82l-7,0v16.82l-12.74,0Zm0-10.35V54l-11,30.42Z"/><path d="M68.85,94.36l-21.78-.07V83.67l18.68-44.2,15.84,0V84l7,0V94.41l-7,0v16.82l-12.74,0Zm0-10.36V53.55L57.87,84Z"/><path d="M68.44,94l-21.78-.07V83.26l18.68-44.2,15.85,0V83.63l7,0V94l-7,0V110.8l-12.75,0Zm0-10.36V53.14l-11,30.42Z"/><path d="M68,93.54l-21.78-.07V82.85l18.68-44.2,15.85,0V83.22l7,0V93.59l-7,0v16.82l-12.75,0Zm0-10.36V52.73l-11,30.42Z"/><path d="M67.62,93.13l-21.78-.07V82.44l18.68-44.2,15.85,0V82.81l7,0V93.18l-7,0V110l-12.75,0Zm0-10.36V52.32l-11,30.42Z"/><path d="M67.21,92.72l-21.77-.06V82l18.67-44.2L80,37.88V82.4l7,0V92.78l-7,0v16.82l-12.75,0Zm0-10.36V51.91l-11,30.42Z"/><path d="M66.8,92.31,45,92.25V81.63L63.71,37.42l15.84,0V82l7,0V92.37l-7,0v16.81l-12.75,0ZM66.8,82V51.5l-11,30.42Z"/><path d="M66.39,91.9l-21.77-.06V81.22L63.3,37l15.84.05V81.58l7,0V92l-7,0v16.82l-12.75,0Zm0-10.36V51.1l-11,30.41Z"/><path d="M66,91.49l-21.77-.06V80.81L62.89,36.6l15.84,0V81.17l7,0V91.55l-7,0v16.82l-12.75,0Zm0-10.35V50.69L55,81.1Z"/><path d="M65.57,91.08,43.8,91V80.4L62.48,36.19l15.84.05V80.76l7,0V91.14l-7,0v16.82l-12.75,0Zm0-10.35V50.28L54.6,80.7Z"/><path d="M65.16,90.67l-21.77-.06V80L62.07,35.78l15.84,0V80.35l7,0V90.73l-7,0v16.82l-12.75,0Zm0-10.35V49.87l-11,30.42Z"/><path d="M64.76,90.26,43,90.2V79.58l18.68-44.2,15.84,0V79.94l7,0V90.32l-7,0v16.82l-12.74,0Zm0-10.35V49.46l-11,30.42Z"/><path d="M64.35,89.86l-21.78-.07V79.17L61.25,35l15.84,0V79.54l7,0V89.91l-7,0v16.82l-12.74,0Zm0-10.36V49.05l-11,30.42Z"/><path d="M63.94,89.45l-21.78-.07V78.76l18.68-44.2,15.85,0V79.13l7,0V89.5l-7,0V106.3l-12.75,0Zm0-10.36V48.64L53,79.06Z"/></g><path class="cls-3" d="M78.92,106.42l-15.09,0V89.56l-21.78-.07.09-12.25,19-44.92,17.79,0V76.89l7,0V89.62l-7,0ZM66.18,104l10.39,0V87.24l7,0v-8l-7,0V34.71l-13.89,0L44.4,77.94v9.21l21.78.06Zm0-24.82-13.83,0L66.18,40.86ZM55.7,76.83l8.13,0V54.3Z"/><path class="cls-3" d="M79.51,105.83l-15.1,0V89L42.64,88.9l.09-12.25,19-44.92,17.8.05V76.3l7,0V89l-7,0Zm-12.74-2.39,10.39,0V86.65l7,0v-8l-7,0V34.12l-13.89,0L45,77.35v9.21l21.78.06Zm0-24.82-13.83,0L66.77,40.27ZM56.29,76.24l8.12,0V53.71Z"/><path class="cls-3" d="M80.1,105.24l-15.1,0V88.38l-21.77-.07.09-12.25,19-44.92,17.8.05V75.71l7,0V88.44l-7,0Zm-12.75-2.39,10.4,0V86.06l7,0v-8l-7,0V33.53l-13.89,0L45.58,76.76V86L67.35,86Zm0-24.82L53.53,78,67.35,39.68ZM56.88,75.65l8.12,0V53.12Z"/><path class="cls-3" d="M80.69,104.65l-15.1,0V87.79l-21.77-.07.09-12.25,19-44.92,17.8.05V75.12l7,0v12.7l-7,0Zm-12.75-2.39,10.4,0V85.47l7,0v-8l-7,0V32.94l-13.89,0L46.17,76.17v9.21l21.77.06Zm0-24.82-13.82,0L67.94,39.09ZM57.46,75.06l8.13,0V52.53Z"/><path class="cls-3" d="M81.28,104.06l-15.1,0V87.2l-21.77-.06.09-12.25L63.48,30l17.8.05V74.54l7,0v12.7l-7,0Zm-12.75-2.39,10.4,0V84.89l7,0v-8l-7,0V32.36L65,32.32,46.76,75.58v9.21l21.77.07Zm0-24.82-13.82,0L68.53,38.5ZM58.05,74.47l8.13,0V51.94Z"/><path class="cls-3" d="M81.87,103.47l-15.1,0V86.61L45,86.55l.09-12.25,19-44.93,17.8.05V74l7,0v12.7l-7,0Zm-12.75-2.38,10.4,0V84.3l7,0v-8l-7,0V31.77l-13.89,0L47.35,75V84.2l21.77.07Zm0-24.83-13.82,0,13.82-38.3ZM58.64,73.88l8.13,0V51.35Z"/><path class="cls-3" d="M82.46,102.88l-15.1,0V86L45.59,86l.09-12.25,19-44.93,17.8,0V73.36l7,0v12.7l-7,0ZM69.71,100.5l10.4,0V83.71l7,0v-8l-7,0V31.18l-13.89,0L47.94,74.4v9.21l21.77.07Zm0-24.83-13.82,0,13.82-38.3ZM59.23,73.29l8.13,0V50.76Z"/><path class="cls-3" d="M83.05,102.29l-15.1,0V85.43l-21.78-.06.1-12.25,19-44.93,17.8,0V72.77l7,0V85.5l-7,0ZM70.3,99.91l10.4,0V83.12l7,0v-8l-7,0V30.59l-13.89,0L48.53,73.81V83l21.77.06Zm0-24.83L56.48,75,70.3,36.74ZM59.82,72.7l8.13,0V50.17Z"/><path class="cls-3" d="M83.64,101.7l-15.1,0V84.84l-21.78-.06.1-12.25,19-44.92,17.8.05V72.18l7,0V84.91l-7,0ZM70.89,99.32l10.4,0V82.53l7,0v-8l-7,0V30L67.4,30,49.11,73.22v9.22l21.78.06Zm0-24.83-13.82,0,13.82-38.3ZM60.41,72.11l8.13,0V49.58Z"/><path class="cls-3" d="M84.23,101.11l-15.1,0V84.25l-21.78-.06.1-12.25L66.43,27l17.8.05V71.59l7,0V84.32l-7,0ZM71.48,98.73l10.4,0V81.94l7,0V74l-7,0V29.41L68,29.37,49.7,72.63v9.22l21.78.06Zm0-24.83-13.83,0,13.83-38.3ZM61,71.52l8.13,0V49Z"/><path class="cls-3" d="M84.82,100.53l-15.1,0V83.66L47.94,83.6,48,71.35,67,26.43l17.8.05V71l7,0V83.73l-7,0ZM72.07,98.14l10.39,0V81.35l7,0v-8l-7,0V28.82l-13.89,0L50.29,72.05v9.21l21.78.06Zm0-24.82-13.83,0L72.07,35ZM61.59,70.94l8.13,0V48.41Z"/><path class="cls-4" d="M70.89,82.49l-21.77-.06V71.81L67.8,27.6l15.84,0V72.17l7,0V82.55l-7,0V99.35l-12.75,0Zm0-10.35V41.69l-11,30.42Z"/></g></g></svg>