<svg xmlns="http://www.w3.org/2000/svg" viewBox="0 0 138 145"><defs><style>.cls-1{isolation:isolate;}.cls-2{opacity:0.2;mix-blend-mode:multiply;}.cls-3{fill:#652b81;}.cls-4{fill:#fff;}</style></defs><g class="cls-1"><g id="Layer_1" data-name="Layer 1"><g class="cls-2"><path d="M66.13,121a13.72,13.72,0,0,1-5.77-7.67A41.88,41.88,0,0,1,58.8,100.9l13.75,0c0,4.28.4,7.39,1.2,9.31a5.27,5.27,0,0,0,8.71,1.08,10.56,10.56,0,0,0,1.6-5c.22-2.13.32-5.16.32-9.07,0-4.53-.41-7.9-1.23-10.14a4.94,4.94,0,0,0-5.09-3.36q-5,0-6.33,6.67l-12.2,0,1-42.18,34.11.1V60.47l-22.56-.06-.73,16.41a9.64,9.64,0,0,1,4.4-2.6,20.57,20.57,0,0,1,6.61-1,12.81,12.81,0,0,1,11.5,6.18q3.9,6.17,3.9,17.25a57.66,57.66,0,0,1-1.56,14.63,16.51,16.51,0,0,1-5.91,9.15q-4.36,3.33-12.43,3.31Q70.35,123.69,66.13,121Z"/><path d="M65.71,120.54a13.73,13.73,0,0,1-5.78-7.68,41.81,41.81,0,0,1-1.56-12.38l13.76,0q0,6.42,1.19,9.31a4.58,4.58,0,0,0,4.68,2.9,4.55,4.55,0,0,0,4-1.82,10.56,10.56,0,0,0,1.61-5c.21-2.14.32-5.16.32-9.08Q84,90,82.72,86.66a4.92,4.92,0,0,0-5.09-3.37q-4.95,0-6.33,6.68l-12.19,0,1-42.19,34.11.1v12.2L71.67,60,70.94,76.4a9.41,9.41,0,0,1,4.4-2.6,20.28,20.28,0,0,1,6.6-1,12.82,12.82,0,0,1,11.51,6.18q3.9,6.15,3.9,17.25a57.58,57.58,0,0,1-1.56,14.62A16.53,16.53,0,0,1,89.87,120q-4.35,3.33-12.42,3.31Q69.92,123.25,65.71,120.54Z"/><path d="M65.29,120.11a13.7,13.7,0,0,1-5.78-7.67A41.81,41.81,0,0,1,58,100.06l13.76,0c0,4.27.39,7.38,1.19,9.31a5.29,5.29,0,0,0,8.71,1.08,10.46,10.46,0,0,0,1.6-5q.33-3.21.33-9.08c0-4.52-.42-7.9-1.24-10.14a4.93,4.93,0,0,0-5.09-3.36q-5,0-6.33,6.68l-12.2,0,1-42.18,34.12.1v12.2l-22.56-.07L70.51,76a9.68,9.68,0,0,1,4.41-2.6,20.46,20.46,0,0,1,6.6-1A12.81,12.81,0,0,1,93,78.51q3.9,6.17,3.89,17.26a58.09,58.09,0,0,1-1.55,14.62,16.52,16.52,0,0,1-5.92,9.15Q85.1,122.87,77,122.85,69.51,122.84,65.29,120.11Z"/><path d="M64.86,119.69A13.68,13.68,0,0,1,59.09,112a41.6,41.6,0,0,1-1.56-12.39l13.75,0q0,6.42,1.19,9.31a4.59,4.59,0,0,0,4.68,2.9,4.56,4.56,0,0,0,4-1.82,10.56,10.56,0,0,0,1.6-5q.31-3.21.32-9.07,0-6.8-1.24-10.14a4.92,4.92,0,0,0-5.09-3.36q-4.95,0-6.32,6.67l-12.2,0,1-42.18,34.11.1V59.2l-22.56-.06-.73,16.41a9.5,9.5,0,0,1,4.4-2.6,20.55,20.55,0,0,1,6.6-1A12.82,12.82,0,0,1,92.6,78.09q3.9,6.15,3.9,17.25A57.52,57.52,0,0,1,94.94,110,16.53,16.53,0,0,1,89,119.12q-4.36,3.33-12.43,3.31Q69.09,122.4,64.86,119.69Z"/><path d="M64.44,119.27a13.73,13.73,0,0,1-5.78-7.68A41.81,41.81,0,0,1,57.1,99.21l13.76,0q0,6.42,1.19,9.31a4.59,4.59,0,0,0,4.68,2.9,4.55,4.55,0,0,0,4-1.82,10.56,10.56,0,0,0,1.61-5c.21-2.14.32-5.16.32-9.08q0-6.78-1.24-10.13A4.93,4.93,0,0,0,76.36,82q-5,0-6.33,6.68l-12.19,0,1-42.18,34.12.1v12.2L70.4,58.71l-.73,16.42a9.41,9.41,0,0,1,4.4-2.6,20.28,20.28,0,0,1,6.6-1,12.79,12.79,0,0,1,11.51,6.18q3.9,6.15,3.9,17.25a57.58,57.58,0,0,1-1.56,14.62,16.47,16.47,0,0,1-5.92,9.15Q84.25,122,76.18,122,68.65,122,64.44,119.27Z"/><path d="M64,118.84a13.7,13.7,0,0,1-5.78-7.67,41.88,41.88,0,0,1-1.56-12.39l13.75,0q0,6.42,1.2,9.32A4.6,4.6,0,0,0,76.3,111a4.57,4.57,0,0,0,4-1.83,10.52,10.52,0,0,0,1.6-5c.22-2.14.32-5.17.32-9.08,0-4.53-.41-7.9-1.23-10.14a4.94,4.94,0,0,0-5.09-3.36q-4.95,0-6.33,6.68l-12.2,0,1-42.18,34.12.1V58.35L70,58.29,69.24,74.7a9.69,9.69,0,0,1,4.4-2.6,20.56,20.56,0,0,1,6.61-1,12.81,12.81,0,0,1,11.51,6.17q3.88,6.17,3.89,17.26a57.63,57.63,0,0,1-1.56,14.62,16.51,16.51,0,0,1-5.91,9.15q-4.37,3.33-12.43,3.31Q68.23,121.57,64,118.84Z"/><path d="M63.59,118.42a13.73,13.73,0,0,1-5.78-7.68,41.84,41.84,0,0,1-1.55-12.38L70,98.4q0,6.42,1.19,9.31a4.59,4.59,0,0,0,4.68,2.9,4.55,4.55,0,0,0,4-1.82,10.56,10.56,0,0,0,1.61-5c.21-2.14.32-5.16.32-9.08q0-6.78-1.24-10.13a4.9,4.9,0,0,0-5.09-3.36q-5,0-6.32,6.67l-12.2,0,1-42.18,34.11.09v12.2l-22.56-.06-.73,16.41a9.5,9.5,0,0,1,4.4-2.6,20.55,20.55,0,0,1,6.6-1,12.82,12.82,0,0,1,11.51,6.18q3.9,6.15,3.9,17.25a57.58,57.58,0,0,1-1.56,14.62,16.57,16.57,0,0,1-5.91,9.16q-4.37,3.33-12.43,3.31Q67.82,121.13,63.59,118.42Z"/><path d="M63.17,118a13.72,13.72,0,0,1-5.78-7.68,41.81,41.81,0,0,1-1.56-12.38l13.76,0c0,4.28.39,7.38,1.19,9.31a4.59,4.59,0,0,0,4.68,2.9,4.58,4.58,0,0,0,4-1.82,10.56,10.56,0,0,0,1.61-5q.32-3.21.32-9.08c0-4.52-.42-7.9-1.24-10.14a4.93,4.93,0,0,0-5.09-3.36q-4.95,0-6.33,6.68l-12.2,0,1-42.18,34.12.1v12.2l-22.56-.07-.74,16.41a9.68,9.68,0,0,1,4.41-2.6,20.5,20.5,0,0,1,6.6-1A12.79,12.79,0,0,1,90.91,76.4q3.9,6.15,3.9,17.25a57.58,57.58,0,0,1-1.56,14.62,16.47,16.47,0,0,1-5.92,9.15c-2.9,2.23-7,3.33-12.42,3.31Q67.38,120.72,63.17,118Z"/><path d="M62.74,117.57A13.72,13.72,0,0,1,57,109.9a41.88,41.88,0,0,1-1.56-12.39l13.75,0c0,4.28.4,7.39,1.2,9.31A4.59,4.59,0,0,0,75,109.77a4.59,4.59,0,0,0,4-1.83,10.56,10.56,0,0,0,1.6-5c.22-2.13.32-5.16.32-9.07q0-6.8-1.24-10.14a4.92,4.92,0,0,0-5.08-3.36q-5,0-6.33,6.67l-12.2,0,1-42.18,34.11.1V57.08L68.7,57,68,73.43a9.64,9.64,0,0,1,4.4-2.6,20.57,20.57,0,0,1,6.61-1A12.81,12.81,0,0,1,90.48,76q3.9,6.16,3.9,17.25a57.66,57.66,0,0,1-1.56,14.63A16.51,16.51,0,0,1,86.91,117q-4.36,3.33-12.43,3.31Q67,120.29,62.74,117.57Z"/><path d="M62.32,117.15a13.73,13.73,0,0,1-5.78-7.68A41.81,41.81,0,0,1,55,97.09l13.76,0q0,6.42,1.19,9.31a4.58,4.58,0,0,0,4.68,2.9,4.55,4.55,0,0,0,4-1.82,10.56,10.56,0,0,0,1.61-5c.21-2.14.32-5.16.32-9.08q0-6.78-1.24-10.13a4.92,4.92,0,0,0-5.09-3.37q-5,0-6.33,6.68l-12.19,0,1-42.19,34.11.1v12.2l-22.56-.07L67.55,73a9.41,9.41,0,0,1,4.4-2.6,20.28,20.28,0,0,1,6.6-1,12.82,12.82,0,0,1,11.51,6.18Q94,81.7,94,92.8a57.58,57.58,0,0,1-1.56,14.62,16.53,16.53,0,0,1-5.92,9.16q-4.35,3.33-12.42,3.31Q66.53,119.86,62.32,117.15Z"/><path d="M61.9,116.72a13.7,13.7,0,0,1-5.78-7.67,41.81,41.81,0,0,1-1.56-12.38l13.76,0c0,4.27.39,7.38,1.19,9.31a4.6,4.6,0,0,0,4.67,2.9,4.59,4.59,0,0,0,4-1.82,10.46,10.46,0,0,0,1.6-5q.33-3.21.33-9.08c0-4.52-.42-7.9-1.24-10.14a4.93,4.93,0,0,0-5.09-3.36q-4.95,0-6.33,6.68l-12.2,0,1-42.18,34.12.1v12.2l-22.56-.07-.74,16.41A9.68,9.68,0,0,1,71.53,70a20.46,20.46,0,0,1,6.6-1,12.81,12.81,0,0,1,11.51,6.17q3.9,6.16,3.89,17.26A58.14,58.14,0,0,1,92,107a16.52,16.52,0,0,1-5.92,9.15q-4.35,3.33-12.43,3.31Q66.12,119.45,61.9,116.72Z"/><path d="M61.47,116.3a13.74,13.74,0,0,1-5.78-7.67,42,42,0,0,1-1.55-12.39l13.75,0q0,6.42,1.19,9.31a4.59,4.59,0,0,0,4.68,2.9,4.58,4.58,0,0,0,4-1.82,10.56,10.56,0,0,0,1.6-5q.31-3.21.32-9.07,0-6.8-1.24-10.14a4.92,4.92,0,0,0-5.09-3.36q-5,0-6.32,6.67l-12.2,0,1-42.18,34.11.1V55.81l-22.56-.06L66.7,72.16a9.5,9.5,0,0,1,4.4-2.6,20.55,20.55,0,0,1,6.6-1A12.82,12.82,0,0,1,89.21,74.7q3.9,6.15,3.9,17.25a57.52,57.52,0,0,1-1.56,14.62,16.53,16.53,0,0,1-5.91,9.16q-4.36,3.33-12.43,3.31Q65.7,119,61.47,116.3Z"/><path d="M61.05,115.88a13.73,13.73,0,0,1-5.78-7.68,41.81,41.81,0,0,1-1.56-12.38l13.76,0q0,6.42,1.19,9.31a4.59,4.59,0,0,0,4.68,2.9,4.55,4.55,0,0,0,4-1.82,10.56,10.56,0,0,0,1.61-5c.21-2.14.32-5.16.32-9.08q0-6.78-1.24-10.14A4.93,4.93,0,0,0,73,78.63q-4.95,0-6.33,6.68l-12.19,0,1-42.18,34.12.1v12.2L67,55.32l-.73,16.42a9.5,9.5,0,0,1,4.4-2.61,20.55,20.55,0,0,1,6.6-1,12.79,12.79,0,0,1,11.51,6.18q3.9,6.15,3.9,17.25a57.58,57.58,0,0,1-1.56,14.62,16.47,16.47,0,0,1-5.92,9.15q-4.35,3.35-12.42,3.32Q65.26,118.59,61.05,115.88Z"/><path d="M60.62,115.45a13.72,13.72,0,0,1-5.77-7.67,41.88,41.88,0,0,1-1.56-12.39l13.75,0q0,6.42,1.2,9.32a4.6,4.6,0,0,0,4.67,2.9,4.57,4.57,0,0,0,4-1.83,10.52,10.52,0,0,0,1.6-5c.22-2.14.32-5.17.32-9.08,0-4.53-.41-7.9-1.23-10.14a4.94,4.94,0,0,0-5.09-3.36q-5,0-6.33,6.68l-12.2,0,1-42.18,34.12.1V55L66.59,54.9l-.74,16.41a9.69,9.69,0,0,1,4.4-2.6,20.56,20.56,0,0,1,6.61-1,12.81,12.81,0,0,1,11.51,6.17Q92.26,80,92.26,91.11a57.63,57.63,0,0,1-1.56,14.62,16.51,16.51,0,0,1-5.91,9.15q-4.37,3.33-12.43,3.31Q64.85,118.18,60.62,115.45Z"/><path d="M60.2,115a13.73,13.73,0,0,1-5.78-7.68A41.81,41.81,0,0,1,52.86,95l13.76,0q0,6.42,1.19,9.31a4.59,4.59,0,0,0,4.68,2.9,4.55,4.55,0,0,0,4-1.82,10.56,10.56,0,0,0,1.61-5c.21-2.14.32-5.16.32-9.08q0-6.78-1.24-10.13a4.9,4.9,0,0,0-5.09-3.36q-5,0-6.33,6.67l-12.19,0,1-42.18,34.11.09v12.2l-22.56-.06-.73,16.41a9.5,9.5,0,0,1,4.4-2.6,20.55,20.55,0,0,1,6.6-1,12.82,12.82,0,0,1,11.51,6.18q3.9,6.15,3.9,17.25a57.58,57.58,0,0,1-1.56,14.62,16.57,16.57,0,0,1-5.91,9.16q-4.37,3.33-12.43,3.31Q64.43,117.74,60.2,115Z"/><path d="M59.78,114.61A13.72,13.72,0,0,1,54,106.93a41.81,41.81,0,0,1-1.56-12.38l13.76,0c0,4.28.39,7.38,1.19,9.31a4.59,4.59,0,0,0,4.68,2.9,4.58,4.58,0,0,0,4-1.82,10.56,10.56,0,0,0,1.61-5q.32-3.21.32-9.08c0-4.52-.42-7.9-1.24-10.14a4.93,4.93,0,0,0-5.09-3.36q-5,0-6.33,6.68l-12.2,0,1-42.18,34.12.1v12.2l-22.56-.07L65,70.46a9.68,9.68,0,0,1,4.41-2.6,20.5,20.5,0,0,1,6.6-1A12.79,12.79,0,0,1,87.52,73q3.9,6.15,3.9,17.25a57.58,57.58,0,0,1-1.56,14.62A16.52,16.52,0,0,1,83.94,114c-2.9,2.23-7,3.33-12.42,3.31C66.5,117.33,62.59,116.41,59.78,114.61Z"/><path d="M59.35,114.18a13.72,13.72,0,0,1-5.77-7.67A41.93,41.93,0,0,1,52,94.12l13.75,0c0,4.28.4,7.39,1.2,9.31a4.59,4.59,0,0,0,4.67,2.91,4.59,4.59,0,0,0,4-1.83,10.56,10.56,0,0,0,1.6-5c.22-2.13.32-5.16.32-9.07q0-6.8-1.24-10.14a4.92,4.92,0,0,0-5.08-3.36q-5,0-6.33,6.67l-12.2,0,1-42.18,34.11.1V53.69l-22.56-.06L64.58,70a9.64,9.64,0,0,1,4.4-2.6,20.57,20.57,0,0,1,6.61-1,12.81,12.81,0,0,1,11.5,6.18Q91,78.75,91,89.83a57.66,57.66,0,0,1-1.56,14.63,16.51,16.51,0,0,1-5.91,9.15q-4.36,3.33-12.43,3.31Q63.58,116.91,59.35,114.18Z"/><path d="M58.93,113.76a13.73,13.73,0,0,1-5.78-7.68A41.81,41.81,0,0,1,51.59,93.7l13.76,0q0,6.42,1.19,9.31a4.6,4.6,0,0,0,4.68,2.9,4.55,4.55,0,0,0,4-1.82,10.56,10.56,0,0,0,1.61-5c.21-2.14.32-5.16.32-9.08q0-6.78-1.24-10.13a4.92,4.92,0,0,0-5.09-3.37q-4.95,0-6.33,6.68l-12.19,0,1-42.19,34.11.1v12.2L64.89,53.2l-.73,16.42a9.41,9.41,0,0,1,4.4-2.6,20.28,20.28,0,0,1,6.6-1,12.82,12.82,0,0,1,11.51,6.18q3.9,6.15,3.9,17.25A57.58,57.58,0,0,1,89,104a16.53,16.53,0,0,1-5.92,9.16q-4.35,3.33-12.42,3.31Q63.14,116.47,58.93,113.76Z"/><path d="M58.51,113.33a13.7,13.7,0,0,1-5.78-7.67,41.81,41.81,0,0,1-1.56-12.38l13.76,0c0,4.28.39,7.39,1.19,9.32a4.6,4.6,0,0,0,4.67,2.9,4.59,4.59,0,0,0,4-1.82,10.46,10.46,0,0,0,1.6-5q.33-3.21.33-9.08c0-4.52-.42-7.9-1.24-10.14a4.93,4.93,0,0,0-5.09-3.36q-5,0-6.33,6.68l-12.2,0,1-42.18,34.12.1v12.2l-22.56-.07-.74,16.41a9.68,9.68,0,0,1,4.41-2.6,20.46,20.46,0,0,1,6.6-1,12.81,12.81,0,0,1,11.51,6.17Q90.14,77.9,90.14,89a58.14,58.14,0,0,1-1.55,14.62,16.52,16.52,0,0,1-5.92,9.15q-4.35,3.33-12.43,3.31Q62.73,116.06,58.51,113.33Z"/><path d="M58.08,112.91a13.74,13.74,0,0,1-5.78-7.67,42,42,0,0,1-1.55-12.39l13.75,0q0,6.42,1.19,9.31a4.59,4.59,0,0,0,4.68,2.9,4.58,4.58,0,0,0,4-1.82,10.56,10.56,0,0,0,1.6-5q.31-3.21.32-9.07,0-6.8-1.24-10.14A4.92,4.92,0,0,0,70,75.67q-4.95,0-6.32,6.67l-12.2,0,1-42.18,34.11.09v12.2L64,52.36l-.73,16.41a9.5,9.5,0,0,1,4.4-2.6,20.55,20.55,0,0,1,6.6-1,12.82,12.82,0,0,1,11.51,6.18q3.9,6.15,3.9,17.25a57.58,57.58,0,0,1-1.56,14.62,16.57,16.57,0,0,1-5.91,9.16q-4.36,3.33-12.43,3.31Q62.31,115.62,58.08,112.91Z"/><path d="M57.66,112.49a13.73,13.73,0,0,1-5.78-7.68,41.81,41.81,0,0,1-1.56-12.38l13.76,0c0,4.28.39,7.38,1.19,9.31a4.59,4.59,0,0,0,4.68,2.9,4.55,4.55,0,0,0,4-1.82,10.56,10.56,0,0,0,1.61-5q.31-3.21.32-9.08,0-6.78-1.24-10.14a4.93,4.93,0,0,0-5.09-3.36q-5,0-6.33,6.68l-12.19,0,1-42.18,34.12.1V52l-22.56-.07-.73,16.42a9.5,9.5,0,0,1,4.4-2.61,20.55,20.55,0,0,1,6.6-1A12.79,12.79,0,0,1,85.4,70.89Q89.3,77,89.3,88.14a57.58,57.58,0,0,1-1.56,14.62,16.47,16.47,0,0,1-5.92,9.15q-4.35,3.34-12.42,3.32Q61.87,115.2,57.66,112.49Z"/><path d="M57.23,112.06a13.72,13.72,0,0,1-5.77-7.67A41.88,41.88,0,0,1,49.9,92l13.75,0c0,4.28.4,7.39,1.2,9.31a4.59,4.59,0,0,0,4.67,2.91,4.57,4.57,0,0,0,4-1.83,10.52,10.52,0,0,0,1.6-5c.22-2.14.32-5.17.32-9.08,0-4.53-.41-7.9-1.23-10.14a4.94,4.94,0,0,0-5.09-3.36c-3.31,0-5.41,2.22-6.33,6.68l-12.2,0,1-42.18,34.12.1V51.57L63.2,51.51l-.74,16.41a9.64,9.64,0,0,1,4.4-2.6,20.56,20.56,0,0,1,6.61-1A12.81,12.81,0,0,1,85,70.46q3.88,6.17,3.89,17.25a57.66,57.66,0,0,1-1.56,14.63,16.51,16.51,0,0,1-5.91,9.15Q77,114.82,69,114.8,61.46,114.79,57.23,112.06Z"/><path d="M56.81,111.64A13.73,13.73,0,0,1,51,104a41.81,41.81,0,0,1-1.56-12.38l13.76,0q0,6.42,1.19,9.31a4.59,4.59,0,0,0,4.68,2.9,4.55,4.55,0,0,0,4-1.82,10.56,10.56,0,0,0,1.61-5c.21-2.14.32-5.16.32-9.08q0-6.78-1.24-10.13a4.9,4.9,0,0,0-5.09-3.36q-4.95,0-6.33,6.67L50.21,81l1-42.18L85.33,39v12.2l-22.56-.06L62,67.5a9.5,9.5,0,0,1,4.4-2.6,20.55,20.55,0,0,1,6.6-1A12.82,12.82,0,0,1,84.55,70q3.9,6.15,3.9,17.25a57.58,57.58,0,0,1-1.56,14.62A16.57,16.57,0,0,1,81,111.07q-4.37,3.33-12.43,3.31Q61,114.35,56.81,111.64Z"/><path d="M56.39,111.21a13.7,13.7,0,0,1-5.78-7.67,41.81,41.81,0,0,1-1.56-12.38l13.76,0c0,4.28.39,7.38,1.19,9.31a4.59,4.59,0,0,0,4.68,2.9,4.58,4.58,0,0,0,4-1.82,10.56,10.56,0,0,0,1.61-5q.32-3.21.32-9.08c0-4.52-.42-7.9-1.24-10.14A4.93,4.93,0,0,0,68.31,74Q63.36,74,62,80.65l-12.2,0,1-42.18,34.12.1v12.2l-22.56-.07-.74,16.41A9.68,9.68,0,0,1,66,64.47a20.5,20.5,0,0,1,6.6-1,12.79,12.79,0,0,1,11.51,6.18Q88,75.77,88,86.87a57.58,57.58,0,0,1-1.56,14.62,16.52,16.52,0,0,1-5.92,9.15c-2.9,2.23-7,3.33-12.42,3.31Q60.6,113.94,56.39,111.21Z"/><path d="M56,110.79a13.68,13.68,0,0,1-5.77-7.67,41.93,41.93,0,0,1-1.56-12.39l13.75,0c0,4.28.4,7.39,1.19,9.31A4.61,4.61,0,0,0,68.25,103a4.59,4.59,0,0,0,4-1.83,10.56,10.56,0,0,0,1.6-5c.22-2.13.32-5.16.32-9.07q0-6.8-1.24-10.14a4.92,4.92,0,0,0-5.08-3.36q-5,0-6.33,6.67l-12.2,0,1-42.18,34.11.1V50.3l-22.56-.06-.73,16.41a9.64,9.64,0,0,1,4.4-2.6,20.57,20.57,0,0,1,6.61-1,12.81,12.81,0,0,1,11.5,6.18q3.9,6.16,3.9,17.25A57.66,57.66,0,0,1,86,101.07a16.51,16.51,0,0,1-5.91,9.15q-4.36,3.33-12.43,3.31Q60.18,113.51,56,110.79Z"/><path d="M55.54,110.37a13.73,13.73,0,0,1-5.78-7.68A41.81,41.81,0,0,1,48.2,90.31l13.76,0q0,6.42,1.19,9.31a4.6,4.6,0,0,0,4.68,2.9,4.55,4.55,0,0,0,4-1.82,10.56,10.56,0,0,0,1.61-5c.21-2.14.32-5.16.32-9.08q0-6.78-1.24-10.13a4.92,4.92,0,0,0-5.09-3.37q-4.95,0-6.33,6.68l-12.19,0,1-42.19,34.11.1v12.2L61.5,49.81l-.73,16.42a9.41,9.41,0,0,1,4.4-2.6,20.28,20.28,0,0,1,6.6-1,12.82,12.82,0,0,1,11.51,6.18q3.9,6.15,3.9,17.25a57.58,57.58,0,0,1-1.56,14.62,16.53,16.53,0,0,1-5.92,9.16q-4.35,3.33-12.42,3.31Q59.75,113.08,55.54,110.37Z"/><path d="M55.12,109.94a13.7,13.7,0,0,1-5.78-7.67,41.81,41.81,0,0,1-1.56-12.38l13.76,0c0,4.28.39,7.39,1.19,9.32a4.6,4.6,0,0,0,4.67,2.9,4.59,4.59,0,0,0,4-1.82,10.46,10.46,0,0,0,1.6-5q.33-3.21.33-9.08c0-4.52-.42-7.9-1.24-10.14A4.93,4.93,0,0,0,67,72.7q-5,0-6.33,6.68l-12.2,0,1-42.18,34.12.1v12.2l-22.56-.07L60.34,65.8a9.69,9.69,0,0,1,4.4-2.6,20.56,20.56,0,0,1,6.61-1,12.81,12.81,0,0,1,11.51,6.17q3.89,6.16,3.89,17.26a58.14,58.14,0,0,1-1.55,14.62,16.52,16.52,0,0,1-5.92,9.15q-4.35,3.33-12.43,3.31Q59.34,112.67,55.12,109.94Z"/><path d="M54.69,109.52a13.74,13.74,0,0,1-5.78-7.67,42,42,0,0,1-1.55-12.39l13.75,0q0,6.42,1.19,9.31a4.59,4.59,0,0,0,4.68,2.9,4.58,4.58,0,0,0,4-1.82,10.56,10.56,0,0,0,1.6-5q.31-3.21.32-9.07,0-6.8-1.24-10.14a4.92,4.92,0,0,0-5.09-3.36q-4.95,0-6.32,6.67l-12.2,0,1-42.18,34.11.09V49L60.65,49l-.73,16.41a9.5,9.5,0,0,1,4.4-2.6,20.55,20.55,0,0,1,6.6-1,12.82,12.82,0,0,1,11.51,6.18q3.9,6.15,3.9,17.25a57.58,57.58,0,0,1-1.56,14.62A16.57,16.57,0,0,1,78.86,109q-4.36,3.33-12.43,3.31Q58.92,112.23,54.69,109.52Z"/><path d="M54.27,109.1a13.73,13.73,0,0,1-5.78-7.68A41.81,41.81,0,0,1,46.93,89l13.76,0c0,4.28.39,7.38,1.19,9.31a4.59,4.59,0,0,0,4.68,2.9,4.56,4.56,0,0,0,4-1.82,10.56,10.56,0,0,0,1.61-5q.31-3.21.32-9.08,0-6.78-1.24-10.14a4.93,4.93,0,0,0-5.09-3.36q-4.95,0-6.33,6.68l-12.19,0,1-42.18,34.12.1v12.2l-22.56-.07L59.5,65a9.5,9.5,0,0,1,4.4-2.61,20.55,20.55,0,0,1,6.6-1A12.79,12.79,0,0,1,82,67.5q3.9,6.15,3.9,17.25a57.58,57.58,0,0,1-1.56,14.62,16.47,16.47,0,0,1-5.92,9.15q-4.35,3.35-12.42,3.31Q58.48,111.82,54.27,109.1Z"/><path d="M53.84,108.67A13.72,13.72,0,0,1,48.07,101a41.88,41.88,0,0,1-1.56-12.39l13.75,0c0,4.28.4,7.39,1.2,9.31a4.59,4.59,0,0,0,4.67,2.91,4.57,4.57,0,0,0,4-1.83,10.52,10.52,0,0,0,1.6-5c.22-2.14.32-5.17.32-9.08,0-4.53-.41-7.9-1.23-10.14a4.94,4.94,0,0,0-5.09-3.36c-3.31,0-5.41,2.22-6.33,6.68l-12.2,0,1-42.18,34.11.1V48.18l-22.55-.06-.74,16.41a9.64,9.64,0,0,1,4.4-2.6,20.29,20.29,0,0,1,6.61-1,12.81,12.81,0,0,1,11.51,6.17q3.89,6.17,3.89,17.25A57.66,57.66,0,0,1,83.92,99,16.51,16.51,0,0,1,78,108.1q-4.37,3.33-12.43,3.31Q58.07,111.4,53.84,108.67Z"/><path d="M53.42,108.25a13.73,13.73,0,0,1-5.78-7.68,41.81,41.81,0,0,1-1.56-12.38l13.76,0q0,6.42,1.19,9.31a4.59,4.59,0,0,0,4.68,2.9,4.55,4.55,0,0,0,4-1.82,10.56,10.56,0,0,0,1.61-5c.21-2.14.32-5.16.32-9.08q0-6.78-1.24-10.13A4.9,4.9,0,0,0,65.34,71q-5,0-6.33,6.67l-12.19,0,1-42.18,34.11.09v12.2L59.38,47.7l-.73,16.41a9.5,9.5,0,0,1,4.4-2.6,20.55,20.55,0,0,1,6.6-1,12.82,12.82,0,0,1,11.51,6.18q3.9,6.15,3.9,17.25A57.58,57.58,0,0,1,83.5,98.52a16.57,16.57,0,0,1-5.91,9.16Q73.23,111,65.16,111,57.65,111,53.42,108.25Z"/></g><path class="cls-3" d="M66.37,111.1h-.11c-5.23,0-9.4-1-12.4-2.93a15,15,0,0,1-6.28-8.33A43.31,43.31,0,0,1,46,87.09V85.87l16.19,0v1.22c0,4.1.37,7.07,1.1,8.85a3.39,3.39,0,0,0,3.55,2.14h0a3.39,3.39,0,0,0,3-1.3,9.4,9.4,0,0,0,1.39-4.46c.21-2.09.31-5.11.31-9,0-4.36-.39-7.62-1.16-9.71a3.74,3.74,0,0,0-4-2.57h0c-1.7,0-4.06.6-5.11,5.71l-.2,1-14.44,0,1.07-44.62,36.52.11V47.88l-22.61-.07-.57,12.6a16.45,16.45,0,0,1,2.68-1.16,21.77,21.77,0,0,1,6.93-1.1h.07A14,14,0,0,1,83.29,64.9c2.71,4.28,4.09,10.3,4.09,17.9a59.28,59.28,0,0,1-1.6,14.94,17.85,17.85,0,0,1-6.35,9.8C76.34,109.9,71.94,111.1,66.37,111.1Zm-11.19-5c2.6,1.68,6.33,2.53,11.08,2.55q7.68,0,11.69-3.06a15.48,15.48,0,0,0,5.48-8.5A57.15,57.15,0,0,0,84.94,82.8c0-7.13-1.24-12.71-3.71-16.6a11.56,11.56,0,0,0-10.48-5.61,19.84,19.84,0,0,0-6.21,1,8.47,8.47,0,0,0-3.85,2.22l-2.32,2.81,1-21.22,22.51.07V35.68l-31.71-.1-.95,39.75,10,0c1.45-5.48,4.71-6.67,7.28-6.67h0a6.14,6.14,0,0,1,6.23,4.15C73.56,75.24,74,78.69,74,83.4c0,3.93-.11,7-.33,9.2a11.77,11.77,0,0,1-1.82,5.62,5.73,5.73,0,0,1-5,2.34h0A5.77,5.77,0,0,1,61,96.9a24.82,24.82,0,0,1-1.27-8.56l-11.33,0a38.75,38.75,0,0,0,1.5,10.8,12.39,12.39,0,0,0,5.27,7Z"/><path class="cls-3" d="M67,110.49h-.11c-5.23,0-9.4-1-12.4-2.93a15,15,0,0,1-6.28-8.33,43.31,43.31,0,0,1-1.61-12.75V85.26l16.19,0v1.22c0,4.1.37,7.07,1.1,8.85a3.39,3.39,0,0,0,3.55,2.14h0a3.39,3.39,0,0,0,3-1.3,9.4,9.4,0,0,0,1.39-4.46c.21-2.09.32-5.11.32-9,0-4.36-.4-7.62-1.17-9.71a3.74,3.74,0,0,0-4-2.57h0c-1.7,0-4.06.6-5.11,5.71l-.2,1-14.44,0,1.07-44.62,36.52.11V47.27L62.26,47.2l-.57,12.6a16.45,16.45,0,0,1,2.68-1.16,22.1,22.1,0,0,1,7-1.1A14,14,0,0,1,83.9,64.29C86.61,68.57,88,74.59,88,82.19a59.28,59.28,0,0,1-1.6,14.94,17.85,17.85,0,0,1-6.35,9.8C77,109.29,72.55,110.49,67,110.49Zm-11.19-5c2.6,1.68,6.33,2.53,11.08,2.55H67c5,0,8.92-1,11.58-3.06A15.48,15.48,0,0,0,84,96.5a57.15,57.15,0,0,0,1.51-14.31c0-7.13-1.24-12.71-3.71-16.6A11.56,11.56,0,0,0,71.36,60a19.42,19.42,0,0,0-6.21,1,8.47,8.47,0,0,0-3.85,2.22L59,66l1-21.22,22.51.07V35.07L50.73,35l-.95,39.75,10,0c1.45-5.48,4.71-6.67,7.28-6.67h0a6.14,6.14,0,0,1,6.23,4.15c.88,2.4,1.31,5.85,1.31,10.56,0,3.93-.11,7-.33,9.2a11.77,11.77,0,0,1-1.82,5.62,5.73,5.73,0,0,1-5,2.34h0a5.77,5.77,0,0,1-5.8-3.66,24.82,24.82,0,0,1-1.27-8.56L49,87.7a38.75,38.75,0,0,0,1.5,10.8,12.39,12.39,0,0,0,5.27,7Z"/><path class="cls-3" d="M67.59,109.88h-.11c-5.23,0-9.4-1-12.4-2.93a15,15,0,0,1-6.28-8.33,43.36,43.36,0,0,1-1.61-12.75V84.65l16.19,0v1.22c0,4.1.37,7.07,1.1,8.84A3.39,3.39,0,0,0,68,96.9h0a3.39,3.39,0,0,0,3-1.3,9.4,9.4,0,0,0,1.39-4.46c.21-2.09.32-5.11.32-9,0-4.36-.4-7.62-1.17-9.71a3.74,3.74,0,0,0-4-2.57h0c-1.7,0-4.06.6-5.11,5.7l-.2,1-14.44,0L49,31.92,85.48,32V46.66l-22.61-.07-.57,12.6A16.45,16.45,0,0,1,65,58a21.77,21.77,0,0,1,6.93-1.1H72a14,14,0,0,1,12.53,6.75C87.22,68,88.6,74,88.6,81.58A59.28,59.28,0,0,1,87,96.52a17.8,17.8,0,0,1-6.35,9.8C77.56,108.68,73.16,109.88,67.59,109.88Zm-11.19-5c2.6,1.68,6.33,2.53,11.08,2.55h.11c5,0,8.92-1,11.58-3.06a15.48,15.48,0,0,0,5.48-8.5,57.21,57.21,0,0,0,1.51-14.31c0-7.13-1.24-12.72-3.7-16.6A11.58,11.58,0,0,0,72,59.37a18.92,18.92,0,0,0-6.21,1,8.47,8.47,0,0,0-3.85,2.22l-2.32,2.81.95-21.22,22.51.07V34.46l-31.71-.1-1,39.75,10,0c1.45-5.48,4.71-6.67,7.28-6.67h0a6.14,6.14,0,0,1,6.23,4.15c.88,2.4,1.31,5.85,1.31,10.56,0,3.93-.11,7-.33,9.2A11.67,11.67,0,0,1,73.06,97a5.72,5.72,0,0,1-5,2.34h0a5.78,5.78,0,0,1-5.8-3.66A24.82,24.82,0,0,1,61,87.12l-11.32,0a38.41,38.41,0,0,0,1.49,10.8,12.39,12.39,0,0,0,5.27,7Z"/><path class="cls-3" d="M68.2,109.27h-.11c-5.23,0-9.4-1-12.4-2.93A15,15,0,0,1,49.41,98,43.36,43.36,0,0,1,47.8,85.26V84l16.19,0V85.3c0,4.1.37,7.07,1.1,8.84a3.39,3.39,0,0,0,3.56,2.15h0a3.39,3.39,0,0,0,3-1.3,9.4,9.4,0,0,0,1.39-4.46c.21-2.09.32-5.11.32-9,0-4.36-.4-7.62-1.17-9.71a3.74,3.74,0,0,0-4-2.57h0c-1.7,0-4.06.6-5.11,5.7l-.2,1-14.44,0,1.07-44.62,36.52.11V46.05L63.48,46l-.57,12.6a16.45,16.45,0,0,1,2.68-1.16,21.77,21.77,0,0,1,6.93-1.1h.07a14,14,0,0,1,12.53,6.75c2.71,4.28,4.09,10.3,4.09,17.9a59.28,59.28,0,0,1-1.6,14.94,17.8,17.8,0,0,1-6.35,9.8C78.17,108.07,73.77,109.27,68.2,109.27Zm-11.19-5c2.6,1.68,6.33,2.53,11.08,2.55h.11c5,0,8.92-1,11.58-3.06a15.48,15.48,0,0,0,5.48-8.5A57.21,57.21,0,0,0,86.77,81c0-7.13-1.24-12.72-3.7-16.6a11.58,11.58,0,0,0-10.49-5.61,18.7,18.7,0,0,0-6.21,1A8.47,8.47,0,0,0,62.52,62L60.2,64.76l.95-21.22,22.51.07V33.85L52,33.75,51,73.5l10,0c1.45-5.48,4.71-6.67,7.28-6.67h0A6.14,6.14,0,0,1,74.51,71c.88,2.4,1.31,5.85,1.31,10.56,0,3.93-.11,7-.33,9.2a11.67,11.67,0,0,1-1.82,5.62,5.72,5.72,0,0,1-5,2.34h0a5.78,5.78,0,0,1-5.8-3.66,24.82,24.82,0,0,1-1.27-8.56l-11.32,0a38.41,38.41,0,0,0,1.49,10.8,12.39,12.39,0,0,0,5.27,7Z"/><path class="cls-3" d="M68.81,108.66H68.7c-5.23,0-9.4-1-12.4-2.93A15,15,0,0,1,50,97.4a43.36,43.36,0,0,1-1.61-12.75V83.43l16.19,0v1.22c0,4.1.37,7.07,1.1,8.84a3.4,3.4,0,0,0,3.56,2.15h0a3.37,3.37,0,0,0,3-1.3,9.4,9.4,0,0,0,1.39-4.46c.21-2.1.32-5.11.32-9,0-4.36-.4-7.63-1.17-9.71a3.74,3.74,0,0,0-4-2.57h0c-1.69,0-4.06.6-5.11,5.7l-.2,1-14.44,0L50.18,30.7l36.52.11V45.44l-22.61-.07L63.53,58a16,16,0,0,1,2.67-1.16,21.77,21.77,0,0,1,6.93-1.1h.07a14,14,0,0,1,12.53,6.75c2.71,4.28,4.09,10.3,4.09,17.9a59.14,59.14,0,0,1-1.6,14.93,17.79,17.79,0,0,1-6.35,9.81C78.78,107.46,74.38,108.66,68.81,108.66Zm-11.19-5c2.6,1.68,6.33,2.53,11.09,2.55,5.1,0,9-1,11.68-3.06a15.47,15.47,0,0,0,5.48-8.51,57.06,57.06,0,0,0,1.51-14.3c0-7.13-1.24-12.72-3.7-16.6a11.58,11.58,0,0,0-10.49-5.61,19.88,19.88,0,0,0-6.21,1,8.47,8.47,0,0,0-3.85,2.22l-2.32,2.81.95-21.22L84.27,43V33.23l-31.71-.09-1,39.75,10,0c1.45-5.48,4.71-6.67,7.28-6.67h0a6.12,6.12,0,0,1,6.23,4.15C76,72.8,76.43,76.25,76.43,81c0,3.93-.11,7-.33,9.2a11.67,11.67,0,0,1-1.82,5.62,5.72,5.72,0,0,1-5,2.34h0a5.78,5.78,0,0,1-5.8-3.66,24.82,24.82,0,0,1-1.27-8.56l-11.32,0a38.78,38.78,0,0,0,1.49,10.8,12.39,12.39,0,0,0,5.27,7Z"/><path class="cls-3" d="M69.42,108.05h-.11c-5.23,0-9.4-1-12.4-2.93a15,15,0,0,1-6.28-8.33A43.36,43.36,0,0,1,49,84V82.82l16.19,0v1.22c0,4.1.37,7.07,1.1,8.84a3.4,3.4,0,0,0,3.56,2.15h0a3.39,3.39,0,0,0,3-1.3,9.4,9.4,0,0,0,1.39-4.46c.21-2.1.32-5.11.32-9,0-4.36-.4-7.63-1.17-9.71a3.74,3.74,0,0,0-4-2.57h0c-1.69,0-4.06.6-5.11,5.7l-.2,1-14.44,0,1.07-44.62,36.52.11V44.83L64.7,44.76l-.56,12.6a16,16,0,0,1,2.67-1.16,21.82,21.82,0,0,1,7-1.1,14,14,0,0,1,12.53,6.75c2.71,4.28,4.09,10.3,4.09,17.9a59.14,59.14,0,0,1-1.6,14.93,17.79,17.79,0,0,1-6.35,9.81C79.39,106.85,75,108.05,69.42,108.05Zm-11.19-5c2.6,1.68,6.33,2.53,11.09,2.55h.1c5,0,8.92-1,11.58-3.06a15.47,15.47,0,0,0,5.48-8.51A57.06,57.06,0,0,0,88,79.75c0-7.13-1.24-12.72-3.7-16.6A11.58,11.58,0,0,0,73.8,57.54a19.15,19.15,0,0,0-6.21,1,8.47,8.47,0,0,0-3.85,2.22l-2.32,2.81.95-21.22,22.51.07V32.62l-31.71-.09-1,39.75,10,0c1.45-5.48,4.71-6.67,7.28-6.67h0a6.12,6.12,0,0,1,6.23,4.15c.88,2.4,1.31,5.85,1.31,10.56,0,3.93-.11,7-.33,9.2a11.67,11.67,0,0,1-1.82,5.62,5.72,5.72,0,0,1-5,2.34h0a5.78,5.78,0,0,1-5.8-3.66,24.82,24.82,0,0,1-1.27-8.56l-11.32,0A38.78,38.78,0,0,0,53,96.06a12.39,12.39,0,0,0,5.27,7Z"/><path class="cls-3" d="M70,107.44h-.11c-5.23,0-9.4-1-12.4-2.93a15,15,0,0,1-6.27-8.33,43,43,0,0,1-1.62-12.75V82.21l16.19,0v1.22c0,4.1.37,7.07,1.1,8.84a3.4,3.4,0,0,0,3.56,2.15,3.46,3.46,0,0,0,3-1.3A9.4,9.4,0,0,0,74.9,88.7c.21-2.1.32-5.11.32-9,0-4.36-.4-7.63-1.17-9.71a3.74,3.74,0,0,0-4-2.57h0c-1.69,0-4.06.6-5.11,5.7l-.2,1-14.44,0L51.4,29.48l36.52.11V44.22l-22.61-.07-.56,12.6a15.72,15.72,0,0,1,2.68-1.16,21.67,21.67,0,0,1,6.92-1.1h.07A14,14,0,0,1,87,61.23C89.66,65.52,91,71.54,91,79.14a59.14,59.14,0,0,1-1.6,14.93,17.79,17.79,0,0,1-6.35,9.81C80,106.24,75.61,107.44,70,107.44Zm-11.19-5c2.6,1.68,6.33,2.53,11.09,2.55H70c5,0,8.92-1,11.58-3.06a15.47,15.47,0,0,0,5.48-8.51,57,57,0,0,0,1.52-14.3c0-7.13-1.25-12.72-3.71-16.6a11.58,11.58,0,0,0-10.49-5.61,19,19,0,0,0-6.21,1,8.47,8.47,0,0,0-3.85,2.22L62,62.93,63,41.71l22.51.07V32l-31.71-.09-1,39.75,10,0C64.26,66.22,67.52,65,70.09,65h0a6.14,6.14,0,0,1,6.23,4.16c.88,2.39,1.31,5.85,1.31,10.56,0,3.93-.11,7-.33,9.2a11.67,11.67,0,0,1-1.82,5.62,5.72,5.72,0,0,1-5,2.34h0a5.78,5.78,0,0,1-5.8-3.66,24.82,24.82,0,0,1-1.27-8.56l-11.32,0a39.15,39.15,0,0,0,1.49,10.8,12.42,12.42,0,0,0,5.27,7Z"/><path class="cls-3" d="M70.64,106.83h-.11c-5.23,0-9.4-1-12.4-2.93a15,15,0,0,1-6.27-8.33,43,43,0,0,1-1.62-12.75V81.6l16.19,0v1.22c0,4.1.37,7.07,1.1,8.84a3.4,3.4,0,0,0,3.56,2.15h0a3.37,3.37,0,0,0,3-1.3,9.4,9.4,0,0,0,1.39-4.46c.21-2.1.32-5.11.32-9,0-4.36-.4-7.63-1.17-9.71a3.74,3.74,0,0,0-4-2.57h0c-1.69,0-4.06.6-5.11,5.7l-.2,1-14.44,0L52,28.87,88.53,29V43.61l-22.61-.07-.56,12.6A15.72,15.72,0,0,1,68,55,21.67,21.67,0,0,1,75,53.88H75a14,14,0,0,1,12.53,6.74c2.71,4.29,4.09,10.31,4.09,17.91a59.14,59.14,0,0,1-1.6,14.93,17.79,17.79,0,0,1-6.35,9.81C80.61,105.63,76.21,106.83,70.64,106.83Zm-11.19-5c2.6,1.68,6.33,2.53,11.09,2.55q7.67,0,11.68-3.06a15.47,15.47,0,0,0,5.48-8.51,57,57,0,0,0,1.52-14.3c0-7.13-1.25-12.72-3.71-16.6A11.58,11.58,0,0,0,75,56.32a18.79,18.79,0,0,0-6.21,1A8.47,8.47,0,0,0,65,59.51l-2.32,2.81,1-21.22,22.51.07V31.4l-31.71-.09-1,39.75,10,0c1.45-5.48,4.71-6.68,7.28-6.68h0A6.14,6.14,0,0,1,77,68.57c.88,2.39,1.31,5.85,1.31,10.56,0,3.93-.11,7-.33,9.2A11.67,11.67,0,0,1,76.11,94a5.72,5.72,0,0,1-5,2.34h0a5.78,5.78,0,0,1-5.8-3.66A24.82,24.82,0,0,1,64,84.07L52.69,84a39.15,39.15,0,0,0,1.49,10.8,12.42,12.42,0,0,0,5.27,7Z"/><path class="cls-3" d="M71.25,106.22h-.11c-5.23,0-9.4-1-12.39-2.93A15,15,0,0,1,52.47,95a43,43,0,0,1-1.62-12.75V81L67,81v1.22c0,4.1.37,7.07,1.1,8.84a3.4,3.4,0,0,0,3.56,2.15h0a3.37,3.37,0,0,0,3-1.3,9.4,9.4,0,0,0,1.39-4.46c.21-2.1.32-5.11.32-9,0-4.36-.39-7.63-1.17-9.71a3.74,3.74,0,0,0-4-2.57h0c-1.69,0-4.06.6-5.11,5.7l-.2,1-14.43,0,1.06-44.62,36.52.11V43l-22.61-.07L66,55.53a15,15,0,0,1,2.68-1.16,21.67,21.67,0,0,1,6.92-1.1h.07A14,14,0,0,1,88.17,60c2.71,4.29,4.09,10.31,4.09,17.91a59.14,59.14,0,0,1-1.6,14.93,17.79,17.79,0,0,1-6.35,9.81C81.22,105,76.83,106.22,71.25,106.22Zm-11.19-5c2.6,1.68,6.33,2.53,11.09,2.55,5.09,0,9-1,11.68-3.06a15.47,15.47,0,0,0,5.48-8.51,56.55,56.55,0,0,0,1.52-14.3c0-7.13-1.25-12.72-3.71-16.6a11.56,11.56,0,0,0-10.49-5.61,19.64,19.64,0,0,0-6.21,1,8.47,8.47,0,0,0-3.85,2.22l-2.32,2.81,1-21.22,22.51.07V30.79L55,30.7l-1,39.75,10,0c1.45-5.48,4.71-6.68,7.28-6.68h0A6.14,6.14,0,0,1,77.56,68c.88,2.39,1.31,5.85,1.31,10.56,0,3.93-.11,7-.33,9.2a11.67,11.67,0,0,1-1.82,5.62,5.72,5.72,0,0,1-5,2.34h0A5.78,5.78,0,0,1,65.89,92a24.82,24.82,0,0,1-1.27-8.56l-11.32,0a39.15,39.15,0,0,0,1.49,10.8,12.42,12.42,0,0,0,5.27,7Z"/><path class="cls-3" d="M71.86,105.61h-.11c-5.23,0-9.4-1-12.39-2.93a15,15,0,0,1-6.28-8.33A43,43,0,0,1,51.46,81.6V80.38l16.19,0v1.22c0,4.1.37,7.07,1.1,8.84a3.4,3.4,0,0,0,3.56,2.15h0a3.37,3.37,0,0,0,3-1.3,9.4,9.4,0,0,0,1.39-4.46c.21-2.1.32-5.11.32-9,0-4.36-.39-7.63-1.17-9.71a3.74,3.74,0,0,0-3.95-2.57h0c-1.69,0-4.06.6-5.11,5.7l-.2,1-14.43,0,1.06-44.62,36.52.11V42.39l-22.61-.07-.56,12.6a15,15,0,0,1,2.68-1.16,21.72,21.72,0,0,1,7-1.1A14,14,0,0,1,88.78,59.4c2.71,4.29,4.09,10.31,4.09,17.91a59.14,59.14,0,0,1-1.6,14.93,17.79,17.79,0,0,1-6.35,9.81C81.83,104.41,77.44,105.61,71.86,105.61Zm-11.19-5c2.6,1.68,6.33,2.53,11.09,2.55h.1c5,0,8.92-1,11.58-3.06a15.47,15.47,0,0,0,5.48-8.51,56.55,56.55,0,0,0,1.52-14.3c0-7.13-1.25-12.72-3.71-16.6A11.56,11.56,0,0,0,76.24,55.1a19.19,19.19,0,0,0-6.21,1,8.47,8.47,0,0,0-3.85,2.22L63.86,61.1l1-21.22L87.32,40V30.18l-31.71-.09-1,39.75,10,0c1.45-5.48,4.71-6.68,7.28-6.68h0a6.14,6.14,0,0,1,6.23,4.16c.88,2.39,1.31,5.85,1.31,10.56,0,3.93-.11,7-.33,9.2a11.67,11.67,0,0,1-1.82,5.62,5.72,5.72,0,0,1-5,2.34h0a5.78,5.78,0,0,1-5.8-3.66,24.82,24.82,0,0,1-1.27-8.56l-11.32,0a39.15,39.15,0,0,0,1.49,10.8,12.42,12.42,0,0,0,5.27,7Z"/><path class="cls-3" d="M72.47,105h-.11c-5.23,0-9.4-1-12.39-2.93a15,15,0,0,1-6.28-8.33A43,43,0,0,1,52.07,81V79.77l16.19,0V81c0,4.1.37,7.07,1.1,8.84A3.4,3.4,0,0,0,72.92,92h0a3.37,3.37,0,0,0,3-1.3,9.4,9.4,0,0,0,1.39-4.46c.21-2.1.32-5.11.32-9,0-4.36-.39-7.63-1.17-9.72A3.73,3.73,0,0,0,72.54,65h0c-1.69,0-4.06.6-5.11,5.7l-.2,1-14.43,0L53.84,27l36.52.11V41.78l-22.61-.07-.56,12.6a15,15,0,0,1,2.68-1.16,21.67,21.67,0,0,1,6.92-1.1h.07a14,14,0,0,1,12.53,6.74c2.72,4.29,4.09,10.31,4.09,17.91a59.14,59.14,0,0,1-1.6,14.93,17.79,17.79,0,0,1-6.35,9.81C82.44,103.8,78.05,105,72.47,105Zm-11.19-5c2.6,1.68,6.33,2.53,11.09,2.55h.1c5,0,8.93-1,11.58-3.06A15.47,15.47,0,0,0,89.53,91a56.55,56.55,0,0,0,1.52-14.3c0-7.13-1.25-12.72-3.71-16.6a11.59,11.59,0,0,0-10.49-5.62,19.28,19.28,0,0,0-6.21,1,8.47,8.47,0,0,0-3.85,2.22l-2.32,2.81,1-21.22,22.51.07V29.57l-31.71-.09-.95,39.75,10,0c1.45-5.48,4.71-6.68,7.28-6.68h0a6.14,6.14,0,0,1,6.23,4.16c.88,2.39,1.31,5.85,1.31,10.56,0,3.93-.11,7-.33,9.2A11.77,11.77,0,0,1,78,92.12a5.75,5.75,0,0,1-5,2.34h0a5.79,5.79,0,0,1-5.8-3.66,24.82,24.82,0,0,1-1.27-8.56l-11.32,0A39,39,0,0,0,56,93a12.41,12.41,0,0,0,5.27,7Z"/><path class="cls-4" d="M60.62,101a13.72,13.72,0,0,1-5.77-7.67A41.81,41.81,0,0,1,53.29,81L67,81q0,6.42,1.2,9.31a4.58,4.58,0,0,0,4.67,2.9,4.59,4.59,0,0,0,4-1.82,10.56,10.56,0,0,0,1.6-5c.22-2.14.32-5.17.32-9.08q0-6.78-1.23-10.14a4.94,4.94,0,0,0-5.09-3.36q-5,0-6.33,6.68l-12.2,0,1-42.18,34.12.1v12.2l-22.56-.07L65.85,56.9a9.69,9.69,0,0,1,4.4-2.6,20.56,20.56,0,0,1,6.61-1,12.79,12.79,0,0,1,11.51,6.18q3.88,6.15,3.89,17.25A57.58,57.58,0,0,1,90.7,91.32a16.51,16.51,0,0,1-5.91,9.15q-4.37,3.33-12.43,3.31Q64.85,103.76,60.62,101Z"/></g></g></svg>