<svg xmlns="http://www.w3.org/2000/svg" viewBox="0 0 138 145"><defs><style>.cls-1{isolation:isolate;}.cls-2{opacity:0.2;mix-blend-mode:multiply;}.cls-3{fill:#652b81;}.cls-4{fill:#fff;}</style></defs><g class="cls-1"><g id="Layer_1" data-name="Layer 1"><g class="cls-2"><path d="M60.67,113.06q-4.77-6.37-4.77-17.18V70.39q0-11.69,4.24-18.09t15-6.38q9.57,0,13.81,4.56t4.34,13.64v1.24l-12.93,0q0-4.95-1-6.95c-.65-1.33-2-2-4.16-2a4.17,4.17,0,0,0-3.36,1.31,8.9,8.9,0,0,0-1.64,4.43,59.11,59.11,0,0,0-.49,8.76v7.26a7.67,7.67,0,0,1,3.67-3A14.74,14.74,0,0,1,79.35,74q8,0,11.55,5.61t3.59,15.06q0,11.86-4.43,18.35t-14.78,6.47Q65.46,119.45,60.67,113.06Zm19-6.71q1.11-3,1.11-9.43a59.62,59.62,0,0,0-.31-7,8,8,0,0,0-1.51-4,4.4,4.4,0,0,0-3.67-1.51,5.61,5.61,0,0,0-3.27,1,6.77,6.77,0,0,0-2.22,2.25V99.1q0,10.19,5.58,10.2A4.2,4.2,0,0,0,79.66,106.35Z"/><path d="M60.26,112.65q-4.77-6.37-4.77-17.18V70q0-11.69,4.24-18.09t15.05-6.38q9.57,0,13.81,4.56t4.34,13.64V65L80,64.91Q80,60,79,58c-.65-1.33-2-2-4.16-2a4.15,4.15,0,0,0-3.36,1.32,8.82,8.82,0,0,0-1.64,4.42,59.11,59.11,0,0,0-.49,8.76v7.26a7.69,7.69,0,0,1,3.68-3,14.66,14.66,0,0,1,5.88-1.09q8,0,11.55,5.61t3.59,15.06q0,11.86-4.43,18.36t-14.78,6.46Q65,119,60.26,112.65Zm19-6.71q1.11-3,1.11-9.43a59.62,59.62,0,0,0-.31-7,8,8,0,0,0-1.51-4A4.4,4.4,0,0,0,74.87,84a5.61,5.61,0,0,0-3.27,1,6.77,6.77,0,0,0-2.22,2.25V98.69q0,10.19,5.58,10.2A4.2,4.2,0,0,0,79.25,105.94Z"/><path d="M59.86,112.25q-4.78-6.39-4.78-17.19V69.57q0-11.68,4.24-18.09T74.37,45.1q9.57,0,13.81,4.56T92.52,63.3v1.24l-12.92,0q0-4.95-1-7c-.65-1.33-2-2-4.16-2a4.15,4.15,0,0,0-3.36,1.32,8.92,8.92,0,0,0-1.64,4.42A60.52,60.52,0,0,0,69,70.05v7.26a7.69,7.69,0,0,1,3.68-3,14.49,14.49,0,0,1,5.88-1.08q8,0,11.56,5.6t3.58,15.06q0,11.86-4.43,18.36t-14.78,6.46Q64.63,118.63,59.86,112.25Zm19-6.72q1.11-3,1.11-9.43a59.31,59.31,0,0,0-.31-6.94,8,8,0,0,0-1.5-4,4.44,4.44,0,0,0-3.68-1.51,5.69,5.69,0,0,0-3.27,1A6.77,6.77,0,0,0,69,86.87V98.29q0,10.17,5.58,10.19A4.2,4.2,0,0,0,78.84,105.53Z"/><path d="M59.45,111.84q-4.79-6.39-4.78-17.19V69.16q0-11.69,4.25-18.09t15-6.38q9.57,0,13.81,4.56t4.34,13.64v1.24l-12.92,0q0-5-1-7c-.65-1.33-2-2-4.16-2a4.19,4.19,0,0,0-3.36,1.32,9,9,0,0,0-1.64,4.42,60.8,60.8,0,0,0-.48,8.76V76.9a7.62,7.62,0,0,1,3.67-3.05,14.5,14.5,0,0,1,5.89-1.08c5.3,0,9.16,1.88,11.55,5.61s3.58,8.74,3.58,15.05q0,11.86-4.43,18.36t-14.78,6.46Q64.22,118.22,59.45,111.84Zm19-6.72c.74-2,1.11-5.12,1.11-9.42a59.5,59.5,0,0,0-.31-7,8,8,0,0,0-1.5-4,4.43,4.43,0,0,0-3.68-1.51,5.69,5.69,0,0,0-3.27,1,6.73,6.73,0,0,0-2.21,2.25V97.88q0,10.17,5.57,10.19A4.19,4.19,0,0,0,78.43,105.12Z"/><path d="M59,111.43Q54.26,105,54.26,94.24V68.75q0-11.69,4.25-18.09t15.05-6.37q9.56,0,13.8,4.55T91.7,62.48v1.24l-12.92,0q0-5-1-7c-.65-1.32-2-2-4.16-2a4.19,4.19,0,0,0-3.36,1.32,9,9,0,0,0-1.64,4.42,60.89,60.89,0,0,0-.48,8.76v7.26a7.55,7.55,0,0,1,3.67-3,14.34,14.34,0,0,1,5.89-1.09q8,0,11.55,5.61t3.58,15q0,11.87-4.43,18.36t-14.78,6.46Q63.82,117.81,59,111.43Zm19-6.72c.73-2,1.1-5.12,1.1-9.42a59.5,59.5,0,0,0-.31-7,7.87,7.87,0,0,0-1.5-4,4.43,4.43,0,0,0-3.68-1.52,5.69,5.69,0,0,0-3.27,1,6.83,6.83,0,0,0-2.21,2.25V97.47q0,10.17,5.57,10.19A4.19,4.19,0,0,0,78,104.71Z"/><path d="M58.63,111q-4.79-6.39-4.78-17.19V68.34q0-11.69,4.25-18.09t15.05-6.37q9.55,0,13.8,4.55t4.34,13.64v1.24l-12.92,0q0-5-1-7c-.65-1.32-2-2-4.16-2a4.23,4.23,0,0,0-3.36,1.32,9,9,0,0,0-1.64,4.42,61,61,0,0,0-.48,8.76v7.26a7.6,7.6,0,0,1,3.67-3A14.34,14.34,0,0,1,77.31,72q8,0,11.55,5.61t3.58,15.06q0,11.85-4.42,18.35t-14.79,6.46Q63.42,117.4,58.63,111Zm19-6.72q1.09-3,1.1-9.42a59.5,59.5,0,0,0-.31-6.95,7.82,7.82,0,0,0-1.5-4,4.43,4.43,0,0,0-3.68-1.52,5.69,5.69,0,0,0-3.27,1,6.92,6.92,0,0,0-2.21,2.25V97.06q0,10.17,5.57,10.19A4.19,4.19,0,0,0,77.62,104.3Z"/><path d="M58.22,110.61q-4.78-6.39-4.78-17.19V67.93q0-11.69,4.25-18.09t15-6.37q9.56,0,13.81,4.55t4.33,13.64V62.9L78,62.87c0-3.31-.32-5.62-1-6.95s-2-2-4.17-2a4.23,4.23,0,0,0-3.36,1.32,9,9,0,0,0-1.64,4.42,61,61,0,0,0-.48,8.76v7.26a7.6,7.6,0,0,1,3.67-3,14.53,14.53,0,0,1,5.89-1.09c5.31,0,9.16,1.88,11.55,5.61S92,85.89,92,92.21q0,11.87-4.42,18.35T72.82,117Q63,117,58.22,110.61Zm19-6.72q1.1-3,1.1-9.42a59.5,59.5,0,0,0-.31-7,7.82,7.82,0,0,0-1.5-4A4.43,4.43,0,0,0,72.82,82a5.69,5.69,0,0,0-3.27,1,7,7,0,0,0-2.21,2.25V96.65c0,6.79,1.86,10.18,5.57,10.2A4.21,4.21,0,0,0,77.21,103.89Z"/><path d="M57.81,110.2Q53,103.81,53,93V67.52q0-11.69,4.25-18.09t15-6.37q9.56,0,13.81,4.55t4.33,13.65v1.23l-12.92,0c0-3.31-.32-5.62-1-7s-2-2-4.16-2a4.23,4.23,0,0,0-3.37,1.32,8.87,8.87,0,0,0-1.63,4.42A59.29,59.29,0,0,0,66.93,68v7.26a7.65,7.65,0,0,1,3.67-3,14.53,14.53,0,0,1,5.89-1.09c5.31,0,9.16,1.88,11.55,5.61s3.59,8.74,3.59,15.06q0,11.86-4.43,18.35t-14.78,6.47Q62.6,116.59,57.81,110.2Zm19-6.72c.74-2,1.1-5.11,1.1-9.42a62.24,62.24,0,0,0-.3-7,7.91,7.91,0,0,0-1.51-4,4.42,4.42,0,0,0-3.67-1.52,5.77,5.77,0,0,0-3.28,1,7,7,0,0,0-2.21,2.25V96.24q0,10.19,5.58,10.2A4.2,4.2,0,0,0,76.8,103.48Z"/><path d="M57.4,109.79q-4.77-6.39-4.78-17.18V67.11q0-11.69,4.25-18.09t15.05-6.37q9.56,0,13.81,4.55t4.33,13.65v1.24l-12.92,0c0-3.31-.32-5.62-1-6.95s-2-2-4.16-2a4.23,4.23,0,0,0-3.37,1.32A9,9,0,0,0,67,58.83a59.29,59.29,0,0,0-.49,8.76v7.26a7.65,7.65,0,0,1,3.67-3,14.53,14.53,0,0,1,5.89-1.09q8,0,11.55,5.61t3.59,15.06q0,11.86-4.43,18.35T72,116.21Q62.18,116.18,57.4,109.79Zm19-6.72q1.11-3,1.11-9.42a61.81,61.81,0,0,0-.31-7,8,8,0,0,0-1.51-4A4.42,4.42,0,0,0,72,81.15a5.82,5.82,0,0,0-3.28,1,7,7,0,0,0-2.21,2.25V95.83q0,10.19,5.58,10.2A4.2,4.2,0,0,0,76.39,103.07Z"/><path d="M57,109.38Q52.22,103,52.21,92.2V66.7q0-11.69,4.25-18.09t15.05-6.37q9.55,0,13.81,4.55t4.34,13.65v1.24l-12.93,0q0-4.95-1-7t-4.16-2A4.2,4.2,0,0,0,68.23,54a9,9,0,0,0-1.63,4.42,59.35,59.35,0,0,0-.49,8.77v7.25a7.65,7.65,0,0,1,3.67-3,14.74,14.74,0,0,1,5.89-1.09q8,0,11.55,5.61T90.81,91q0,11.86-4.43,18.35T71.6,115.8Q61.78,115.77,57,109.38Zm19-6.71q1.11-3,1.11-9.43a61.81,61.81,0,0,0-.31-6.95,8,8,0,0,0-1.51-4,4.42,4.42,0,0,0-3.67-1.52,5.82,5.82,0,0,0-3.28,1A7,7,0,0,0,66.11,84V95.42q0,10.18,5.58,10.2A4.21,4.21,0,0,0,76,102.67Z"/><path d="M56.58,109q-4.77-6.39-4.78-17.18V66.29q0-11.69,4.25-18.08t15-6.38q9.57,0,13.81,4.56T89.25,60v1.24l-12.93,0q0-4.95-1-6.95c-.65-1.33-2-2-4.16-2a4.16,4.16,0,0,0-3.36,1.31A8.9,8.9,0,0,0,66.19,58a59.35,59.35,0,0,0-.49,8.77V74A7.67,7.67,0,0,1,69.37,71a14.74,14.74,0,0,1,5.89-1.09q8,0,11.55,5.61T90.4,90.57q0,11.87-4.43,18.35t-14.78,6.47Q61.37,115.36,56.58,109Zm19-6.71q1.11-3,1.11-9.43a61.94,61.94,0,0,0-.31-7,8,8,0,0,0-1.51-4,4.4,4.4,0,0,0-3.67-1.51,5.68,5.68,0,0,0-3.27,1A6.89,6.89,0,0,0,65.7,83.6V95q0,10.18,5.58,10.2A4.2,4.2,0,0,0,75.57,102.26Z"/><path d="M56.17,108.56q-4.77-6.37-4.77-17.18V65.89q0-11.69,4.24-18.09t15-6.38q9.57,0,13.81,4.56t4.34,13.64v1.24l-12.93,0q0-4.95-1-7c-.65-1.33-2-2-4.16-2a4.17,4.17,0,0,0-3.36,1.31,8.9,8.9,0,0,0-1.64,4.43,59.11,59.11,0,0,0-.49,8.76v7.26a7.67,7.67,0,0,1,3.67-3,14.74,14.74,0,0,1,5.89-1.09q8,0,11.55,5.61T90,90.16q0,11.86-4.43,18.36T70.78,115Q61,115,56.17,108.56Zm19-6.71q1.11-3,1.11-9.43a59.62,59.62,0,0,0-.31-7,8,8,0,0,0-1.51-4,4.4,4.4,0,0,0-3.67-1.51,5.61,5.61,0,0,0-3.27,1,6.77,6.77,0,0,0-2.22,2.25V94.6q0,10.19,5.58,10.2A4.2,4.2,0,0,0,75.16,101.85Z"/><path d="M55.77,108.16Q51,101.77,51,91V65.48q0-11.69,4.24-18.09T70.28,41q9.57,0,13.81,4.56t4.34,13.64v1.24l-12.92,0q0-4.95-1-6.95c-.65-1.33-2-2-4.16-2A4.15,4.15,0,0,0,67,52.78a8.82,8.82,0,0,0-1.64,4.42A60.52,60.52,0,0,0,64.88,66v7.26a7.69,7.69,0,0,1,3.68-3,14.66,14.66,0,0,1,5.88-1.09q8,0,11.56,5.61t3.58,15.06q0,11.86-4.43,18.36t-14.78,6.46Q60.55,114.54,55.77,108.16Zm19-6.72q1.11-3,1.11-9.43a59.62,59.62,0,0,0-.31-7A8,8,0,0,0,74,81a4.4,4.4,0,0,0-3.67-1.51,5.69,5.69,0,0,0-3.27,1,6.77,6.77,0,0,0-2.22,2.25V94.2q0,10.17,5.58,10.19A4.2,4.2,0,0,0,74.75,101.44Z"/><path d="M55.36,107.75q-4.78-6.39-4.78-17.19V65.07q0-11.68,4.25-18.09t15-6.38q9.57,0,13.81,4.56T88,58.8V60L75.1,60q0-4.95-1-7c-.65-1.33-2-2-4.16-2a4.15,4.15,0,0,0-3.36,1.32A8.92,8.92,0,0,0,65,56.79a60.8,60.8,0,0,0-.48,8.76v7.26a7.62,7.62,0,0,1,3.67-3A14.49,14.49,0,0,1,74,68.68q8,0,11.56,5.61t3.58,15q0,11.86-4.43,18.36T70,114.16Q60.14,114.13,55.36,107.75Zm19-6.72c.74-2,1.11-5.12,1.11-9.43a59.42,59.42,0,0,0-.31-6.94,8,8,0,0,0-1.5-4A4.43,4.43,0,0,0,70,79.11a5.69,5.69,0,0,0-3.27,1,6.73,6.73,0,0,0-2.21,2.25V93.79q0,10.17,5.57,10.19A4.19,4.19,0,0,0,74.34,101Z"/><path d="M55,107.34q-4.79-6.39-4.78-17.19V64.66q0-11.69,4.25-18.09t15-6.37q9.56,0,13.8,4.55t4.34,13.64v1.24l-12.92,0q0-5-1-7c-.65-1.33-2-2-4.16-2A4.19,4.19,0,0,0,66.19,52a9,9,0,0,0-1.64,4.42,60.89,60.89,0,0,0-.48,8.76V72.4a7.55,7.55,0,0,1,3.67-3,14.34,14.34,0,0,1,5.89-1.09q8,0,11.55,5.61t3.58,15.05q0,11.86-4.43,18.36t-14.78,6.46Q59.73,113.72,55,107.34Zm19-6.72c.74-2,1.11-5.12,1.11-9.42a59.5,59.5,0,0,0-.31-7,8,8,0,0,0-1.5-4,4.45,4.45,0,0,0-3.68-1.51,5.69,5.69,0,0,0-3.27,1A6.83,6.83,0,0,0,64.07,82V93.38q0,10.17,5.57,10.19A4.17,4.17,0,0,0,73.93,100.62Z"/><path d="M54.54,106.93q-4.78-6.39-4.78-17.19V64.25q0-11.69,4.25-18.09t15.05-6.37q9.56,0,13.8,4.55T87.2,58v1.24l-12.92,0q0-5-1-7c-.65-1.32-2-2-4.16-2a4.23,4.23,0,0,0-3.36,1.32A9,9,0,0,0,64.14,56a61,61,0,0,0-.48,8.76V72a7.55,7.55,0,0,1,3.67-3,14.34,14.34,0,0,1,5.89-1.09q8,0,11.55,5.61t3.58,15.06q0,11.85-4.42,18.35t-14.79,6.46Q59.33,113.31,54.54,106.93Zm19-6.72c.73-2,1.1-5.12,1.1-9.42a59.5,59.5,0,0,0-.31-7,7.91,7.91,0,0,0-1.5-4,4.43,4.43,0,0,0-3.68-1.52,5.69,5.69,0,0,0-3.27,1,6.83,6.83,0,0,0-2.21,2.25V93q0,10.17,5.57,10.19A4.19,4.19,0,0,0,73.53,100.21Z"/><path d="M54.13,106.52q-4.79-6.39-4.78-17.19V63.84q0-11.69,4.25-18.09t15.05-6.37q9.55,0,13.8,4.55t4.34,13.64v1.24l-12.92,0c0-3.31-.33-5.62-1-7s-2-2-4.17-2a4.23,4.23,0,0,0-3.36,1.32,9,9,0,0,0-1.64,4.42,61,61,0,0,0-.48,8.76v7.26a7.6,7.6,0,0,1,3.67-3,14.5,14.5,0,0,1,5.89-1.09q8,0,11.55,5.61t3.58,15.06q0,11.86-4.42,18.35t-14.79,6.46Q58.92,112.92,54.13,106.52Zm19-6.72q1.09-3,1.1-9.42a59.5,59.5,0,0,0-.31-6.95,7.82,7.82,0,0,0-1.5-4,4.43,4.43,0,0,0-3.68-1.52,5.69,5.69,0,0,0-3.27,1,6.92,6.92,0,0,0-2.21,2.25V92.56q0,10.18,5.57,10.19A4.19,4.19,0,0,0,73.12,99.8Z"/><path d="M53.72,106.11q-4.78-6.39-4.78-17.19V63.43q0-11.68,4.25-18.09t15-6.37q9.56,0,13.81,4.55t4.33,13.65V58.4l-12.92,0c0-3.31-.32-5.62-1-6.95s-2-2-4.16-2A4.23,4.23,0,0,0,65,50.73a9,9,0,0,0-1.64,4.42,61,61,0,0,0-.48,8.76v7.26a7.6,7.6,0,0,1,3.67-3A14.53,14.53,0,0,1,72.4,67c5.31,0,9.16,1.88,11.55,5.61s3.58,8.74,3.58,15.06q0,11.87-4.42,18.35t-14.78,6.46Q58.51,112.51,53.72,106.11Zm19-6.72q1.1-3,1.1-9.42a62.24,62.24,0,0,0-.3-7A7.91,7.91,0,0,0,72,79a4.42,4.42,0,0,0-3.67-1.52,5.77,5.77,0,0,0-3.28,1,7,7,0,0,0-2.21,2.25V92.15q0,10.18,5.58,10.2A4.2,4.2,0,0,0,72.71,99.39Z"/><path d="M53.31,105.7q-4.77-6.39-4.78-17.19V63q0-11.69,4.25-18.09t15-6.37q9.56,0,13.81,4.55T86,56.76V58L73.05,58c0-3.31-.32-5.62-1-7s-2-2-4.16-2a4.23,4.23,0,0,0-3.37,1.32,8.87,8.87,0,0,0-1.63,4.42,59.29,59.29,0,0,0-.49,8.76v7.26a7.65,7.65,0,0,1,3.67-3A14.53,14.53,0,0,1,72,66.63q8,0,11.55,5.61T87.13,87.3q0,11.86-4.43,18.35t-14.78,6.47Q58.1,112.09,53.31,105.7ZM72.3,99q1.11-3,1.11-9.42a61.81,61.81,0,0,0-.31-7,8,8,0,0,0-1.51-4,4.42,4.42,0,0,0-3.67-1.52,5.79,5.79,0,0,0-3.28,1,7,7,0,0,0-2.21,2.25V91.74q0,10.19,5.58,10.2A4.2,4.2,0,0,0,72.3,99Z"/><path d="M52.9,105.29q-4.77-6.39-4.78-17.18V62.61q0-11.69,4.25-18.09t15.05-6.37q9.56,0,13.81,4.55t4.34,13.65v1.24l-12.93,0c0-3.31-.32-5.62-1-6.95s-2-2-4.16-2a4.23,4.23,0,0,0-3.37,1.32,9,9,0,0,0-1.63,4.42A59.35,59.35,0,0,0,62,63.1v7.25a7.65,7.65,0,0,1,3.67-3,14.57,14.57,0,0,1,5.89-1.09q8,0,11.55,5.61t3.59,15.06q0,11.86-4.43,18.35t-14.78,6.47Q57.69,111.68,52.9,105.29Zm19-6.71q1.11-3,1.11-9.43a61.81,61.81,0,0,0-.31-7,8,8,0,0,0-1.51-4,4.42,4.42,0,0,0-3.67-1.52,5.82,5.82,0,0,0-3.28,1A7,7,0,0,0,62,79.91V91.33q0,10.19,5.58,10.2A4.21,4.21,0,0,0,71.89,98.58Z"/><path d="M52.49,104.88q-4.77-6.39-4.78-17.18V62.2q0-11.69,4.25-18.09T67,37.74q9.57,0,13.81,4.55t4.34,13.65v1.24l-12.93,0q0-4.95-1-7t-4.16-2a4.16,4.16,0,0,0-3.36,1.31,8.9,8.9,0,0,0-1.64,4.42,59.35,59.35,0,0,0-.49,8.77V70a7.67,7.67,0,0,1,3.67-3,14.74,14.74,0,0,1,5.89-1.09q8,0,11.55,5.61t3.59,15.06q0,11.86-4.43,18.35T67.1,111.3Q57.28,111.27,52.49,104.88Zm19-6.71q1.11-3,1.11-9.43a61.94,61.94,0,0,0-.31-6.95,8,8,0,0,0-1.51-4,4.4,4.4,0,0,0-3.67-1.51,5.68,5.68,0,0,0-3.27,1,6.89,6.89,0,0,0-2.22,2.26V90.92q0,10.18,5.58,10.2A4.2,4.2,0,0,0,71.48,98.17Z"/><path d="M52.08,104.47q-4.77-6.37-4.77-17.18V61.8q0-11.69,4.24-18.09t15-6.38q9.57,0,13.81,4.56t4.34,13.64v1.24l-12.93,0q0-4.95-1-6.95c-.65-1.33-2-2-4.16-2a4.17,4.17,0,0,0-3.36,1.31,8.9,8.9,0,0,0-1.64,4.43,59.11,59.11,0,0,0-.49,8.76v7.26a7.67,7.67,0,0,1,3.67-3.05,14.74,14.74,0,0,1,5.89-1.09q8,0,11.55,5.61T85.9,86.07q0,11.87-4.43,18.35t-14.78,6.47Q56.87,110.86,52.08,104.47Zm19-6.71q1.11-3,1.11-9.43a59.62,59.62,0,0,0-.31-7,8,8,0,0,0-1.51-4,4.4,4.4,0,0,0-3.67-1.51,5.61,5.61,0,0,0-3.27,1A6.77,6.77,0,0,0,61.2,79.1V90.51q0,10.18,5.58,10.2A4.2,4.2,0,0,0,71.07,97.76Z"/><path d="M51.67,104.06Q46.9,97.69,46.9,86.88V61.39q0-11.69,4.24-18.09t15-6.38q9.57,0,13.81,4.56t4.34,13.64v1.24l-12.92,0q0-4.95-1-7c-.65-1.33-2-2-4.16-2a4.15,4.15,0,0,0-3.36,1.32,8.82,8.82,0,0,0-1.64,4.42,59.11,59.11,0,0,0-.49,8.76v7.26a7.69,7.69,0,0,1,3.68-3A14.66,14.66,0,0,1,70.35,65q8,0,11.55,5.61t3.59,15.06q0,11.86-4.43,18.36t-14.78,6.46Q56.46,110.45,51.67,104.06Zm19-6.71q1.11-3,1.11-9.43a59.62,59.62,0,0,0-.31-7,8,8,0,0,0-1.51-4,4.4,4.4,0,0,0-3.67-1.51,5.61,5.61,0,0,0-3.27,1,6.77,6.77,0,0,0-2.22,2.25V90.11q0,10.17,5.58,10.19A4.2,4.2,0,0,0,70.66,97.35Z"/><path d="M51.27,103.66q-4.79-6.39-4.78-17.19V61q0-11.68,4.24-18.09t15.05-6.38q9.57,0,13.81,4.56t4.34,13.64V56L71,55.91Q71,51,70,49c-.65-1.33-2-2-4.16-2a4.15,4.15,0,0,0-3.36,1.32,8.92,8.92,0,0,0-1.64,4.42,60.52,60.52,0,0,0-.49,8.76v7.26a7.69,7.69,0,0,1,3.68-3,14.49,14.49,0,0,1,5.88-1.08q8,0,11.56,5.6t3.58,15.06q0,11.86-4.43,18.36t-14.78,6.46Q56,110,51.27,103.66Zm19-6.72q1.11-3,1.11-9.43a59.31,59.31,0,0,0-.31-6.94,8,8,0,0,0-1.5-4A4.44,4.44,0,0,0,65.87,75a5.69,5.69,0,0,0-3.27,1,6.77,6.77,0,0,0-2.22,2.25V89.7q0,10.17,5.58,10.19A4.2,4.2,0,0,0,70.25,96.94Z"/><path d="M50.86,103.25q-4.78-6.39-4.78-17.19V60.57q0-11.68,4.25-18.09t15-6.38q9.57,0,13.81,4.56T83.52,54.3v1.24l-12.92,0q0-4.95-1-7c-.65-1.33-2-2-4.16-2a4.19,4.19,0,0,0-3.36,1.32,9,9,0,0,0-1.64,4.42A60.89,60.89,0,0,0,60,61.05v7.26a7.62,7.62,0,0,1,3.67-3,14.5,14.5,0,0,1,5.89-1.08q8,0,11.55,5.61t3.58,15q0,11.86-4.43,18.36t-14.78,6.46Q55.64,109.63,50.86,103.25Zm19-6.72c.74-2,1.11-5.12,1.11-9.42a59.5,59.5,0,0,0-.31-7,8,8,0,0,0-1.5-4,4.43,4.43,0,0,0-3.68-1.51,5.69,5.69,0,0,0-3.27,1A6.73,6.73,0,0,0,60,77.87V89.29q0,10.17,5.57,10.19A4.19,4.19,0,0,0,69.84,96.53Z"/><path d="M50.45,102.84q-4.79-6.39-4.78-17.19V60.16q0-11.69,4.25-18.09T65,35.7q9.56,0,13.8,4.55t4.34,13.64v1.24l-12.92,0q0-5-1-7c-.65-1.32-2-2-4.16-2a4.19,4.19,0,0,0-3.36,1.32,9,9,0,0,0-1.64,4.42,61,61,0,0,0-.48,8.76V67.9a7.55,7.55,0,0,1,3.67-3,14.34,14.34,0,0,1,5.89-1.09q8,0,11.55,5.61t3.58,15.06q0,11.85-4.42,18.35t-14.79,6.46Q55.23,109.22,50.45,102.84Zm19-6.72c.73-2,1.1-5.12,1.1-9.42a59.5,59.5,0,0,0-.31-7,7.87,7.87,0,0,0-1.5-4,4.43,4.43,0,0,0-3.68-1.52,5.69,5.69,0,0,0-3.27,1,6.83,6.83,0,0,0-2.21,2.25V88.88q0,10.17,5.57,10.19A4.19,4.19,0,0,0,69.44,96.12Z"/><path d="M50,102.43Q45.26,96,45.26,85.24V59.75q0-11.69,4.25-18.09t15.05-6.37q9.56,0,13.8,4.55T82.7,53.48v1.24l-12.92,0c0-3.31-.33-5.62-1-7s-2-2-4.16-2a4.23,4.23,0,0,0-3.36,1.32,9,9,0,0,0-1.64,4.42,61,61,0,0,0-.48,8.76v7.26a7.6,7.6,0,0,1,3.67-3,14.5,14.5,0,0,1,5.89-1.09q8,0,11.55,5.61T83.85,84q0,11.85-4.42,18.35t-14.79,6.46Q54.83,108.82,50,102.43Zm19-6.72q1.09-3,1.1-9.42a59.5,59.5,0,0,0-.31-7,7.82,7.82,0,0,0-1.5-4,4.43,4.43,0,0,0-3.68-1.52,5.69,5.69,0,0,0-3.27,1,6.92,6.92,0,0,0-2.21,2.25V88.47q0,10.19,5.57,10.19A4.19,4.19,0,0,0,69,95.71Z"/><path d="M49.63,102q-4.79-6.39-4.78-17.19V59.34q0-11.69,4.25-18.09t15.05-6.37q9.55,0,13.81,4.55t4.33,13.65v1.23l-12.92,0c0-3.31-.32-5.62-1-7s-2-2-4.16-2a4.23,4.23,0,0,0-3.37,1.32,9,9,0,0,0-1.64,4.42,61,61,0,0,0-.48,8.76v7.26a7.6,7.6,0,0,1,3.67-3A14.53,14.53,0,0,1,68.31,63c5.31,0,9.16,1.88,11.55,5.61s3.58,8.74,3.58,15.06Q83.44,95.49,79,102t-14.78,6.46Q54.42,108.42,49.63,102Zm19-6.72q1.09-3,1.1-9.42a62.24,62.24,0,0,0-.3-6.95,7.91,7.91,0,0,0-1.51-4,4.42,4.42,0,0,0-3.67-1.52,5.69,5.69,0,0,0-3.28,1,7,7,0,0,0-2.21,2.25V88.06c0,6.79,1.86,10.18,5.57,10.2A4.21,4.21,0,0,0,68.62,95.3Z"/><path d="M49.22,101.61q-4.77-6.39-4.78-17.19V58.93q0-11.68,4.25-18.09t15.05-6.37q9.56,0,13.81,4.55t4.33,13.65V53.9L69,53.87c0-3.31-.32-5.62-1-6.95s-2-2-4.16-2a4.23,4.23,0,0,0-3.37,1.32,8.87,8.87,0,0,0-1.63,4.42,59.29,59.29,0,0,0-.49,8.76v7.26a7.65,7.65,0,0,1,3.67-3,14.53,14.53,0,0,1,5.89-1.09q8,0,11.55,5.61T83,83.21q0,11.87-4.43,18.35T63.83,108Q54,108,49.22,101.61Zm19-6.72c.74-2,1.1-5.11,1.1-9.42a62.24,62.24,0,0,0-.3-7,7.91,7.91,0,0,0-1.51-4A4.42,4.42,0,0,0,63.83,73a5.79,5.79,0,0,0-3.28,1,7,7,0,0,0-2.21,2.25V87.65q0,10.18,5.58,10.2A4.2,4.2,0,0,0,68.21,94.89Z"/><path d="M48.81,101.2Q44,94.81,44,84V58.52q0-11.69,4.25-18.09t15-6.37q9.56,0,13.81,4.55t4.33,13.65V53.5l-12.92,0c0-3.31-.32-5.62-1-7s-2-2-4.16-2a4.23,4.23,0,0,0-3.37,1.32,9,9,0,0,0-1.63,4.42A59.29,59.29,0,0,0,57.93,59v7.26a7.65,7.65,0,0,1,3.67-3,14.53,14.53,0,0,1,5.89-1.09q8,0,11.55,5.61T82.63,82.8q0,11.86-4.43,18.35t-14.78,6.47Q53.6,107.59,48.81,101.2Zm19-6.71q1.11-3,1.11-9.43a61.81,61.81,0,0,0-.31-7,8,8,0,0,0-1.51-4,4.42,4.42,0,0,0-3.67-1.52,5.82,5.82,0,0,0-3.28,1,7,7,0,0,0-2.21,2.25V87.24q0,10.19,5.58,10.2A4.21,4.21,0,0,0,67.8,94.49Z"/><path d="M48.4,100.79q-4.77-6.39-4.78-17.18V58.11q0-11.69,4.25-18.09t15.05-6.37q9.56,0,13.81,4.55t4.34,13.65v1.24l-12.93,0q0-4.95-1-6.95T63,44.1a4.16,4.16,0,0,0-3.36,1.31A8.9,8.9,0,0,0,58,49.83a59.35,59.35,0,0,0-.49,8.77v7.25a7.65,7.65,0,0,1,3.67-3,14.74,14.74,0,0,1,5.89-1.09q8,0,11.55,5.61t3.59,15.06q0,11.86-4.43,18.35T63,107.21Q53.19,107.18,48.4,100.79Zm19-6.71q1.11-3,1.11-9.43a61.94,61.94,0,0,0-.31-7,8,8,0,0,0-1.51-4A4.39,4.39,0,0,0,63,72.16a5.68,5.68,0,0,0-3.27,1,7,7,0,0,0-2.22,2.25V86.83Q57.52,97,63.1,97A4.21,4.21,0,0,0,67.39,94.08Z"/></g><path class="cls-3" d="M64.16,107.32h-.09c-6.91,0-12.14-2.34-15.54-6.89h0c-3.33-4.44-5-10.46-5-17.89V57.05c0-8,1.5-14.29,4.44-18.74s8.4-6.9,15.93-6.9H64c6.68,0,11.61,1.68,14.66,4.93s4.59,8.08,4.65,14.43V53.2L68,53.16V52c0-3.87-.46-5.64-.86-6.44-.16-.33-.65-1.34-3.1-1.34h0a3,3,0,0,0-2.45.91A7.62,7.62,0,0,0,60.23,49a59.81,59.81,0,0,0-.47,8.58v4.29a10.42,10.42,0,0,1,2-1.15,15.24,15.24,0,0,1,6.36-1.19c5.71,0,9.93,2.09,12.53,6.15,2.51,3.9,3.78,9.18,3.78,15.7,0,8.11-1.56,14.5-4.64,19S71.4,107.32,64.16,107.32ZM50.41,99c3,4,7.45,5.92,13.66,5.94h.1c6.5,0,11-2,13.71-6S82.1,89,82.1,81.33c0-6.06-1.14-10.91-3.39-14.43s-5.64-5.05-10.57-5.07h0a13.43,13.43,0,0,0-5.37,1,6.49,6.49,0,0,0-3.12,2.56l-2.19,3.7V57.53a60.11,60.11,0,0,1,.5-8.94,9.9,9.9,0,0,1,1.91-5,5.33,5.33,0,0,1,4.23-1.72h0c2.6,0,4.36.9,5.22,2.66a16.15,16.15,0,0,1,1.08,6.3l10.58,0v-.06c0-5.74-1.4-10.06-4-12.84s-7-4.17-13-4.19h-.11c-6.78,0-11.35,1.92-14,5.85s-4,9.92-4,17.44V82.54c0,6.91,1.53,12.45,4.55,16.49Zm13.77-1.89h0c-4.48,0-6.75-3.84-6.75-11.37V74l.15-.27a8.07,8.07,0,0,1,2.58-2.64,6.84,6.84,0,0,1,3.92-1.21h0a5.51,5.51,0,0,1,4.59,2,9.14,9.14,0,0,1,1.76,4.62,61.81,61.81,0,0,1,.32,7.09c0,4.49-.39,7.7-1.19,9.83h0A5.34,5.34,0,0,1,64.18,97.14ZM59.76,74.68V85.77c0,9,3.31,9,4.4,9h0a3,3,0,0,0,3.17-2.19c.69-1.83,1-4.87,1-9a62.46,62.46,0,0,0-.29-6.81,6.84,6.84,0,0,0-1.27-3.44,3.26,3.26,0,0,0-2.75-1.07h0a4.5,4.5,0,0,0-2.59.8A6.31,6.31,0,0,0,59.76,74.68Z"/><path class="cls-3" d="M64.75,106.73h-.09c-6.91,0-12.14-2.34-15.55-6.89h0c-3.32-4.44-5-10.46-5-17.89V56.46c0-8,1.5-14.29,4.44-18.74s8.4-6.9,15.93-6.9h.11c6.68,0,11.61,1.68,14.66,4.93s4.59,8.08,4.65,14.44v2.42l-15.27,0V51.4c0-3.87-.47-5.64-.86-6.44-.16-.33-.65-1.33-3.1-1.34h0a3.09,3.09,0,0,0-2.46.91,7.75,7.75,0,0,0-1.36,3.83,59.91,59.91,0,0,0-.47,8.58v4.29a11.2,11.2,0,0,1,2-1.15,15.32,15.32,0,0,1,6.37-1.19c5.71,0,9.93,2.09,12.53,6.16C83.77,68.94,85,74.22,85,80.74c0,8.11-1.55,14.51-4.63,19S72,106.73,64.75,106.73ZM51,98.44c3,4,7.45,5.92,13.66,5.94h.1c6.5,0,11-1.95,13.71-5.95s4.22-10.06,4.22-17.69c0-6.06-1.14-10.91-3.39-14.43s-5.64-5.05-10.57-5.06h-.06a13.42,13.42,0,0,0-5.36,1,6.49,6.49,0,0,0-3.12,2.56L58,68.5V56.94A60.11,60.11,0,0,1,58.5,48a9.9,9.9,0,0,1,1.91-5,5.52,5.52,0,0,1,4.25-1.72c2.6,0,4.36.9,5.22,2.66A16,16,0,0,1,71,50.23l10.59,0V50.2c-.05-5.74-1.4-10.06-4-12.84s-6.94-4.17-13-4.19c-6.8-.12-11.44,1.89-14.07,5.85s-4,9.93-4,17.44V82c0,6.91,1.53,12.46,4.55,16.49Zm13.77-1.89h0c-4.48,0-6.75-3.84-6.75-11.37V73.45l.15-.27a8.07,8.07,0,0,1,2.58-2.64,6.92,6.92,0,0,1,3.92-1.21h0a5.51,5.51,0,0,1,4.59,2A9.14,9.14,0,0,1,71,75.91,62.34,62.34,0,0,1,71.32,83c0,4.49-.38,7.71-1.18,9.83h0A5.34,5.34,0,0,1,64.77,96.55ZM60.35,74.1V85.18c0,9,3.31,9,4.4,9h0A3,3,0,0,0,67.94,92c.69-1.83,1-4.87,1-9a59.58,59.58,0,0,0-.3-6.81,6.74,6.74,0,0,0-1.26-3.44,3.27,3.27,0,0,0-2.75-1.07h0a4.49,4.49,0,0,0-2.6.81A6.1,6.1,0,0,0,60.35,74.1Z"/><path class="cls-3" d="M65.34,106.14h-.09c-6.91,0-12.14-2.33-15.55-6.88h0c-3.32-4.45-5-10.47-5-17.89V55.87c0-8,1.49-14.29,4.44-18.74s8.4-6.9,15.93-6.9h.1c6.68,0,11.62,1.68,14.67,4.93s4.59,8.08,4.65,14.44V52L69.21,52V50.81c0-3.87-.47-5.64-.86-6.44C68.19,44,67.7,43,65.25,43h0a3.09,3.09,0,0,0-2.46.91,7.76,7.76,0,0,0-1.36,3.84,59.65,59.65,0,0,0-.47,8.57v4.29a10.87,10.87,0,0,1,2-1.15,15,15,0,0,1,6.37-1.18c5.71,0,9.92,2.08,12.53,6.15,2.5,3.89,3.77,9.17,3.77,15.69,0,8.11-1.55,14.51-4.63,19S72.58,106.14,65.34,106.14ZM51.58,97.85c3,4,7.46,5.92,13.67,5.94h.1c6.49,0,11-2,13.71-6s4.22-10.06,4.22-17.69c0-6.06-1.14-10.91-3.39-14.43s-5.64-5-10.57-5.06a12.56,12.56,0,0,0-5.42,1,6.57,6.57,0,0,0-3.13,2.56l-2.18,3.7V56.35a60.11,60.11,0,0,1,.5-8.94,9.9,9.9,0,0,1,1.91-5,5.46,5.46,0,0,1,4.25-1.72c2.6,0,4.35.9,5.22,2.66a16,16,0,0,1,1.07,6.3l10.59,0v-.06c0-5.74-1.4-10.06-4-12.84s-6.94-4.17-13-4.19h-.11c-6.78,0-11.35,1.92-14,5.85S47,48.36,47,55.87v25.5c0,6.9,1.53,12.45,4.54,16.48ZM65.36,96h0c-4.48,0-6.75-3.84-6.75-11.37V72.86l.15-.27A8.07,8.07,0,0,1,61.32,70a6.08,6.08,0,0,1,3.93-1.21,5.54,5.54,0,0,1,4.59,2,9,9,0,0,1,1.75,4.62,59.7,59.7,0,0,1,.32,7.09c0,4.49-.38,7.71-1.18,9.84h0A5.35,5.35,0,0,1,65.36,96ZM60.94,73.51V84.59c0,9,3.31,9,4.4,9h0a3,3,0,0,0,3.17-2.19c.69-1.83,1-4.86,1-9a59.58,59.58,0,0,0-.3-6.81A6.78,6.78,0,0,0,68,72.16a3.27,3.27,0,0,0-2.75-1.07h0a4.49,4.49,0,0,0-2.6.81A6.1,6.1,0,0,0,60.94,73.51Z"/><path class="cls-3" d="M65.93,105.55h-.09c-6.91,0-12.14-2.33-15.55-6.88h0c-3.32-4.45-5-10.47-5-17.89V55.28c0-8,1.49-14.29,4.44-18.74s8.4-6.9,15.93-6.9h.1c6.68,0,11.62,1.68,14.66,4.93S85,42.65,85.07,49v2.42l-15.27,0V50.22c0-3.87-.47-5.64-.86-6.44-.16-.33-.65-1.33-3.1-1.34h0a3.09,3.09,0,0,0-2.46.91A7.76,7.76,0,0,0,62,47.19a59.81,59.81,0,0,0-.47,8.58v4.28a10.87,10.87,0,0,1,2-1.15,14.9,14.9,0,0,1,6.36-1.18c5.72,0,9.93,2.08,12.54,6.15,2.5,3.9,3.77,9.18,3.77,15.69,0,8.11-1.56,14.51-4.63,19S73.17,105.55,65.93,105.55ZM52.17,97.26c3,4,7.46,5.92,13.67,5.94h.1c6.49,0,11-2,13.71-6s4.22-10.06,4.22-17.69c0-6.06-1.14-10.91-3.4-14.42s-5.63-5.06-10.56-5.07a12.56,12.56,0,0,0-5.42,1,6.57,6.57,0,0,0-3.13,2.56l-2.18,3.7V55.77a60.17,60.17,0,0,1,.5-9,9.9,9.9,0,0,1,1.91-5,5.42,5.42,0,0,1,4.25-1.72c2.6,0,4.35.9,5.22,2.66a16,16,0,0,1,1.07,6.3l10.59,0V49c-.06-5.74-1.41-10.06-4-12.84S71.76,32,65.75,32h-.11c-6.78,0-11.35,1.92-14,5.85s-4,9.93-4,17.44v25.5c0,6.9,1.53,12.45,4.54,16.48ZM66,95.37h0c-4.48,0-6.75-3.83-6.75-11.37V72.27l.15-.27a8.07,8.07,0,0,1,2.58-2.64,6.89,6.89,0,0,1,3.91-1.21h0a5.54,5.54,0,0,1,4.59,2,9,9,0,0,1,1.75,4.62,61.93,61.93,0,0,1,.32,7.09c0,4.49-.38,7.71-1.18,9.84h0A5.35,5.35,0,0,1,66,95.37ZM61.53,72.92V84c0,9,3.31,9,4.4,9h0a3,3,0,0,0,3.17-2.18c.69-1.84,1-4.87,1-9a59.58,59.58,0,0,0-.3-6.81,6.82,6.82,0,0,0-1.26-3.44,3.27,3.27,0,0,0-2.75-1.07h0a4.49,4.49,0,0,0-2.6.81A6.1,6.1,0,0,0,61.53,72.92Z"/><path class="cls-3" d="M66.52,105h-.1c-6.9,0-12.13-2.33-15.54-6.88h0c-3.32-4.45-5-10.47-5-17.89V54.69c0-8,1.49-14.29,4.44-18.73s8.4-6.9,15.92-6.9h.11C73,29.08,78,30.73,81,34s4.6,8.08,4.66,14.44v2.43L70.39,50.8V49.63c0-3.87-.47-5.64-.86-6.44-.16-.33-.65-1.33-3.11-1.34h0a3.09,3.09,0,0,0-2.46.91,7.76,7.76,0,0,0-1.36,3.84,58.37,58.37,0,0,0-.47,8.58v4.28a10.87,10.87,0,0,1,2-1.15,14.78,14.78,0,0,1,6.36-1.18c5.71,0,9.93,2.08,12.54,6.15,2.5,3.9,3.77,9.18,3.77,15.69,0,8.11-1.56,14.51-4.63,19S73.75,105,66.52,105ZM52.76,96.67c3,4,7.45,5.93,13.67,5.94h.09c6.5,0,11-1.94,13.72-6S84.46,86.6,84.46,79c0-6.06-1.14-10.91-3.4-14.42s-5.63-5.06-10.56-5.07a12.71,12.71,0,0,0-5.42,1A6.57,6.57,0,0,0,62,63l-2.18,3.7V55.18a60.17,60.17,0,0,1,.5-9,9.9,9.9,0,0,1,1.91-5,5.37,5.37,0,0,1,4.25-1.72c2.6,0,4.35.91,5.21,2.66a16,16,0,0,1,1.08,6.3l10.59,0v-.06c-.06-5.74-1.41-10.06-4-12.84s-7-4.17-13-4.18h-.11c-6.78,0-11.35,1.91-14,5.85s-4.05,9.92-4.05,17.43v25.5c0,6.9,1.53,12.45,4.54,16.48Zm13.78-1.89h0c-4.47,0-6.74-3.83-6.74-11.37V71.68l.15-.27a8,8,0,0,1,2.58-2.64,6.89,6.89,0,0,1,3.91-1.21h0a5.56,5.56,0,0,1,4.59,2,9,9,0,0,1,1.75,4.62,61.93,61.93,0,0,1,.32,7.09c0,4.49-.38,7.71-1.18,9.84h0A5.35,5.35,0,0,1,66.54,94.78ZM62.12,72.33V83.41c0,9,3.31,9,4.4,9h0a3,3,0,0,0,3.17-2.18c.68-1.84,1-4.87,1-9a59.26,59.26,0,0,0-.3-6.8A6.91,6.91,0,0,0,69.18,71a3.34,3.34,0,0,0-2.76-1.07h0a4.56,4.56,0,0,0-2.6.81A6.1,6.1,0,0,0,62.12,72.33Z"/><path class="cls-3" d="M67.11,104.37H67c-6.9,0-12.13-2.33-15.54-6.88h0c-3.33-4.45-5-10.47-5-17.89V54.11c0-8,1.49-14.3,4.44-18.74s8.4-6.9,15.92-6.9h.11c6.68,0,11.61,1.67,14.66,4.92s4.6,8.08,4.66,14.44v2.43L71,50.21V49c0-3.87-.47-5.64-.86-6.43-.16-.33-.65-1.34-3.11-1.35h0a3.07,3.07,0,0,0-2.46.91A7.76,7.76,0,0,0,63.18,46a58.37,58.37,0,0,0-.47,8.58v4.28a10.31,10.31,0,0,1,2-1.14,14.48,14.48,0,0,1,6.36-1.19c5.71,0,9.93,2.09,12.54,6.15,2.5,3.9,3.77,9.18,3.77,15.69,0,8.11-1.56,14.51-4.63,19S74.34,104.37,67.11,104.37ZM53.35,96.08c3,4,7.45,5.93,13.67,5.94h.09c6.5,0,11-1.94,13.72-6S85.05,86,85.05,78.38c0-6.06-1.14-10.91-3.4-14.42S76,58.9,71.09,58.89a12.71,12.71,0,0,0-5.42,1,6.53,6.53,0,0,0-3.13,2.57l-2.19,3.69V54.59a59.92,59.92,0,0,1,.51-9,9.81,9.81,0,0,1,1.91-5A5.4,5.4,0,0,1,67,38.91c2.6,0,4.35.91,5.21,2.66a16,16,0,0,1,1.08,6.3l10.59,0v-.06c-.06-5.74-1.41-10.06-4-12.84s-6.95-4.17-12.95-4.18h-.11c-6.78,0-11.35,1.91-14,5.85s-4,9.92-4,17.44V79.6c0,6.9,1.53,12.45,4.54,16.48ZM67.13,94.2h0c-4.47,0-6.75-3.84-6.75-11.38V71.09l.16-.26a8.09,8.09,0,0,1,2.58-2.65A6.87,6.87,0,0,1,67,67h0a5.58,5.58,0,0,1,4.59,2,9,9,0,0,1,1.75,4.62,61.93,61.93,0,0,1,.32,7.09c0,4.49-.38,7.71-1.18,9.84h0A5.36,5.36,0,0,1,67.13,94.2ZM62.71,71.74V82.82c0,9,3.31,9,4.4,9h0a3,3,0,0,0,3.17-2.19c.68-1.84,1-4.87,1-9a59.26,59.26,0,0,0-.3-6.8,6.91,6.91,0,0,0-1.26-3.45A3.34,3.34,0,0,0,67,69.32h0a4.56,4.56,0,0,0-2.6.81A6.1,6.1,0,0,0,62.71,71.74Z"/><path class="cls-3" d="M67.7,103.79h-.1c-6.91,0-12.13-2.34-15.54-6.89h0c-3.33-4.45-5-10.47-5-17.89V53.52c0-8,1.49-14.29,4.44-18.74s8.4-6.9,15.92-6.9h.11c6.68,0,11.61,1.67,14.66,4.92s4.6,8.08,4.66,14.44v2.43l-15.28-.05V48.45c0-3.87-.46-5.63-.85-6.43-.16-.33-.65-1.34-3.11-1.35h0a3,3,0,0,0-2.45.92,7.63,7.63,0,0,0-1.37,3.83A59.81,59.81,0,0,0,63.29,54v4.29a10.72,10.72,0,0,1,2-1.15A17,17,0,0,1,71.68,56c5.71,0,9.93,2.09,12.54,6.15C86.72,66,88,71.28,88,77.79c0,8.11-1.56,14.51-4.63,19S74.93,103.79,67.7,103.79Zm-13.76-8.3c3,4,7.45,5.93,13.67,5.94h.09c6.5,0,11-2,13.72-6s4.22-10.06,4.22-17.69c0-6.05-1.14-10.91-3.4-14.42s-5.63-5.06-10.56-5.07a12.68,12.68,0,0,0-5.42,1,6.48,6.48,0,0,0-3.13,2.57l-2.19,3.69V54a60,60,0,0,1,.51-9,9.81,9.81,0,0,1,1.91-5,5.36,5.36,0,0,1,4.25-1.72c2.6,0,4.35.91,5.21,2.67a16,16,0,0,1,1.08,6.29l10.59,0v-.06c-.06-5.74-1.41-10.06-4-12.84s-7-4.16-13-4.18c-6.83-.1-11.45,1.89-14.07,5.85S49.4,46,49.4,53.52V79c0,6.91,1.53,12.45,4.54,16.48Zm13.78-1.88h0c-4.47,0-6.75-3.84-6.75-11.37V70.51l.16-.27a8.09,8.09,0,0,1,2.58-2.65,6.87,6.87,0,0,1,3.91-1.21h0a5.58,5.58,0,0,1,4.59,2A9.08,9.08,0,0,1,74,73a61.93,61.93,0,0,1,.32,7.09c0,4.49-.39,7.71-1.18,9.84h0A5.36,5.36,0,0,1,67.72,93.61ZM63.29,71.15V82.24c0,9,3.32,9,4.41,9h0a3,3,0,0,0,3.17-2.19c.68-1.84,1-4.87,1-9a59.38,59.38,0,0,0-.3-6.8,6.91,6.91,0,0,0-1.26-3.45,3.34,3.34,0,0,0-2.76-1.07h0a4.56,4.56,0,0,0-2.6.81A6.3,6.3,0,0,0,63.29,71.15Z"/><path class="cls-3" d="M68.29,103.2h-.1c-6.91,0-12.13-2.34-15.54-6.89h0c-3.33-4.45-5-10.46-5-17.89V52.93c0-8,1.49-14.29,4.44-18.74s8.4-6.9,15.92-6.9h.11c6.68,0,11.61,1.68,14.66,4.92s4.6,8.08,4.66,14.44v2.43L72.15,49V47.86c0-3.87-.46-5.63-.85-6.43-.16-.33-.65-1.34-3.11-1.35h0a3,3,0,0,0-2.45.92,7.63,7.63,0,0,0-1.37,3.83,59.81,59.81,0,0,0-.47,8.58V57.7a10.72,10.72,0,0,1,2-1.15,16.89,16.89,0,0,1,6.36-1.19c5.71,0,9.93,2.09,12.54,6.15,2.5,3.9,3.77,9.18,3.77,15.69,0,8.11-1.56,14.51-4.63,19S75.52,103.2,68.29,103.2ZM54.53,94.9c3,4,7.45,5.93,13.67,5.95h.09c6.5,0,11-1.95,13.71-5.95s4.23-10.07,4.23-17.7c0-6-1.15-10.91-3.4-14.42s-5.64-5.05-10.56-5.07a12.68,12.68,0,0,0-5.42,1,6.49,6.49,0,0,0-3.13,2.57L61.53,65V53.41a61.42,61.42,0,0,1,.5-8.94,9.82,9.82,0,0,1,1.92-5,5.3,5.3,0,0,1,4.25-1.73c2.6,0,4.35.91,5.21,2.67a16,16,0,0,1,1.08,6.29l10.59,0v-.06c-.06-5.73-1.41-10.06-4-12.84s-7-4.16-13-4.18H68c-6.78,0-11.35,1.91-14,5.85s-4,9.92-4,17.44V78.42c0,6.91,1.53,12.45,4.54,16.48ZM68.31,93h0c-4.48,0-6.75-3.84-6.75-11.37V69.92l.16-.27A8.09,8.09,0,0,1,64.27,67a6.87,6.87,0,0,1,3.91-1.21h0a5.58,5.58,0,0,1,4.59,2,9.17,9.17,0,0,1,1.75,4.62,62.06,62.06,0,0,1,.32,7.09c0,4.49-.39,7.71-1.18,9.84h0A5.36,5.36,0,0,1,68.31,93ZM63.88,70.56V81.65c0,9,3.32,9,4.41,9h0a3,3,0,0,0,3.17-2.19c.68-1.84,1-4.87,1-9a59.5,59.5,0,0,0-.3-6.8A6.91,6.91,0,0,0,71,69.21a3.34,3.34,0,0,0-2.76-1.07h0a4.54,4.54,0,0,0-2.6.81A6.15,6.15,0,0,0,63.88,70.56Z"/><path class="cls-3" d="M68.88,102.61h-.1c-6.91,0-12.13-2.34-15.54-6.89h0c-3.33-4.44-5-10.46-5-17.89V52.34c0-8,1.5-14.29,4.45-18.74s8.39-6.9,15.92-6.9h.11c6.68,0,11.61,1.68,14.66,4.92S88,39.71,88,46.06v2.43l-15.28,0V47.27c0-3.87-.46-5.63-.85-6.43-.16-.33-.66-1.34-3.11-1.34h0a3,3,0,0,0-2.45.92,7.58,7.58,0,0,0-1.37,3.83,59.81,59.81,0,0,0-.47,8.58v4.29a10.72,10.72,0,0,1,2-1.15,16.73,16.73,0,0,1,6.36-1.19c5.71,0,9.93,2.09,12.54,6.15,2.5,3.9,3.77,9.18,3.77,15.69,0,8.11-1.56,14.51-4.64,19S76.11,102.61,68.88,102.61Zm-13.76-8.3c3,4,7.45,5.93,13.67,6h.09c6.5,0,11-2,13.71-6s4.23-10.07,4.23-17.7c0-6-1.15-10.91-3.4-14.42s-5.64-5-10.57-5.07a12.67,12.67,0,0,0-5.41,1,6.49,6.49,0,0,0-3.13,2.57l-2.19,3.69V52.82a61.42,61.42,0,0,1,.5-8.94,9.86,9.86,0,0,1,1.92-5,5.25,5.25,0,0,1,4.25-1.73c2.6,0,4.35.91,5.21,2.67a16,16,0,0,1,1.08,6.29l10.59,0v-.06c-.06-5.73-1.41-10.06-4-12.84s-7-4.16-13-4.18h-.1c-6.79,0-11.35,1.91-14,5.85s-4.05,9.92-4.05,17.44V77.83c0,6.91,1.52,12.45,4.54,16.48Zm13.77-1.88h0c-4.48,0-6.75-3.84-6.75-11.37V69.33l.16-.27a8,8,0,0,1,2.58-2.65,6.12,6.12,0,0,1,3.93-1.21,5.58,5.58,0,0,1,4.59,2,9.26,9.26,0,0,1,1.75,4.62,62.13,62.13,0,0,1,.32,7.1c0,4.48-.39,7.7-1.18,9.83h0A5.34,5.34,0,0,1,68.89,92.43ZM64.47,70V81.06c0,9,3.32,9,4.41,9h0a3,3,0,0,0,3.17-2.19c.69-1.84,1-4.87,1-9a59.58,59.58,0,0,0-.3-6.81,6.91,6.91,0,0,0-1.26-3.45,3.3,3.3,0,0,0-2.76-1.06h0a4.52,4.52,0,0,0-2.6.81A6.15,6.15,0,0,0,64.47,70Z"/><path class="cls-3" d="M69.46,102h-.09c-6.91,0-12.14-2.34-15.54-6.89h0c-3.33-4.44-5-10.46-5-17.89V51.75c0-8,1.5-14.29,4.45-18.74s8.39-6.9,15.92-6.9h.11C76,26.13,80.9,27.79,84,31s4.59,8.08,4.66,14.43V47.9l-15.28,0V46.69c0-3.88-.46-5.64-.85-6.44-.16-.33-.66-1.34-3.11-1.34h0a3,3,0,0,0-2.45.92,7.62,7.62,0,0,0-1.37,3.83,59.81,59.81,0,0,0-.47,8.58v4.29a10.42,10.42,0,0,1,2-1.15,16.58,16.58,0,0,1,6.36-1.19c5.71,0,9.93,2.09,12.54,6.15,2.5,3.9,3.77,9.18,3.77,15.7,0,8.1-1.56,14.5-4.64,19S76.7,102,69.46,102Zm-13.75-8.3c3,4,7.45,5.93,13.67,6h.09c6.5,0,11-2,13.71-6S87.41,83.65,87.41,76c0-6.06-1.15-10.91-3.4-14.43s-5.64-5.05-10.57-5.07a12.67,12.67,0,0,0-5.41,1,6.49,6.49,0,0,0-3.13,2.57l-2.19,3.7V52.23a60,60,0,0,1,.5-8.94,9.86,9.86,0,0,1,1.91-5,5.3,5.3,0,0,1,4.23-1.72h0c2.59,0,4.35.9,5.21,2.66a16,16,0,0,1,1.08,6.29l10.58,0v-.06c0-5.73-1.4-10.06-4-12.84s-6.95-4.16-13-4.18h-.11c-6.78,0-11.34,1.91-14,5.85s-4.06,9.92-4.06,17.44V77.24c0,6.91,1.53,12.45,4.55,16.48Zm13.77-1.88h0c-4.48,0-6.75-3.84-6.75-11.37V68.74l.16-.27a8.05,8.05,0,0,1,2.57-2.65,6.92,6.92,0,0,1,3.92-1.21h0a5.58,5.58,0,0,1,4.59,2,9.3,9.3,0,0,1,1.75,4.62,62.13,62.13,0,0,1,.32,7.1c0,4.49-.39,7.7-1.18,9.83h0A5.34,5.34,0,0,1,69.48,91.84ZM65.06,69.38V80.47c0,9,3.32,9,4.4,9h0a3,3,0,0,0,3.17-2.19c.69-1.84,1-4.87,1-9a59.58,59.58,0,0,0-.3-6.81A6.75,6.75,0,0,0,72.12,68,3.25,3.25,0,0,0,69.37,67h0a4.52,4.52,0,0,0-2.6.81A6,6,0,0,0,65.06,69.38Z"/><path class="cls-3" d="M70.05,101.43H70c-6.91,0-12.14-2.34-15.54-6.89h0c-3.33-4.44-5-10.46-5-17.89V51.16c0-8,1.5-14.29,4.45-18.74s8.39-6.9,15.92-6.9h.11c6.68,0,11.61,1.68,14.66,4.93s4.59,8.08,4.65,14.43v2.43l-15.27,0V46.1c0-3.87-.46-5.64-.85-6.44-.17-.33-.66-1.34-3.11-1.34h0a3,3,0,0,0-2.45.91,7.62,7.62,0,0,0-1.37,3.83,59.81,59.81,0,0,0-.47,8.58v4.29a10.42,10.42,0,0,1,2-1.15A16.58,16.58,0,0,1,74,53.59c5.71,0,9.93,2.09,12.53,6.15,2.51,3.9,3.78,9.18,3.78,15.7,0,8.11-1.56,14.5-4.64,19S77.29,101.43,70.05,101.43ZM56.3,93.13c3,4,7.45,5.93,13.66,6h.1c6.5,0,11-2,13.71-6S88,83.06,88,75.44c0-6.06-1.15-10.91-3.4-14.43S79,56,74,55.94a12.74,12.74,0,0,0-5.42,1,6.51,6.51,0,0,0-3.12,2.57L63.3,63.2V51.64a60.11,60.11,0,0,1,.5-8.94,9.9,9.9,0,0,1,1.91-5A5.33,5.33,0,0,1,69.94,36h0c2.6,0,4.36.9,5.22,2.66a16,16,0,0,1,1.08,6.29l10.58,0v-.07c0-5.73-1.4-10-4-12.83s-7-4.17-13-4.19h-.11c-6.78,0-11.34,1.91-14,5.85s-4.06,9.92-4.06,17.44V76.65c0,6.91,1.53,12.45,4.55,16.48Zm13.77-1.88h0c-4.48,0-6.75-3.84-6.75-11.37V68.15l.16-.27A7.94,7.94,0,0,1,66,65.24,6.84,6.84,0,0,1,70,64h0a5.53,5.53,0,0,1,4.6,2,9.22,9.22,0,0,1,1.75,4.61,62.13,62.13,0,0,1,.32,7.1c0,4.49-.39,7.7-1.18,9.83h0A5.35,5.35,0,0,1,70.07,91.25ZM65.65,68.79V79.88c0,9.07,3.45,8.94,4.42,9a3,3,0,0,0,3.17-2.19c.69-1.83,1-4.87,1-9a62,62,0,0,0-.3-6.81,6.84,6.84,0,0,0-1.27-3.44A3.25,3.25,0,0,0,70,66.38h0a4.51,4.51,0,0,0-2.6.8A6,6,0,0,0,65.65,68.79Z"/><path class="cls-4" d="M55.36,93.84q-4.78-6.39-4.78-17.19V51.16q0-11.69,4.25-18.09t15-6.37q9.57,0,13.81,4.55T88,44.89v1.24l-12.92,0c0-3.31-.33-5.62-1-7s-2-2-4.16-2a4.21,4.21,0,0,0-3.36,1.32A9,9,0,0,0,65,42.88a61,61,0,0,0-.48,8.76V58.9a7.6,7.6,0,0,1,3.67-3A14.49,14.49,0,0,1,74,54.77q8,0,11.56,5.61t3.58,15.06q0,11.85-4.43,18.35T70,100.25Q60.14,100.23,55.36,93.84Zm19-6.72q1.11-3,1.11-9.42a59.5,59.5,0,0,0-.31-7,8,8,0,0,0-1.5-4A4.43,4.43,0,0,0,70,65.2a5.69,5.69,0,0,0-3.27,1,6.92,6.92,0,0,0-2.21,2.25V79.88q0,10.19,5.57,10.19A4.18,4.18,0,0,0,74.34,87.12Z"/></g></g></svg>