<svg xmlns="http://www.w3.org/2000/svg" viewBox="0 0 138 145"><defs><style>.cls-1{isolation:isolate;}.cls-2{opacity:0.2;mix-blend-mode:multiply;}.cls-3{fill:#652b81;}.cls-4{fill:#fff;}</style></defs><g class="cls-1"><g id="Layer_1" data-name="Layer 1"><g class="cls-2"><path d="M79.15,63.26l-19.47,0V52.76l32.84.1V61.8L77.38,124.51l-13.28,0Z"/><path d="M78.74,62.86,59.27,62.8V52.35l32.84.1v8.94L77,124.1l-13.28,0Z"/><path d="M78.33,62.45l-19.47-.06V51.94L91.7,52V61L76.56,123.69l-13.27,0Z"/><path d="M77.92,62,58.45,62V51.54l32.84.09v8.94L76.16,123.29l-13.28,0Z"/><path d="M77.52,61.63,58,61.57V51.13l32.84.09v8.94L75.75,122.88l-13.28,0Z"/><path d="M77.11,61.22l-19.48-.06V50.72l32.84.09v8.94L75.34,122.47l-13.28,0Z"/><path d="M76.7,60.81l-19.48-.06V50.31l32.84.09v8.94L74.93,122.06l-13.28,0Z"/><path d="M76.29,60.4l-19.47-.06V49.9L89.66,50v8.95L74.52,121.65l-13.28,0Z"/><path d="M75.88,60l-19.47-.05V49.49l32.84.1v8.94L74.11,121.24l-13.28,0Z"/><path d="M75.47,59.58,56,59.53V49.08l32.84.1v8.94L73.7,120.83l-13.28,0Z"/><path d="M75.06,59.17l-19.47-.05V48.67l32.84.1v8.94L73.29,120.42l-13.28,0Z"/><path d="M74.65,58.76l-19.47,0V48.26l32.84.1V57.3L72.88,120,59.6,120Z"/><path d="M74.24,58.36,54.77,58.3V47.85l32.84.1v8.94L72.47,119.6l-13.28,0Z"/><path d="M73.83,58l-19.47-.06V47.45l32.84.09v8.94L72.06,119.2l-13.27,0Z"/><path d="M73.43,57.54,54,57.48V47l32.84.09v8.94L71.66,118.79l-13.28,0Z"/><path d="M73,57.13l-19.48-.06V46.63l32.84.09v8.94L71.25,118.38l-13.28,0Z"/><path d="M72.61,56.72l-19.48-.06V46.22L86,46.31v8.94L70.84,118l-13.28,0Z"/><path d="M72.2,56.31l-19.48-.06V45.81l32.84.09v8.94L70.43,117.56l-13.28,0Z"/><path d="M71.79,55.9l-19.47-.06V45.4l32.84.1v8.94L70,117.15l-13.28,0Z"/><path d="M71.38,55.49l-19.47-.05V45l32.84.1V54L69.61,116.74l-13.28,0Z"/><path d="M71,55.08,51.5,55V44.58l32.84.1v8.94L69.2,116.33l-13.28,0Z"/><path d="M70.56,54.67l-19.47-.05V44.17l32.84.1v8.94L68.79,115.92l-13.28,0Z"/><path d="M70.15,54.27l-19.47-.06V43.76l32.84.1V52.8L68.38,115.51l-13.28,0Z"/><path d="M69.74,53.86,50.27,53.8V43.36l32.84.09v8.94L68,115.11l-13.27,0Z"/><path d="M69.34,53.45l-19.48-.06V43L82.7,43V52L67.57,114.7l-13.28,0Z"/><path d="M68.93,53,49.45,53V42.54l32.84.09v8.94L67.16,114.29l-13.28,0Z"/><path d="M68.52,52.63,49,52.57V42.13l32.84.09v8.94L66.75,113.88l-13.28,0Z"/><path d="M68.11,52.22l-19.48-.06V41.72l32.84.09v8.94L66.34,113.47l-13.28,0Z"/><path d="M67.7,51.81l-19.47-.06V41.31l32.84.1v8.94L65.93,113.06l-13.28,0Z"/><path d="M67.29,51.4l-19.47,0V40.9l32.84.1v8.94L65.52,112.65l-13.28,0Z"/><path d="M66.88,51l-19.47-.05V40.49l32.84.1v8.94L65.11,112.24l-13.28,0Z"/></g><path class="cls-3" d="M67.1,112.36l-15.7,0L66.45,51.1l-19.16-.05V38.25l35.2.1,0,10.39ZM54.39,110l10.86,0L80.13,48.32V40.7l-30.48-.09V48.7l19.79.06Z"/><path class="cls-3" d="M67.69,111.77l-15.7,0L67,50.51l-19.16,0V37.66l35.19.1,0,10.39ZM55,109.38l10.86,0L80.72,47.74V40.11L50.23,40v8.09l19.8.06Z"/><path class="cls-3" d="M68.28,111.18l-15.7-.05,15-61.21-19.15-.05V37.07l35.19.1,0,10.39Zm-12.71-2.39,10.86,0L81.31,47.15V39.52l-30.49-.09v8.09l19.8.06Z"/><path class="cls-3" d="M68.87,110.59l-15.71,0,15-61.21-19.15,0V36.48l35.19.11,0,10.38ZM56.16,108.2l10.86,0L81.9,46.56V38.93l-30.49-.09v8.09l19.8.06Z"/><path class="cls-3" d="M69.45,110l-15.7,0,15-61.21-19.15-.05V35.89L84.84,36l0,10.38Zm-12.7-2.39,10.86,0L82.49,46V38.34L52,38.25v8.1l19.8,0Z"/><path class="cls-3" d="M70,109.41l-15.7,0,15-61.21L50.24,48.1V35.31l35.19.1,0,10.38ZM57.34,107l10.85,0L83.08,45.38V37.75l-30.49-.09v8.1l19.8.05Z"/><path class="cls-3" d="M70.63,108.82l-15.7,0L70,47.57l-19.15-.06V34.72l35.19.1,0,10.39Zm-12.7-2.38,10.85,0L83.67,44.79V37.16l-30.49-.09v8.1l19.8.06Z"/><path class="cls-3" d="M71.22,108.23l-15.7,0L70.57,47l-19.15-.06V34.13l35.19.1,0,10.39Zm-12.7-2.38,10.85,0L84.26,44.2V36.57l-30.49-.09v8.1l19.8.06Z"/><path class="cls-3" d="M71.81,107.64l-15.7,0,15-61.21L52,46.33V33.54l35.19.1,0,10.39Zm-12.7-2.38,10.85,0L84.85,43.61V36l-30.49-.09V44l19.79.06Z"/><path class="cls-3" d="M72.4,107.06l-15.7,0,15-61.21L52.6,45.74V33l35.19.1,0,10.39Zm-12.71-2.39,10.86,0L85.44,43V35.39L55,35.31V43.4l19.79.06Z"/><path class="cls-3" d="M73,106.47l-15.7,0L72.34,45.21l-19.15-.06V32.36l35.19.1,0,10.39Zm-12.71-2.39,10.86,0L86,42.43V34.8l-30.49-.08v8.09l19.79.06Z"/><path class="cls-4" d="M73.83,44,54.36,44V33.54l32.84.09v8.94L72.06,105.29l-13.27,0Z"/></g></g></svg>