<svg id="Layer_1" data-name="Layer 1" xmlns="http://www.w3.org/2000/svg" viewBox="0 0 138 145"><defs><style>.cls-1{fill:#4dbfbb;}</style></defs><path class="cls-1" d="M37.51,84.52A12.76,12.76,0,0,1,29,81.16a12.08,12.08,0,0,1-4.11-9q-.08-9.7,0-19.39A12.54,12.54,0,0,1,37.15,40.41q19.24-.1,38.48,0A12.5,12.5,0,0,1,87.88,52.6q.12,9.84,0,19.68A12.55,12.55,0,0,1,75.61,84.47c-6.73.06-13.45,0-20.18,0a2,2,0,0,0-1.53.65c-3.54,3.56-7.1,7.1-10.63,10.66-1.09,1.1-2.31,1.67-3.81,1a3.27,3.27,0,0,1-2-3.42c0-2.63,0-5.25,0-7.88Zm6.3,1.76c.39-.36.62-.56.85-.79,2-2,4-4,6-6a4.2,4.2,0,0,1,3.23-1.34c7,0,14,0,21,0,4.25,0,6.79-2.55,6.8-6.8V53.47c0-4.25-2.54-6.78-6.81-6.78H53.66c-5.38,0-10.76,0-16.14,0a6.1,6.1,0,0,0-6.29,6q-.09,9.74,0,19.48a5.94,5.94,0,0,0,5,5.84,26.82,26.82,0,0,0,4,.16c2.27,0,3.52,1.26,3.53,3.54Z"/><path class="cls-1" d="M52.19,91.3c1.16-1.15,2.28-2.3,3.44-3.4a1.38,1.38,0,0,1,1.95.23A6.3,6.3,0,0,0,63,90.79c7.09,0,14.17,0,21.26,0A4,4,0,0,1,87.33,92c2.2,2.25,4.44,4.46,6.78,6.81,0-.37.09-.6.09-.83,0-1.38,0-2.76,0-4.14a3.1,3.1,0,0,1,3.07-3.08c1.12,0,2.24,0,3.35,0a6.15,6.15,0,0,0,6.15-6.14q.08-9.6,0-19.19a6.15,6.15,0,0,0-6.23-6.17c-3.12,0-6.23,0-9.43,0V53h1.52c2.62,0,5.25,0,7.87,0a12.61,12.61,0,0,1,12.58,12.6q0,9.3,0,18.6a12.63,12.63,0,0,1-12.19,12.9l-.41.06v1c0,2.69,0,5.38,0,8.07a3.18,3.18,0,0,1-5.58,2.3q-5.4-5.39-10.77-10.8a2.1,2.1,0,0,0-1.63-.68q-9.89,0-19.78,0a12.37,12.37,0,0,1-10-4.91C52.59,91.92,52.42,91.64,52.19,91.3Z"/></svg>