<svg id="Layer_1" data-name="Layer 1" xmlns="http://www.w3.org/2000/svg" viewBox="0 0 138 145"><defs><style>.cls-1{fill:#4dbfbb;}</style></defs><path class="cls-1" d="M97.56,37.46a20.73,20.73,0,0,1,3.25,1,10.65,10.65,0,0,1,6.47,10.13c.06,6.6,0,13.21,0,19.82,0,4.55,0,9.09,0,13.64a2.73,2.73,0,0,1-4.13,2.48,2.69,2.69,0,0,1-1.34-2.19c0-.28,0-.55,0-.83V48.79a5.45,5.45,0,0,0-4.08-5.63A6.6,6.6,0,0,0,96,43H48.44a5.53,5.53,0,0,0-5.88,5.88V96.28a5.53,5.53,0,0,0,5.92,5.91q16.38,0,32.78,0a3,3,0,0,1,2.36.86,2.74,2.74,0,0,1-1.69,4.61,4.87,4.87,0,0,1-.54,0c-11.09,0-22.18,0-33.26,0a10.92,10.92,0,0,1-10.46-7.44c-.26-.74-.4-1.53-.6-2.3V47.19a1.25,1.25,0,0,0,.12-.3,10.66,10.66,0,0,1,6.2-8.35,23.44,23.44,0,0,1,3.42-1.08Z"/><path class="cls-1" d="M107.3,99.73a8.24,8.24,0,0,1-13.72,5.83c-.23-.19-.44-.4-.65-.61-4.78-4.79-9.57-9.56-14.32-14.38a4.89,4.89,0,0,1-1.16-2c-1-3.42-1.93-6.85-2.87-10.29-.5-1.79.21-3.3,1.82-3.69a3.71,3.71,0,0,1,1.81.09q5.13,1.48,10.21,3.1a4.22,4.22,0,0,1,1.67,1c4.91,4.88,9.79,9.8,14.69,14.7A8.45,8.45,0,0,1,107.3,99.73ZM92.68,96.87,96.58,93c-2.34-2.32-4.82-4.57-7-7a12.23,12.23,0,0,0-7.15-4.26,12.49,12.49,0,0,1-1.29-.37c.51,1.84,1,3.56,1.47,5.27a1.38,1.38,0,0,0,.3.51Q87.78,92,92.68,96.87Zm7.87.21-3.87,3.83c1.31,1.5,3,1.71,4.28.51S102.06,98.47,100.55,97.08Z"/><path class="cls-1" d="M72.15,55.7q-9.15,0-18.31,0A2.77,2.77,0,0,1,51,54a2.72,2.72,0,0,1,2.23-3.8c.2,0,.41,0,.62,0H90.49A2.84,2.84,0,0,1,93.42,52a2.73,2.73,0,0,1-2.48,3.65c-1,0-1.92,0-2.88,0Z"/><path class="cls-1" d="M72.16,66.67H53.78a2.76,2.76,0,0,1-2.72-1.59,2.72,2.72,0,0,1,2.19-3.87,3.33,3.33,0,0,1,.55,0H90.55a2.81,2.81,0,0,1,2.84,1.74A2.74,2.74,0,0,1,91,66.66c-.66,0-1.33,0-2,0Z"/><path class="cls-1" d="M59.77,77.64c-2.08,0-4.16,0-6.24,0a2.72,2.72,0,0,1-1.15-5.19,3.35,3.35,0,0,1,1.32-.27q6.15,0,12.28,0a2.75,2.75,0,1,1,0,5.48c-2.06,0-4.11,0-6.17,0Z"/></svg>