<svg id="Layer_1" data-name="Layer 1" xmlns="http://www.w3.org/2000/svg" viewBox="0 0 138 145"><defs><style>.cls-1{fill:#4dbfbb;}</style></defs><path class="cls-1" d="M52.41,115c-.59-.56-1.41-1-1.75-1.7A2.53,2.53,0,0,1,53,109.73c1.45,0,2.9,0,4.4,0v-6H56.35c-6.15,0-12.31,0-18.47,0a7,7,0,0,1-7.27-6,9.12,9.12,0,0,1-.08-1.48q0-20.65,0-41.32c0-4.55,3-7.5,7.5-7.5q20.49,0,41,0a2.52,2.52,0,0,0,1.74-.62l24.05-19.67a6.89,6.89,0,0,1,7.91-1.05,6.81,6.81,0,0,1,4,6.67,7.28,7.28,0,0,1-1.86,4.52c-3.5,4.27-7,8.55-10.47,12.81a2.61,2.61,0,0,0-.65,1.81q0,22.18,0,44.38a7,7,0,0,1-5.34,7.19,9.56,9.56,0,0,1-2.33.24c-6,0-12.09,0-18.13,0H76.8v6c1.45,0,2.9,0,4.34,0a2.62,2.62,0,0,1,1.64,4.66,10.1,10.1,0,0,1-1,.59ZM83.26,69.11v1.21a10.91,10.91,0,0,1-9.09,11.11,40.19,40.19,0,0,1-5.4.28c-2.47.11-4.86.46-6.92,2a2.53,2.53,0,0,1-3.29-.31,2.57,2.57,0,0,1-.27-3.36A8.16,8.16,0,0,0,60,75.93c.19-2,.23-4,.3-6a11,11,0,0,1,9.54-11A25.25,25.25,0,0,1,73,58.69a11.32,11.32,0,0,1,1.49-6l-.72,0H38c-1.59,0-2.21.64-2.21,2.25V89.15h62.6V57.43c-.38.45-.64.75-.89,1.06C95.66,60.72,93.85,63,92,65.19a10.16,10.16,0,0,1-5.54,3.46C85.45,68.89,84.39,69,83.26,69.11ZM35.78,94.51v1.26c0,2.26.45,2.7,2.72,2.7H95.75a8.48,8.48,0,0,0,1.13,0A1.62,1.62,0,0,0,98.38,97a22,22,0,0,0,0-2.44ZM95,53.2l.49-.54,10.84-13.29,4.59-5.62a1.84,1.84,0,0,0,.31-2.12,1.61,1.61,0,0,0-1.68-1,3.35,3.35,0,0,0-1.54.71q-6.63,5.37-13.22,10.78l-6,4.92,5.55,5.55C94.52,52.78,94.73,53,95,53.2ZM65.37,76.62c2.17-.05,4.41-.07,6.64-.18a5.88,5.88,0,0,0,4.45-1.89,6.39,6.39,0,0,0-8-9.75A5.82,5.82,0,0,0,65.55,70C65.46,72.24,65.43,74.45,65.37,76.62ZM91.58,57.46l-7-7C83,51.74,81.27,53,79.76,54.49a5.49,5.49,0,0,0,7.76,7.76C89,60.74,90.27,59,91.58,57.46ZM71.44,109.69v-5.9H62.78v5.9Z"/></svg>