<svg xmlns="http://www.w3.org/2000/svg" viewBox="0 0 500 452.68"><defs><style>.cls-1{fill:#e0e0e0;}.cls-2{fill:#fff;}.cls-3{fill:#ebebeb;}.cls-4{fill:#f5f5f5;}.cls-5{fill:#263238;}.cls-6{fill:#652b81;}.cls-7{opacity:0.3;}</style></defs><g id="Background_Complete" data-name="Background Complete"><path class="cls-1" d="M51.37,280.74l6,2.85s2.4-5,7.68-2.64a5.37,5.37,0,0,1,3.24,5.33A6,6,0,0,1,65.55,291c-1.81,1.19-4.77,1.66-8.48-1l-4.19,8.81,5.95,2.82,1.52-3.2A12.84,12.84,0,0,0,74.06,291c4.17-8.78-2.75-14.56-6.12-16.16C65.36,273.63,56.28,270.09,51.37,280.74Z"/><rect class="cls-1" x="50.12" y="302.2" width="6.67" height="6.23" transform="translate(136.04 6.56) rotate(25.38)"/><path class="cls-1" d="M109.71,378.22l6.79,1.92s1.61-5.7,7.56-4.12a5.69,5.69,0,0,1,4.32,5,6.31,6.31,0,0,1-2,5.36c-1.69,1.58-4.7,2.59-9,.49l-2.81,10,6.71,1.89,1-3.62s10.1.23,13-10.14c2.81-9.92-5.44-14.74-9.25-15.82C123.09,368.32,113,366.21,109.71,378.22Z"/><rect class="cls-1" x="112.7" y="400.24" width="7.08" height="6.61" transform="translate(114.22 -16.4) rotate(15.79)"/><path class="cls-2" d="M394.3,164.14l6.51.12a23,23,0,1,0-4.31-7.06h0Z"/><path class="cls-1" d="M394.3,164.14a2.89,2.89,0,0,1,.12-.44q.13-.48.39-1.32c.37-1.21.89-3,1.58-5.23a.1.1,0,0,1,.13-.07.09.09,0,0,1,.06,0h0l-.19.11a23.25,23.25,0,0,1,5.52-25.12,23.26,23.26,0,0,1,35.75,4.32,23.09,23.09,0,0,1,3.55,10.71,23.22,23.22,0,0,1-15.55,23.71A23.33,23.33,0,0,1,410,170.7a22.9,22.9,0,0,1-9.26-6.37l.07,0-4.86-.15-1.24-.05-.4,0H396l4.8,0a.08.08,0,0,1,.07,0,22.93,22.93,0,0,0,32.51,1.54,22.81,22.81,0,0,0,5.69-8.12,23.36,23.36,0,0,0,1.63-10.42,22.81,22.81,0,0,0-21.18-21,22.8,22.8,0,0,0-22.13,12.91,22.67,22.67,0,0,0-2.09,7,23.15,23.15,0,0,0,1.29,11.1.1.1,0,0,1-.06.14.11.11,0,0,1-.13,0h0l.2,0-1.68,5.12c-.2.57-.34,1-.45,1.33S394.3,164.14,394.3,164.14Z"/><path class="cls-1" d="M410.36,145.75h4.07a3.46,3.46,0,0,1,3.56-3.48,3.3,3.3,0,0,1,3.19,2.11,3.65,3.65,0,0,1-.29,3.29c-.69,1.14-2.21,2.18-4.95,1.7v6h4v-2.17a7.87,7.87,0,0,0,5.65-7.69c0-5.95-5.35-7.34-7.63-7.34C416.24,138.14,410.28,138.57,410.36,145.75Z"/><rect class="cls-1" x="415.93" y="156.9" width="4.09" height="3.82"/><path class="cls-1" d="M140.62,40.85h19.1s0-16,16.67-16.32a15.45,15.45,0,0,1,15,9.86A17.1,17.1,0,0,1,190,49.86c-3.24,5.34-10.34,10.2-23.21,7.93v28h18.89V75.63s26.49-6.85,26.49-36c0-27.93-25-34.42-35.77-34.42C168.19,5.17,140.26,7.16,140.62,40.85Z"/><rect class="cls-1" x="166.73" y="93.09" width="19.17" height="17.9"/><path class="cls-3" d="M123.63,107.38l-15-4s-3.37,12.62-16.54,9.34a12.57,12.57,0,0,1-9.7-10.9,14,14,0,0,1,4.32-11.88c3.67-3.52,10.28-5.85,19.93-1.36l5.88-22-14.85-4-2.14,8S73.23,70.39,67.1,93.35c-5.86,22,12.47,32.33,20.91,34.58C94.46,129.66,116.84,134,123.63,107.38Z"/><rect class="cls-3" x="100.61" y="44.47" width="15.6" height="14.57" transform="translate(199.8 129.73) rotate(-165.05)"/><path class="cls-3" d="M413.22,276.08l12.49,1.34s1.13-10.48,12.05-9.5a10.18,10.18,0,0,1,9.09,7.51,11.25,11.25,0,0,1-2,10c-2.5,3.27-7.48,5.94-15.74,3.55l-2,18.33,12.35,1.33.71-6.66s17.8-2.61,19.86-21.7c2-18.26-13.95-24.26-21-25C433.76,254.69,415.36,254,413.22,276.08Z"/><rect class="cls-3" x="425.94" y="312.71" width="12.6" height="11.77" transform="translate(36.64 -44.5) rotate(6.15)"/><path class="cls-4" d="M49.22,351l13.12-1.42s-1.19-11,10.24-12.45a10.7,10.7,0,0,1,11,5.67,11.86,11.86,0,0,1,.21,10.73c-1.83,3.91-6.35,7.77-15.36,7.17l2.07,19.26,13-1.4-.75-7s17.69-6.67,15.53-26.73c-2.07-19.19-19.76-21.79-27.13-21C65.52,324.41,46.47,327.84,49.22,351Z"/><rect class="cls-4" x="71.65" y="384.18" width="13.25" height="12.37" transform="translate(-41.39 10.64) rotate(-6.15)"/><path class="cls-4" d="M231.71,55.31l11.54-3.37s-2.83-9.69,7.19-12.8a9.72,9.72,0,0,1,10.79,3.32,10.8,10.8,0,0,1,1.91,9.59c-1,3.79-4.45,8-12.63,8.88l4.94,16.94,11.41-3.33-1.79-6.16s14.8-8.81,9.65-26.45C269.79,25.05,253.51,25.55,247,27.44,242.08,28.89,225.55,35,231.71,55.31Z"/><rect class="cls-4" x="258.04" y="80.36" width="12.07" height="11.27" transform="translate(-13.52 77.44) rotate(-16.27)"/><path class="cls-4" d="M437.83,222.91l9.33-2.72s-2.29-7.83,5.8-10.34a7.84,7.84,0,0,1,8.71,2.68,8.68,8.68,0,0,1,1.54,7.75c-.82,3.06-3.59,6.45-10.19,7.17l4,13.68,9.22-2.69-1.45-5s12-7.12,7.79-21.37c-4-13.63-17.13-13.23-22.36-11.7C446.21,201.57,432.86,206.52,437.83,222.91Z"/><rect class="cls-4" x="459.1" y="243.14" width="9.75" height="9.1" transform="translate(-50.82 139.93) rotate(-16.27)"/></g><g id="Floor"><path class="cls-5" d="M468.29,447.71c0,.15-97.74.26-218.28.26s-218.3-.11-218.3-.26,97.72-.26,218.3-.26S468.29,447.57,468.29,447.71Z"/></g><g id="Speech_Bubble" data-name="Speech Bubble"><circle class="cls-2" cx="373.49" cy="83.1" r="39.13" transform="translate(232.97 438.98) rotate(-81)"/><path class="cls-5" d="M412.62,83.1s0-.21-.06-.63-.07-1.06-.12-1.86c0-.41-.05-.87-.08-1.37s-.16-1-.25-1.63-.19-1.23-.3-1.91-.34-1.37-.51-2.13A37.17,37.17,0,0,0,407,63.19a38.68,38.68,0,0,0-9.91-11l-1.68-1.25c-.59-.39-1.22-.75-1.83-1.12s-1.23-.8-1.9-1.1l-2-1-1-.49-1.08-.39-2.19-.8c-.75-.25-1.52-.4-2.29-.61a20.71,20.71,0,0,0-2.36-.54,36,36,0,0,0-4.92-.56c-.84,0-1.68-.12-2.54-.1l-2.57.13c-.43,0-.87,0-1.3.09l-1.3.2c-.86.14-1.74.24-2.61.42a42.58,42.58,0,0,0-5.19,1.52,39.83,39.83,0,0,0-5.07,2.23c-.82.45-1.61,1-2.42,1.45-.4.25-.83.47-1.21.76l-1.14.86a35.25,35.25,0,0,0-8.22,8.25l-.89,1.2-.79,1.28-.78,1.28a10.07,10.07,0,0,0-.72,1.33L337.68,68l-1.06,2.88a41.26,41.26,0,0,0-2,12.27,41.25,41.25,0,0,0,2,12.26q.53,1.45,1.05,2.88c.45.92.89,1.84,1.32,2.75l.34.68.39.64.78,1.29.78,1.28.9,1.2a43.44,43.44,0,0,0,3.81,4.51,44.61,44.61,0,0,0,4.41,3.75l1.14.85c.38.29.81.51,1.2.76.82.49,1.61,1,2.43,1.45a39.83,39.83,0,0,0,5.07,2.23,39.3,39.3,0,0,0,5.19,1.52c.87.18,1.75.28,2.61.43l1.3.2c.43,0,.87,0,1.3.08l2.58.13c.85,0,1.69-.06,2.53-.09a35.94,35.94,0,0,0,4.92-.57,20.68,20.68,0,0,0,2.36-.53c.77-.21,1.55-.37,2.29-.62l2.19-.8,1.08-.39,1-.49,2-1c.68-.3,1.27-.74,1.9-1.09s1.24-.74,1.83-1.13l1.69-1.25A39,39,0,0,0,407,103a37.42,37.42,0,0,0,4.33-10.38c.17-.75.43-1.45.51-2.13s.21-1.32.3-1.91.2-1.13.25-1.63.06-1,.08-1.37q.07-1.2.12-1.86c0-.41.06-.63.06-.63s0,.22,0,.64,0,1.05-.07,1.86c0,.41,0,.87-.06,1.37s-.14,1-.22,1.64-.18,1.24-.28,1.92-.33,1.39-.49,2.15a37.52,37.52,0,0,1-4.28,10.48,39.2,39.2,0,0,1-9.94,11.19c-.56.42-1.12.85-1.7,1.27s-1.22.76-1.84,1.15-1.23.8-1.91,1.11l-2,1-1,.49-1.09.41-2.21.81c-.75.25-1.54.41-2.32.63a18.68,18.68,0,0,1-2.38.54,35.15,35.15,0,0,1-5,.59c-.85,0-1.71.12-2.57.11l-2.6-.13c-.44,0-.88,0-1.32-.08L368,122c-.88-.15-1.77-.25-2.65-.43a41.78,41.78,0,0,1-5.25-1.53,39.46,39.46,0,0,1-5.14-2.25c-.84-.45-1.63-1-2.46-1.46-.4-.26-.83-.48-1.22-.77l-1.16-.86a44.27,44.27,0,0,1-4.47-3.8,43.44,43.44,0,0,1-3.86-4.56l-.91-1.21-.8-1.3-.79-1.3-.4-.66-.33-.69c-.45-.92-.89-1.84-1.34-2.77s-.71-2-1.07-2.92a42.08,42.08,0,0,1-2-12.43,42,42,0,0,1,2-12.43c.36-1,.72-2,1.07-2.92L338.54,65a10.82,10.82,0,0,1,.73-1.34l.8-1.3.79-1.3.91-1.21a44.68,44.68,0,0,1,3.86-4.56,42.9,42.9,0,0,1,4.47-3.79l1.16-.87c.39-.29.82-.51,1.22-.77.83-.49,1.62-1,2.46-1.46a40.06,40.06,0,0,1,5.14-2.25,41.78,41.78,0,0,1,5.25-1.53c.88-.18,1.77-.28,2.65-.42l1.31-.2c.44-.06.88-.06,1.32-.09l2.6-.12c.86,0,1.72.07,2.57.1a36.87,36.87,0,0,1,5,.59,19.11,19.11,0,0,1,2.38.55c.78.21,1.56.37,2.32.62l2.21.82,1.09.4,1,.49,2,1c.68.31,1.28.75,1.92,1.12s1.25.74,1.84,1.14l1.7,1.27A39,39,0,0,1,407.21,63a37.28,37.28,0,0,1,4.29,10.48c.16.76.41,1.46.49,2.15s.19,1.32.28,1.92.18,1.14.22,1.64,0,1,.06,1.37c0,.81.05,1.43.07,1.87S412.62,83.1,412.62,83.1Z"/><path class="cls-6" d="M359.57,76.39H367s0-6.24,6.49-6.35a6,6,0,0,1,5.82,3.84,6.62,6.62,0,0,1-.53,6c-1.26,2.08-4,4-9,3.09V93.9h7.35v-4s10.31-2.66,10.31-14c0-10.87-9.75-13.39-13.92-13.39C370.3,62.51,359.43,63.28,359.57,76.39Z"/><rect class="cls-6" x="369.73" y="96.73" width="7.46" height="6.97"/><circle class="cls-2" cx="355.06" cy="129.19" r="6.12"/><path class="cls-5" d="M361.18,129.19c-.05,0,0-.55-.29-1.47a6.09,6.09,0,0,0-2.24-3.25,5.9,5.9,0,1,0,0,9.44,6.09,6.09,0,0,0,2.24-3.25c.26-.92.24-1.47.29-1.47s0,.13,0,.39a4.9,4.9,0,0,1-.12,1.13,6.11,6.11,0,0,1-2.21,3.49,6.3,6.3,0,0,1-9-1.24,6.31,6.31,0,0,1,0-7.54,6.29,6.29,0,0,1,8.95-1.24,6.08,6.08,0,0,1,2.22,3.49,4.9,4.9,0,0,1,.12,1.13Q361.21,129.19,361.18,129.19Z"/></g><g id="Character"><path class="cls-5" d="M363,265.54a235.87,235.87,0,0,1,6.44,106.6c-.76,4.38,1.17,8.88,5.76,10.15,4,1.09,9.39-1.35,10.15-5.77a254.61,254.61,0,0,0-6.43-115.36c-3-10.17-18.93-5.84-15.92,4.38Z"/><path class="cls-6" d="M406.25,223.55c-4.69-16.1-17.62-29.2-33-33.46,3.1-11.51-1.8-24.81-7.89-34.9A42.05,42.05,0,0,0,337.09,136c-11.6-1.92-18.79-.88-30,2.72-6.71-12.85-19.6-19.82-33.37-21.47s-28.6,6.1-34.18,19.54c-2-14.13-17.92-22.5-31.07-19.32S185.32,132.33,179.16,145L355.74,335c15.65,6.24,35-.25,44.35-14.92S408,284,396.78,270.9C407.23,258.21,410.94,239.66,406.25,223.55Z"/><rect class="cls-5" x="242.24" y="356.39" width="12.93" height="90.6" transform="translate(44.49 -24.34) rotate(6.15)"/><rect class="cls-5" x="275.47" y="356.39" width="12.93" height="90.6" transform="translate(605.3 770.85) rotate(173.85)"/><path class="cls-6" d="M117.69,169.08c5.27-14.74,14.92-25.92,29.66-32s31.64-6.25,47.49-3.45c6.49,1.15,13.16,2.9,18.17,7.19s7.81,11.78,4.93,17.71a45.76,45.76,0,0,1,68.25,39.08c14.31-1.15,29.33,2,40.68,10.8s18.38,23.66,15.8,37.78c9.36-.82,18.33,5.21,23.32,13.17s6.6,17.56,7.27,26.93c.41,5.78.46,11.74-1.47,17.2-.94,2.66-2.34,5.17-3,7.93-.74,3.33-.28,6.79-.18,10.21a48.2,48.2,0,0,1-65.4,46.47c-16.39,16.92-45.76,19-64.4,4.63-12.12,4.07-25,7-37.65,5.37a45.64,45.64,0,0,1-18.4-6.48c-5.07-3.2-8-9.39-12.74-12.32s-10.39-.35-15.88-.43a41.12,41.12,0,0,1-18.51-4.64,44,44,0,0,1-21.86-28.16c-.6-2.4-1-5-2.56-6.92-1.39-1.79-3.49-2.85-5.45-4a48.56,48.56,0,0,1-12.52-73.41s-9.25-23.72-.55-45S117.69,169.08,117.69,169.08Z"/><g class="cls-7"><path d="M400,303.17a38.17,38.17,0,0,1-33.87,17.21,48,48,0,0,1-63,30.13c-16.39,16.92-45.76,19-64.4,4.62-12.12,4.07-25,7-37.65,5.37a45.64,45.64,0,0,1-18.4-6.48c-5.06-3.2-8-9.39-12.74-12.32s-10.38-.35-15.88-.43a41.15,41.15,0,0,1-18.51-4.64,44,44,0,0,1-21.86-28.15c-.6-2.41-1-5-2.56-6.93-1.38-1.79-3.49-2.85-5.45-4a49.33,49.33,0,0,1-23.24-33,48.33,48.33,0,0,0-.16,16.75,49.31,49.31,0,0,0,23.4,33.78c2,1.14,4.07,2.2,5.45,4,1.52,2,2,4.51,2.56,6.92a44,44,0,0,0,21.86,28.16,41.28,41.28,0,0,0,18.51,4.64c5.5.07,11-2.56,15.88.43s7.68,9.12,12.74,12.32a45.48,45.48,0,0,0,18.4,6.47c12.68,1.63,25.53-1.3,37.65-5.37,18.64,14.41,48,12.3,64.4-4.62a48,48,0,0,0,63-30.12A38.18,38.18,0,0,0,400,320.7c5.72-8.93,7.41-20.37,5.32-30.92A39.19,39.19,0,0,1,400,303.17Z"/></g><path class="cls-5" d="M186.63,274.1a4,4,0,0,1-.4-.54c-.25-.35-.57-.91-1.07-1.56a35.56,35.56,0,0,0-13-11.05,33.16,33.16,0,0,0-24.44-2.29,35.37,35.37,0,0,0-9.35,4.2,35,35,0,0,0-5.46,4.27c-.61.55-1,1-1.34,1.33a2.57,2.57,0,0,1-.48.45,2.43,2.43,0,0,1,.41-.52c.29-.32.68-.83,1.27-1.41a32.68,32.68,0,0,1,5.4-4.43,34.92,34.92,0,0,1,9.41-4.35,34.15,34.15,0,0,1,33.24,8.33,31.75,31.75,0,0,1,4.49,5.36c.48.67.76,1.25,1,1.62A3.17,3.17,0,0,1,186.63,274.1Z"/><path class="cls-5" d="M200.54,333.32a1.33,1.33,0,0,1,0-.35c0-.26,0-.6.06-1s.09-1,.14-1.69.23-1.43.36-2.28a43.25,43.25,0,0,1,1.66-6.12,42.53,42.53,0,0,1,19.29-22.56,37.36,37.36,0,0,1,12.22-4.11,42.11,42.11,0,0,1,13.84.19A41.44,41.44,0,0,1,271.29,308a35.34,35.34,0,0,1,9.15,19.55,28.89,28.89,0,0,1-2,14.47,20.69,20.69,0,0,1-2.66,4.69,1.41,1.41,0,0,1,.17-.31c.14-.22.32-.52.54-.89a28.28,28.28,0,0,0,3.62-17.92,35.12,35.12,0,0,0-9.15-19.27A41.16,41.16,0,0,0,248,295.87a42.19,42.19,0,0,0-13.67-.2,37.34,37.34,0,0,0-12.08,4,41.87,41.87,0,0,0-15.54,14.78,42.42,42.42,0,0,0-3.69,7.46,43.52,43.52,0,0,0-1.74,6.06c-.15.85-.29,1.6-.41,2.26l-.18,1.68-.12,1A1.51,1.51,0,0,1,200.54,333.32Z"/><path class="cls-5" d="M330.21,344.76a1.88,1.88,0,0,1-.43.24,11.3,11.3,0,0,1-1.3.58,20.67,20.67,0,0,1-5.07,1.28,23,23,0,0,1-7.76-.35,21.53,21.53,0,0,1-14.79-11.19,23.25,23.25,0,0,1-2.44-7.38,20.23,20.23,0,0,1-.14-5.23,12.69,12.69,0,0,1,.2-1.41,1.62,1.62,0,0,1,.12-.48,28.38,28.38,0,0,0,.19,7.06,22.93,22.93,0,0,0,2.5,7.21,21.41,21.41,0,0,0,14.46,11,23.38,23.38,0,0,0,7.61.45A28.06,28.06,0,0,0,330.21,344.76Z"/><path class="cls-5" d="M178.35,151.3a6.07,6.07,0,0,1,.14-1.28,31.88,31.88,0,0,1,.77-3.46,40.62,40.62,0,0,1,1.69-5,42.45,42.45,0,0,1,6.61-11,40.71,40.71,0,0,1,3.59-3.83,31.08,31.08,0,0,1,2.69-2.29,7.52,7.52,0,0,1,1.07-.74c.06.08-1.4,1.21-3.5,3.3a44.43,44.43,0,0,0-3.48,3.86,46.67,46.67,0,0,0-6.54,10.87,48.31,48.31,0,0,0-1.78,4.89C178.75,149.5,178.44,151.32,178.35,151.3Z"/><path class="cls-5" d="M139.28,166.62c0,.11-1.8-.41-4.73-.72a35.18,35.18,0,0,0-5.17-.14,38,38,0,0,0-6.26.89,36.68,36.68,0,0,0-6,2,35.59,35.59,0,0,0-4.56,2.43c-2.48,1.59-3.84,2.85-3.91,2.77a6.54,6.54,0,0,1,.92-.91,12.22,12.22,0,0,1,1.17-1c.47-.35,1-.79,1.62-1.18a29.9,29.9,0,0,1,4.57-2.57,32.84,32.84,0,0,1,12.43-2.94,31,31,0,0,1,5.23.26c.74.07,1.4.22,2,.33a12.12,12.12,0,0,1,1.48.35A7.11,7.11,0,0,1,139.28,166.62Z"/><path class="cls-5" d="M139.28,249.57s-.12.14-.39.37-.66.56-1.21.93a27.36,27.36,0,0,1-4.86,2.81,29.89,29.89,0,0,1-34.18-6.8,27.18,27.18,0,0,1-3.42-4.45,14,14,0,0,1-.76-1.33,1.83,1.83,0,0,1-.22-.48s.41.61,1.15,1.7a31.31,31.31,0,0,0,10,9.38,29.38,29.38,0,0,0,19.39,3.86,30.81,30.81,0,0,0,7.91-2.22,32.52,32.52,0,0,0,4.9-2.63C138.67,250,139.25,249.54,139.28,249.57Z"/><path class="cls-5" d="M114.75,296.43c.09,0-.69,1.78-1.51,4.73a40.81,40.81,0,0,0-1.09,5.26,45,45,0,0,0-.38,6.55,44.45,44.45,0,0,0,.67,6.53,40.52,40.52,0,0,0,1.32,5.21c.95,2.91,1.81,4.61,1.72,4.65a5.35,5.35,0,0,1-.65-1.17,15.67,15.67,0,0,1-.66-1.43c-.23-.56-.52-1.2-.76-1.94a37,37,0,0,1-1.44-5.23,41.28,41.28,0,0,1-.72-6.61,40.74,40.74,0,0,1,.43-6.63,37.85,37.85,0,0,1,1.2-5.29c.21-.75.47-1.4.68-2a15.59,15.59,0,0,1,.59-1.46A7.37,7.37,0,0,1,114.75,296.43Z"/><path class="cls-5" d="M179.59,368.46a4,4,0,0,1-.43-.52c-.26-.36-.66-.88-1.13-1.57a62.88,62.88,0,0,1-3.74-6.08,52.65,52.65,0,0,1-4.11-9.75,47.19,47.19,0,0,1-1.39-6.11,45.68,45.68,0,0,1-.48-6.71,54.47,54.47,0,0,1,5.24-22.81,50.15,50.15,0,0,1,3.49-6.22c.45-.71.86-1.22,1.11-1.59a3.17,3.17,0,0,1,.43-.52,4.64,4.64,0,0,1-.34.58c-.23.38-.6.92-1,1.64a58.26,58.26,0,0,0-3.33,6.27,55.66,55.66,0,0,0-5,22.66,46.13,46.13,0,0,0,.45,6.63,48.23,48.23,0,0,0,1.35,6,54.27,54.27,0,0,0,4,9.72c1.4,2.66,2.68,4.72,3.59,6.13l1.05,1.63A2.71,2.71,0,0,1,179.59,368.46Z"/><path class="cls-5" d="M169.53,326.15a3,3,0,0,1-1.12.41,7.69,7.69,0,0,1-3.26-.07,18,18,0,0,1-4.48-1.77,25.34,25.34,0,0,1-4.82-3.38,25.81,25.81,0,0,1-6.31-8.58,23.64,23.64,0,0,1-1.09-3.05,4.67,4.67,0,0,1-.24-1.16c.09,0,.49,1.62,1.67,4.05a27.58,27.58,0,0,0,6.31,8.35,26.11,26.11,0,0,0,4.71,3.35,18.63,18.63,0,0,0,4.34,1.83A8.55,8.55,0,0,0,169.53,326.15Z"/><path class="cls-5" d="M241.94,374.33a3.94,3.94,0,0,1-.92-.47,27.52,27.52,0,0,1-2.35-1.55,36.39,36.39,0,0,1-6.73-6.35,35.88,35.88,0,0,1-4.87-7.89,27.6,27.6,0,0,1-1-2.61,4.37,4.37,0,0,1-.28-1c.09,0,.61,1.33,1.65,3.44A40,40,0,0,0,238.9,372C240.75,373.47,242,374.25,241.94,374.33Z"/><path class="cls-5" d="M309.05,343.16a4.1,4.1,0,0,1,.11,1.06c0,.68,0,1.66,0,2.88a44.25,44.25,0,0,1-1,9.5,27.73,27.73,0,0,1-5.34,11.18,4.16,4.16,0,0,1-.71.79c-.08-.06.84-1.26,2.07-3.34a31.52,31.52,0,0,0,3.48-8.75,52.88,52.88,0,0,0,1.1-9.38A37.38,37.38,0,0,1,309.05,343.16Z"/><path class="cls-5" d="M351.38,291.46a1.71,1.71,0,0,1,.47.22c.29.16.74.39,1.29.74a23.72,23.72,0,0,1,4.25,3.47,26.86,26.86,0,0,1,4.68,6.66,36.91,36.91,0,0,1,1.85,4.45,48.45,48.45,0,0,1,1.34,5,76.55,76.55,0,0,1,1.22,18c-.07,2.31-.19,4.18-.27,5.47,0,.59-.08,1.08-.11,1.48a1.59,1.59,0,0,1-.08.51,3.52,3.52,0,0,1,0-.52c0-.4,0-.89,0-1.48,0-1.37.07-3.22.12-5.46a84.54,84.54,0,0,0-1.37-17.9,50.66,50.66,0,0,0-1.32-4.93,36.7,36.7,0,0,0-1.79-4.4,28.18,28.18,0,0,0-4.51-6.62,27.06,27.06,0,0,0-4.1-3.55C352,291.87,351.36,291.49,351.38,291.46Z"/><path class="cls-5" d="M339.69,302.54a7.26,7.26,0,0,1,1-.88c.69-.53,1.66-1.33,2.83-2.34a66.61,66.61,0,0,0,8.37-8.71,65.56,65.56,0,0,0,6.61-10.1c.73-1.37,1.29-2.49,1.65-3.28a7.13,7.13,0,0,1,.63-1.19,5.89,5.89,0,0,1-.44,1.27c-.31.82-.82,2-1.51,3.37a57.92,57.92,0,0,1-15.07,18.92c-1.21,1-2.22,1.74-2.94,2.22A6.07,6.07,0,0,1,339.69,302.54Z"/><path class="cls-5" d="M333.67,166s.09.12.22.37.32.63.52,1.13a27.72,27.72,0,0,1,1.44,4.37,30.69,30.69,0,0,1-7.34,28.24,27.79,27.79,0,0,1-3.38,3.11c-.42.34-.78.57-1,.74a1.42,1.42,0,0,1-.37.22A11.2,11.2,0,0,1,325,203a33.53,33.53,0,0,0,3.23-3.2,31.45,31.45,0,0,0,7.26-27.92,33.41,33.41,0,0,0-1.26-4.37A13.73,13.73,0,0,1,333.67,166Z"/><path class="cls-5" d="M351.38,175.83c0,.09-1,.07-2.57.3A18.83,18.83,0,0,0,338,181.67c-1.1,1.14-1.67,2-1.74,1.91a7.43,7.43,0,0,1,1.47-2.16,16.73,16.73,0,0,1,5-3.88,16.92,16.92,0,0,1,6-1.78A7.71,7.71,0,0,1,351.38,175.83Z"/><path class="cls-5" d="M383.65,284.66a3.61,3.61,0,0,1,.19-.71c.13-.46.38-1.12.61-2A47.29,47.29,0,0,0,386,263a44.05,44.05,0,0,0-7.31-19.64,47.82,47.82,0,0,0-4.21-5.23,43.42,43.42,0,0,0-8.79-7.2,41.85,41.85,0,0,0-6.87-3.43c-.84-.36-1.52-.54-2-.72a5.13,5.13,0,0,1-.68-.27,3.46,3.46,0,0,1,.72.17c.45.15,1.15.3,2,.63a37.49,37.49,0,0,1,7,3.31,42.76,42.76,0,0,1,9,7.18,47.82,47.82,0,0,1,4.28,5.27,45.91,45.91,0,0,1,3.61,6.35A44.77,44.77,0,0,1,386.43,263a45.26,45.26,0,0,1-.09,11.47,41.89,41.89,0,0,1-1.69,7.54c-.26.88-.55,1.53-.71,2A6.9,6.9,0,0,1,383.65,284.66Z"/><path class="cls-5" d="M383.58,220.64a8.23,8.23,0,0,1-.61,2.49,21.63,21.63,0,0,1-2.86,5.47A20.75,20.75,0,0,1,375.8,233a8,8,0,0,1-2.18,1.34,32.66,32.66,0,0,0,6.06-6.08A34.83,34.83,0,0,0,383.58,220.64Z"/><path class="cls-5" d="M278.51,138.72a5.23,5.23,0,0,1,.4,1,9.88,9.88,0,0,1,.36,1.25c.12.5.28,1.06.38,1.69a29.17,29.17,0,0,1,.45,4.49,31.92,31.92,0,0,1-.43,5.52,30.78,30.78,0,0,1-1.46,5.33,27,27,0,0,1-1.94,4.08c-.3.56-.64,1-.92,1.47a10.43,10.43,0,0,1-.76,1,5.5,5.5,0,0,1-.73.85c-.09-.06.89-1.32,2.09-3.55a30.57,30.57,0,0,0,1.81-4.06,33.5,33.5,0,0,0,1.4-5.26,34.18,34.18,0,0,0,.46-5.42,31.14,31.14,0,0,0-.34-4.44C278.9,140.25,278.41,138.75,278.51,138.72Z"/><g class="cls-7"><path d="M279.8,317.15c.9-2.24,1.17-5.45-1-6.41-1.51-.66-3.2.26-4.58,1.16-4.34,2.87-5.61,4.77-9.91,7.56-3.06,2-7.58,4.15-10.9,2.63-3.69-1.68-3.74-6.85-5.89-10.28a3.56,3.56,0,0,0-3-2,3.77,3.77,0,0,0-3.21,2.62,23.49,23.49,0,0,0,.23,4.34,56.13,56.13,0,0,1-.2,9.63,22.73,22.73,0,0,0-.39,2.63c-3.57-.25-7.23-.29-10.46-.49a2.67,2.67,0,0,0-2.27.61,3.55,3.55,0,0,0-.64,1.87c-.16,1.16-.27,2.33-.34,3.51-16.68.08-32.43-.86-47.18-9-15.87-8.72-23.47-22.81-23.47-42.49,0,0,.08-5.9-8.37-6-9.33-.13-9.19,10.24-9.19,10.24-1.73,21.31,12.36,41.65,30.84,52.41,18,10.5,39.53,13.29,60.43,13.37a5.53,5.53,0,0,0,1.56,1.34,7.45,7.45,0,0,0,4.23.52,37,37,0,0,0,11.1-2.9,9.18,9.18,0,0,0,4.75,2.05,37.76,37.76,0,0,0,12.89.47c2.9-.42,7.51-2.16,8.37-5a14.32,14.32,0,0,1,.69-2.63l0-.06a14.42,14.42,0,0,0,.95-1.1l.55-.52c2-1.95,2.48-8.05.35-9.89a12.24,12.24,0,0,0,.88-1.29l-.66.68c2.38-3.56,2-6.67-1.16-9.8l.12-.18-.15.16h0C277.24,321.48,278.29,320.94,279.8,317.15Z"/></g><path class="cls-5" d="M156.57,278.24c0,19.68,7.6,33.77,23.47,42.49s32.91,9.14,51,8.92q.38,9.28.76,18.59c-21.39.05-43.49-2.62-62-13.38s-32.57-31.09-30.84-52.4c0,0-.14-10.37,9.19-10.24C156.65,272.34,156.57,278.24,156.57,278.24Z"/><path class="cls-2" d="M278.77,305.86c-1.51-.65-3.2.26-4.58,1.17-4.34,2.87-5.61,4.77-9.91,7.56-3.06,2-7.58,4.15-10.9,2.63-3.69-1.68-3.74-6.86-5.89-10.29a3.55,3.55,0,0,0-3-2,3.74,3.74,0,0,0-3.21,2.62,23.39,23.39,0,0,0,.23,4.33,56.25,56.25,0,0,1-.2,9.64c-.38,3.26-1.08,9.28.76,12a46.25,46.25,0,0,0,4,11.58c.53,1.1-1.12.25-.14,1s2.06,2.46,6,3.13a38.26,38.26,0,0,0,12.89.47c2.9-.42,7.51-2.17,8.37-5a14.32,14.32,0,0,1,.69-2.63,7.86,7.86,0,0,1,1.54-1.67c2-2,2.5-8.3.23-10,2.77-3.79,2.49-7.06-.86-10.34,2.46-3.51,3.51-4,5-7.84C280.7,310,281,306.82,278.77,305.86Z"/><path class="cls-2" d="M250.12,327c-.72.62-1.22-1.71-2.1-1.91-5.42-1.18-12.11-1.07-17.55-1.4a2.64,2.64,0,0,0-2.27.61,3.55,3.55,0,0,0-.64,1.87,50.31,50.31,0,0,0,.5,16.47c.55,2.75,1.55,5.72,3.78,6.92a7.29,7.29,0,0,0,4.23.52,38.48,38.48,0,0,0,22-9.95Z"/><path class="cls-5" d="M246,346.59a4,4,0,0,1-.63-.81,8.37,8.37,0,0,1-.64-1,14.2,14.2,0,0,1-.74-1.42,35,35,0,0,1-2.74-8.81,37.71,37.71,0,0,1-.56-9.2,15.86,15.86,0,0,1,.17-1.59,10.81,10.81,0,0,1,.2-1.19,3.27,3.27,0,0,1,.28-1c.09,0-.21,1.45-.28,3.79a43.88,43.88,0,0,0,.7,9.09,41.48,41.48,0,0,0,2.56,8.75C245.23,345.34,246.06,346.53,246,346.59Z"/><path class="cls-5" d="M271.75,334.36c-.09-.13,1.21-1.05,2.54-2.45s2.22-2.72,2.35-2.65a7.12,7.12,0,0,1-2,3A7.32,7.32,0,0,1,271.75,334.36Z"/><path class="cls-5" d="M271,344.58c-.09-.13,1.21-1.05,2.54-2.45s2.22-2.72,2.35-2.64a9.8,9.8,0,0,1-4.89,5.09Z"/><path class="cls-5" d="M270,325.06c-.08-.13,1.22-1.05,2.55-2.45s2.22-2.72,2.35-2.65a7.12,7.12,0,0,1-2,3A7.25,7.25,0,0,1,270,325.06Z"/><path class="cls-5" d="M228.28,226.69c-.31,2.31-8.4,3-17.39,6.16-9,3-15.91,7.29-17.55,5.64-.75-.8.1-3.1,2.66-5.83a32.05,32.05,0,0,1,26.62-9C226.31,224.3,228.39,225.6,228.28,226.69Z"/><path class="cls-5" d="M314.71,189.43c-1.75,1.79-8.41-.25-16.46-.51-8-.49-14.9.92-16.43-1-.67-.94.44-2.75,3.46-4.42a26.35,26.35,0,0,1,13.45-2.72,25.9,25.9,0,0,1,13,4C314.59,186.65,315.49,188.55,314.71,189.43Z"/><path class="cls-2" d="M316.6,224.24c13.12,5.13,19.36,20.55,13.93,34.44s-20.46,21-33.59,15.87S277.58,254,283,240.11,303.47,219.11,316.6,224.24Z"/><path class="cls-5" d="M317.07,223c13.12,5.13,20,19,15.29,31s-19.12,17.54-32.24,12.41-20-19-15.29-31S303.94,217.91,317.07,223Z"/><path class="cls-2" d="M237.39,242c10.67,9.2,11.43,25.82,1.69,37.12s-26.29,13-37,3.79-11.43-25.82-1.69-37.12S226.72,232.82,237.39,242Z"/><path class="cls-5" d="M238.24,241c10.67,9.2,12.51,24.56,4.11,34.3s-23.86,10.18-34.53,1S195.3,251.76,203.7,242,227.56,231.84,238.24,241Z"/><g class="cls-7"><path d="M264.2,281.65c-2.87,2-2.62,4.79-2.58,8.29a6.72,6.72,0,0,0,1.5,4.19,5.19,5.19,0,0,0,4.21,2.16c2.75-.1,5.24-2.53,6.44-5,1.8-3.71,2.26-7.88,2.53-12C272.82,278.87,267.07,279.65,264.2,281.65Z"/></g><path class="cls-5" d="M273.77,291.29s0,.13-.17.37a9.2,9.2,0,0,1-.64,1,14.93,14.93,0,0,1-3.08,3,6.23,6.23,0,0,1-2.82,1,4.61,4.61,0,0,1-3.31-1,6,6,0,0,1-2-3.22,13.68,13.68,0,0,1-.29-4.05,11.85,11.85,0,0,1,.73-4,7.2,7.2,0,0,1,2.36-3,12.26,12.26,0,0,1,5.93-2.24,27.45,27.45,0,0,1,4.26-.18,7.51,7.51,0,0,1,1.56.1,9.83,9.83,0,0,1-1.56.1,34.74,34.74,0,0,0-4.21.34,12.36,12.36,0,0,0-5.69,2.26,6.68,6.68,0,0,0-2.17,2.8,11.31,11.31,0,0,0-.69,3.82,13.49,13.49,0,0,0,.26,3.9,5.56,5.56,0,0,0,1.84,3,4.15,4.15,0,0,0,3,.93,5.81,5.81,0,0,0,2.65-.91,16.91,16.91,0,0,0,3.12-2.79C273.45,291.74,273.73,291.26,273.77,291.29Z"/><path class="cls-5" d="M229.33,432.4a64.64,64.64,0,0,0-25.7.37c-4.32,1-8.7,2.37-12.25,5.05s-6.45,5.45-6.11,9.89l65.09.07C250.36,439.87,237.76,433.86,229.33,432.4Z"/><path class="cls-5" d="M301.2,432.11a64.64,64.64,0,0,1,25.7.38c4.33,1,8.7,2.37,12.25,5.05s6.2,5.73,5.86,10.17l-64.84-.21C280.17,439.59,292.77,433.57,301.2,432.11Z"/><path class="cls-5" d="M205.17,152.1c0,.05-.77-.32-2.17-.87a31.23,31.23,0,0,0-6.13-1.66,30.78,30.78,0,0,0-9.37-.13,29.09,29.09,0,0,0-19.43,11.19,31,31,0,0,0-4.59,8.18,30.48,30.48,0,0,0-1.63,6.14c-.23,1.48-.29,2.32-.34,2.31a2.36,2.36,0,0,1,0-.61,16.15,16.15,0,0,1,.14-1.73,28.23,28.23,0,0,1,1.48-6.24,30.52,30.52,0,0,1,4.56-8.34A29,29,0,0,1,187.43,149a30.75,30.75,0,0,1,9.51.24,28.29,28.29,0,0,1,6.13,1.85,15.16,15.16,0,0,1,1.57.75A2.71,2.71,0,0,1,205.17,152.1Z"/><g class="cls-7"><path d="M267.07,183.58a23.64,23.64,0,0,0-26.52-26.69q0-10.56-.05-21.1s5.42,1.09,5.52,16.31a21.74,21.74,0,0,1,19.89,11C273,175.31,267.07,183.58,267.07,183.58Z"/></g><path class="cls-5" d="M248.87,214a5,5,0,0,1,0-.86c0-.3.05-.64.09-1a8.74,8.74,0,0,0,.07-1.41,28.37,28.37,0,0,0-1.2-8.9,27.8,27.8,0,0,0-1-2.82c-.38-1-.87-1.92-1.36-2.93a33.32,33.32,0,0,0-1.8-2.95c-.34-.49-.67-1-1-1.48l-1.18-1.44a29.9,29.9,0,0,0-5.85-5.23,28.87,28.87,0,0,0-7.59-3.61,28.35,28.35,0,0,0-8.35-1,29.15,29.15,0,0,0-7.74,1.3l-1.77.58c-.57.21-1.12.47-1.67.69-1.11.43-2.1,1.05-3.1,1.54s-1.88,1.14-2.71,1.76-1.65,1.19-2.33,1.86a28.55,28.55,0,0,0-5.76,6.89,9.39,9.39,0,0,0-.69,1.23c-.18.36-.34.66-.48.93a3.89,3.89,0,0,1-.42.75,7,7,0,0,1,.33-.8l.43-.95a8.14,8.14,0,0,1,.66-1.26,27.07,27.07,0,0,1,5.69-7.06,29.09,29.09,0,0,1,2.33-1.92c.84-.63,1.78-1.19,2.73-1.8s2-1.15,3.14-1.59c.55-.23,1.11-.49,1.69-.71l1.79-.6a29.65,29.65,0,0,1,7.86-1.35A26.2,26.2,0,0,1,236,184.49a30,30,0,0,1,5.93,5.34l1.19,1.46c.38.5.71,1,1,1.51.72,1,1.22,2,1.81,3s1,2,1.34,3a28.27,28.27,0,0,1,1,2.86,27.29,27.29,0,0,1,1,9,7.53,7.53,0,0,1-.12,1.42c0,.39-.1.74-.14,1A5,5,0,0,1,248.87,214Z"/><path class="cls-5" d="M155.31,244.62a2.2,2.2,0,0,1-.54-.1c-.34-.09-.87-.18-1.51-.4a23.67,23.67,0,0,1-5.23-2.41,25.64,25.64,0,0,1-6.46-5.59,24.31,24.31,0,0,1-5.43-19.68,25.81,25.81,0,0,1,2.67-8.12,23.91,23.91,0,0,1,3.26-4.74c.44-.53.85-.87,1.09-1.13a2.47,2.47,0,0,1,.41-.36,20.23,20.23,0,0,1-1.34,1.62,25.1,25.1,0,0,0-3.09,4.78,26.38,26.38,0,0,0-2.53,8,24.24,24.24,0,0,0,5.33,19.3,26.38,26.38,0,0,0,6.28,5.59,25,25,0,0,0,5.11,2.52C154.6,244.38,155.32,244.57,155.31,244.62Z"/><path class="cls-5" d="M118.6,207.84a10.43,10.43,0,0,1,2.85.33,27.22,27.22,0,0,1,6.57,2.25,27.55,27.55,0,0,1,5.8,3.82,10.46,10.46,0,0,1,2,2c-.06.06-.85-.69-2.24-1.77a33,33,0,0,0-12.21-6C119.67,208.09,118.59,207.92,118.6,207.84Z"/><path class="cls-5" d="M264.55,192.79c0,.09-1.1-.25-2.89-.57a24.57,24.57,0,0,0-7-.19,23.07,23.07,0,0,0-6.75,1.93c-1.64.76-2.59,1.39-2.64,1.31s.2-.21.62-.51a14.5,14.5,0,0,1,1.85-1.13,20.51,20.51,0,0,1,6.86-2.12,21.38,21.38,0,0,1,7.16.35,17.49,17.49,0,0,1,2.08.6A2.38,2.38,0,0,1,264.55,192.79Z"/><g class="cls-7"><path d="M256.61,187.54a17.16,17.16,0,0,0-11.26,1.89,29.6,29.6,0,0,0-28.09-14.15c-11,1.2-19.68,9.69-23.07,20.24,5.64-10.52,15.4-14.68,25.69-15s20.77,5.38,25.34,14.61a26.2,26.2,0,0,1,21.3-1.94A17.13,17.13,0,0,0,256.61,187.54Z"/></g><g class="cls-7"><path d="M146.56,199.82a19,19,0,0,0-14.8,8.94,18.8,18.8,0,0,0-13-.92A27,27,0,0,1,136.39,217,18.47,18.47,0,0,1,146.56,199.82Z"/></g><g class="cls-7"><path d="M387.15,243.54c-5.78-9.75-18.36-17-29.68-16.65l-.28,0c9,3.4,19.13,10.51,24.5,21.5a49.39,49.39,0,0,1,4.24,29.16C391.7,267.78,392.93,253.29,387.15,243.54Z"/></g><path class="cls-2" d="M390.39,389.08a22.3,22.3,0,0,0,.22-2.45,25.48,25.48,0,0,0-.39-7.16,13.12,13.12,0,0,0-2-4.59,32.9,32.9,0,0,0,2.73-9.94,6.66,6.66,0,0,0-.41-3.8c-1.05-2-3.71-2.95-6.17-3.47a45,45,0,0,0-14.78-.65,3.27,3.27,0,0,0-1.69.55,2.41,2.41,0,0,0-.57,2,87.27,87.27,0,0,1,.19,10.77,18.55,18.55,0,0,0-6.73,4.34l-.07.07a70.32,70.32,0,0,1-7.4,5.75c-1.47,1-2.39,2-2.49,3.23a2.92,2.92,0,0,0,1.41,2.72c3.05,2,9.9-3,9.9-3a30,30,0,0,1-3,6.45c-3.07,4.6-.66.75-5.35,7.75-.48.73-2,2.59-1.39,4.54s2.09,2.28,4.1,1.51c3.4-1.31,7.85-6,10.8-8.42-.82,1-4.8,6.74-5.46,7.79-.93,1.47-1.86,2.68-1.43,3.91s2.2,1.66,3.5,1.56a4.9,4.9,0,0,0,2.73-1.52,88.59,88.59,0,0,0,7.08-7.91c-.9,2-3,6.07-3.63,8.23-.21.8-.8,2.53-.44,3.28.62,1.25,2.43,1.34,3.73.82,1.69-.67,4-3.35,5-4.87a27.36,27.36,0,0,0,2.33-4.92,12.18,12.18,0,0,1-.58,1.94,15,15,0,0,0-1.17,3.56c0,.78-.89,3.7.35,4.49,1.66,1.07,3.08-.7,3.52-1.24,2.9-3.64,4.57-8.62,5.74-12A47.66,47.66,0,0,0,390.39,389.08Z"/><path class="cls-5" d="M390.39,389.08s0,.23-.06.66l-.25,1.93a36.58,36.58,0,0,1-1.66,7.29c-.52,1.54-1.1,3.25-1.87,5.07a29.58,29.58,0,0,1-3.05,5.68,5.53,5.53,0,0,1-2.69,2.41,2.06,2.06,0,0,1-1.9-.49,2.79,2.79,0,0,1-.5-2,16.65,16.65,0,0,1,.25-2,2.7,2.7,0,0,0,0-.48,3.2,3.2,0,0,1,.08-.54c.08-.34.18-.67.29-1,.22-.66.48-1.32.76-2a10.19,10.19,0,0,0,.61-2l.36.1a22.61,22.61,0,0,1-3,5.91,20.53,20.53,0,0,1-2.36,2.6,9.34,9.34,0,0,1-1.44,1.11,4.36,4.36,0,0,1-1.79.59,3.46,3.46,0,0,1-1.91-.31,2.07,2.07,0,0,1-.76-.68,1.68,1.68,0,0,1-.27-1,8.4,8.4,0,0,1,.35-1.9c.17-.61.34-1.24.57-1.84.92-2.42,2.18-4.74,3.27-7.17l.39.24c-1.55,1.87-3.14,3.8-4.86,5.68a31.21,31.21,0,0,1-2.78,2.73,4.91,4.91,0,0,1-1.78,1,4.71,4.71,0,0,1-2.08,0,3.3,3.3,0,0,1-1.87-1,2.19,2.19,0,0,1-.34-2.13,8.17,8.17,0,0,1,1-1.86c.36-.58.75-1.14,1.15-1.7l4.8-6.86.36.36c-2.69,2.22-5.2,4.84-8.21,7a13.11,13.11,0,0,1-2.42,1.39,4.59,4.59,0,0,1-2.85.44,2.24,2.24,0,0,1-1.26-.87,3.85,3.85,0,0,1-.62-1.35,4.28,4.28,0,0,1,.44-2.88c3.21-5.49,7.72-10,9.37-15.81l.39.29a26.86,26.86,0,0,1-4.15,2.39,9.66,9.66,0,0,1-4.64,1.08A3.4,3.4,0,0,1,351.3,386a3.08,3.08,0,0,1-.76-2.3,3.68,3.68,0,0,1,1.07-2.15,10.63,10.63,0,0,1,1.8-1.44,65.77,65.77,0,0,0,6.92-5.35,18.92,18.92,0,0,1,7.07-4.63l-.15.2a64.78,64.78,0,0,0,0-8c0-.65-.07-1.3-.11-1.94a8.13,8.13,0,0,1,0-2,1.86,1.86,0,0,1,.49-.94,2,2,0,0,1,.91-.51,11.43,11.43,0,0,1,1.88-.29,45.45,45.45,0,0,1,13.89.76c2.09.47,4.22,1.1,5.66,2.62a4.54,4.54,0,0,1,1.17,2.72,13,13,0,0,1-.14,2.81,33.24,33.24,0,0,1-2.7,9.31l0-.13a11.21,11.21,0,0,1,1.56,3,15.32,15.32,0,0,1,.73,2.87,23.52,23.52,0,0,1,.15,4.62,27.67,27.67,0,0,1-.2,2.81c-.07.63-.12.95-.12.95s0-.32.05-.95.14-1.57.14-2.81a23.78,23.78,0,0,0-.21-4.59,15,15,0,0,0-.74-2.83,11.63,11.63,0,0,0-1.55-2.95.1.1,0,0,1,0-.12,33.4,33.4,0,0,0,2.61-9.25,12.41,12.41,0,0,0,.13-2.73,4.22,4.22,0,0,0-1.11-2.53c-1.34-1.41-3.41-2-5.48-2.48a45,45,0,0,0-13.77-.71,11.65,11.65,0,0,0-1.8.28,1.41,1.41,0,0,0-1.09,1.13,7.61,7.61,0,0,0,0,1.85c0,.65.07,1.3.11,1.95a63.57,63.57,0,0,1,0,8.06.24.24,0,0,1-.15.2,18.47,18.47,0,0,0-6.9,4.55,66,66,0,0,1-7,5.41,9.65,9.65,0,0,0-1.71,1.38,3.12,3.12,0,0,0-.94,1.84,2.59,2.59,0,0,0,.64,1.93,2.89,2.89,0,0,0,1.84,1,9.17,9.17,0,0,0,4.37-1,25.78,25.78,0,0,0,4.06-2.35h0a.25.25,0,0,1,.35.07.27.27,0,0,1,0,.23,35.16,35.16,0,0,1-1.74,4.23,29.63,29.63,0,0,1-2.42,3.95c-.43.64-.92,1.26-1.36,1.88l-1.33,1.91-1.3,1.95a15.29,15.29,0,0,0-1.24,2,3.71,3.71,0,0,0-.4,2.53,2.31,2.31,0,0,0,1.5,1.83,4.11,4.11,0,0,0,2.52-.41,12.9,12.9,0,0,0,2.33-1.34c2.95-2.08,5.44-4.68,8.18-6.94a.24.24,0,0,1,.35,0,.26.26,0,0,1,0,.31h0l-4.78,6.81c-.39.56-.78,1.12-1.14,1.7a8,8,0,0,0-.92,1.73,1.75,1.75,0,0,0,.25,1.68,2.92,2.92,0,0,0,1.6.84,4.23,4.23,0,0,0,1.84,0,4.36,4.36,0,0,0,1.6-.91,31.42,31.42,0,0,0,2.73-2.68c1.72-1.87,3.31-3.79,4.87-5.66a.23.23,0,0,1,.39.24c-1.11,2.46-2.37,4.77-3.28,7.14a18.74,18.74,0,0,0-.56,1.8,7.23,7.23,0,0,0-.34,1.8,1.37,1.37,0,0,0,.8,1.3,2.93,2.93,0,0,0,1.66.26,5.13,5.13,0,0,0,3-1.58,19.71,19.71,0,0,0,2.32-2.53,22.48,22.48,0,0,0,3-5.8.19.19,0,0,1,.36.1,10.54,10.54,0,0,1-.64,2.09c-.28.64-.54,1.29-.76,1.94a8.85,8.85,0,0,0-.28,1,2,2,0,0,0-.07.47,3.85,3.85,0,0,1-.07.52c-.1.67-.22,1.32-.25,2a2.49,2.49,0,0,0,.4,1.71,1.75,1.75,0,0,0,1.58.41,5.28,5.28,0,0,0,2.52-2.27,29.45,29.45,0,0,0,3.06-5.61c.78-1.81,1.38-3.51,1.91-5a39.08,39.08,0,0,0,1.76-7.24l.3-1.92C390.34,389.3,390.39,389.08,390.39,389.08Z"/><path class="cls-5" d="M388.29,375c-.06.07-1-.78-2.72-1.92a20.59,20.59,0,0,0-7.3-3,23.9,23.9,0,0,0-7.93,0c-2,.33-3.26.66-3.28.57a3.51,3.51,0,0,1,.84-.32,22.52,22.52,0,0,1,2.38-.61,21.46,21.46,0,0,1,8.09-.11,19.08,19.08,0,0,1,9.3,4.8C388.09,374.7,388.31,374.93,388.29,375Z"/></g></svg>